999
DXF generated by OpenJsCad
  0
SECTION
  2
HEADER
  0
ENDSEC
  0
SECTION
  2
TABLES
  0
TABLE
  2
LTYPE
  70
1
  0
LTYPE
  2
CONTINUOUS
  3
Solid Line
  72
65
  73
0
  40
0.0
  0
ENDTAB
  0
TABLE
  2
LAYER
  70
1
  0
LAYER
  2
OpenJsCad
  62
7
  6
continuous
  0
ENDTAB
  0
TABLE
  2
STYLE
  70
0
  0
ENDTAB
  0
TABLE
  2
VIEW
  70
0
  0
ENDTAB
  0
ENDSEC
  0
SECTION
  2
BLOCKS
  0
ENDSEC
  0
SECTION
  2
ENTITIES
  0
LWPOLYLINE
  8
OpenJsCad
  90
121
  70
1
 10
8.400949998372166
 20
-9.497386732166234
 30
0.0
 10
9.003163161571061
 20
-9.003163161571063
 30
0.0
 10
9.49738673216624
 20
-8.40094999837216
 30
0.0
 10
9.471331719835693
 20
-7.988915075838527
 30
0.0
 10
8.931216441991305
 20
-6.385687112918315
 30
0.0
 10
8.362388709805629
 20
-5.530124835263163
 30
0.0
 10
8.089993824938917
 20
-5.290130841260015
 30
0.0
 10
7.027827316882243
 20
-4.763289098462479
 30
0.0
 10
6.576019125038633
 20
-3.956240760223516
 30
0.0
 10
7.447432386087927
 20
-1.852463046966561
 30
0.0
 10
8.337578375050269
 20
-1.6012703305007072
 30
0.0
 10
9.461176884590666
 20
-1.979802102152537
 30
0.0
 10
9.823490535444112
 20
-2.002712991798648
 30
0.0
 10
10.830686370456968
 20
-1.7999610502967356
 30
0.0
 10
12.346258910411924
 20
-1.0482268615142025
 30
0.0
 10
12.656035274123962
 20
-0.7752978496078232
 30
0.0
 10
12.732395447351628
 20
-1.8849008925965003e-15
 30
0.0
 10
12.656035274123962
 20
0.7752978496078223
 30
0.0
 10
12.346258910411928
 20
1.048226861514199
 30
0.0
 10
10.83068637045693
 20
1.799961050296753
 30
0.0
 10
9.823490535444106
 20
2.002712991798661
 30
0.0
 10
9.461176884590657
 20
1.9798021021525505
 30
0.0
 10
8.33757837505027
 20
1.6012703305007179
 30
0.0
 10
7.447432386087915
 20
1.8524630469665735
 30
0.0
 10
6.576019125038633
 20
3.9562407602235337
 30
0.0
 10
7.027827316882236
 20
4.763289098462486
 30
0.0
 10
8.089993824938915
 20
5.290130841260033
 30
0.0
 10
8.362388709805623
 20
5.5301248352631776
 30
0.0
 10
8.931216441991321
 20
6.3856871129183554
 30
0.0
 10
9.471331719835693
 20
7.988915075838522
 30
0.0
 10
9.497386732166241
 20
8.400949998372157
 30
0.0
 10
9.003163161571063
 20
9.003163161571061
 30
0.0
 10
8.40094999837216
 20
9.49738673216624
 30
0.0
 10
7.988915075838528
 20
9.471331719835693
 30
0.0
 10
6.3856871129183155
 20
8.931216441991305
 30
0.0
 10
5.530124835263164
 20
8.362388709805629
 30
0.0
 10
5.290130841260016
 20
8.089993824938917
 30
0.0
 10
4.763289098462479
 20
7.027827316882243
 30
0.0
 10
3.9562407602235163
 20
6.576019125038633
 30
0.0
 10
1.8524630469665615
 20
7.447432386087927
 30
0.0
 10
1.6012703305007077
 20
8.337578375050269
 30
0.0
 10
1.9798021021525376
 20
9.461176884590666
 30
0.0
 10
2.0027129917986484
 20
9.823490535444112
 30
0.0
 10
1.7999610502967363
 20
10.830686370456968
 30
0.0
 10
1.0482268615142032
 20
12.346258910411924
 30
0.0
 10
0.775297849607824
 20
12.656035274123962
 30
0.0
 10
1.8849008925965003e-15
 20
12.732395447351628
 30
0.0
 10
-0.7752978496078223
 20
12.656035274123962
 30
0.0
 10
-1.048226861514199
 20
12.346258910411928
 30
0.0
 10
-1.799961050296753
 20
10.83068637045693
 30
0.0
 10
-2.002712991798661
 20
9.823490535444106
 30
0.0
 10
-1.9798021021525505
 20
9.461176884590657
 30
0.0
 10
-1.6012703305007179
 20
8.33757837505027
 30
0.0
 10
-1.8524630469665735
 20
7.447432386087915
 30
0.0
 10
-3.9562407602235337
 20
6.576019125038633
 30
0.0
 10
-4.763289098462486
 20
7.027827316882236
 30
0.0
 10
-5.290130841260033
 20
8.089993824938915
 30
0.0
 10
-5.5301248352631776
 20
8.362388709805623
 30
0.0
 10
-6.3856871129183554
 20
8.931216441991321
 30
0.0
 10
-7.988915075838522
 20
9.471331719835693
 30
0.0
 10
-8.400949998372157
 20
9.497386732166241
 30
0.0
 10
-9.00316316157106
 20
9.003163161571065
 30
0.0
 10
-9.497386732166238
 20
8.400949998372162
 30
0.0
 10
-9.47133171983569
 20
7.988915075838528
 30
0.0
 10
-8.931216441991305
 20
6.3856871129183155
 30
0.0
 10
-8.362388709805629
 20
5.530124835263164
 30
0.0
 10
-8.089993824938917
 20
5.290130841260016
 30
0.0
 10
-7.0278273168822425
 20
4.76328909846248
 30
0.0
 10
-6.576019125038632
 20
3.956240760223517
 30
0.0
 10
-7.447432386087927
 20
1.852463046966562
 30
0.0
 10
-8.337578375050269
 20
1.6012703305007083
 30
0.0
 10
-9.461176884590666
 20
1.979802102152538
 30
0.0
 10
-9.823490535444112
 20
2.0027129917986493
 30
0.0
 10
-10.830686370456968
 20
1.799961050296737
 30
0.0
 10
-12.346258910411924
 20
1.048226861514204
 30
0.0
 10
-12.656035274123962
 20
0.7752978496078248
 30
0.0
 10
-12.73239544735163
 20
2.7730793122966256e-15
 30
0.0
 10
-12.656035274123964
 20
-0.7752978496078214
 30
0.0
 10
-12.34625891041193
 20
-1.048226861514198
 30
0.0
 10
-10.830686370456931
 20
-1.799961050296752
 30
0.0
 10
-9.823490535444108
 20
-2.0027129917986604
 30
0.0
 10
-9.461176884590657
 20
-1.97980210215255
 30
0.0
 10
-8.33757837505027
 20
-1.6012703305007174
 30
0.0
 10
-7.447432386087916
 20
-1.852463046966573
 30
0.0
 10
-6.576019125038634
 20
-3.9562407602235337
 30
0.0
 10
-7.027827316882236
 20
-4.763289098462486
 30
0.0
 10
-8.089993824938915
 20
-5.290130841260032
 30
0.0
 10
-8.362388709805625
 20
-5.530124835263177
 30
0.0
 10
-8.931216441991323
 20
-6.3856871129183554
 30
0.0
 10
-9.471331719835694
 20
-7.988915075838522
 30
0.0
 10
-9.497386732166243
 20
-8.400949998372157
 30
0.0
 10
-9.003163161571065
 20
-9.00316316157106
 30
0.0
 10
-8.400949998372162
 20
-9.497386732166238
 30
0.0
 10
-7.988915075838529
 20
-9.47133171983569
 30
0.0
 10
-6.385687112918316
 20
-8.931216441991303
 30
0.0
 10
-5.530124835263165
 20
-8.362388709805627
 30
0.0
 10
-5.290130841260017
 20
-8.089993824938915
 30
0.0
 10
-4.76328909846248
 20
-7.0278273168822425
 30
0.0
 10
-3.9562407602235172
 20
-6.576019125038632
 30
0.0
 10
-1.8524630469665624
 20
-7.447432386087927
 30
0.0
 10
-1.6012703305007088
 20
-8.337578375050269
 30
0.0
 10
-1.9798021021525387
 20
-9.461176884590666
 30
0.0
 10
-2.0027129917986497
 20
-9.823490535444112
 30
0.0
 10
-1.7999610502967376
 20
-10.830686370456968
 30
0.0
 10
-1.0482268615142047
 20
-12.346258910411924
 30
0.0
 10
-0.7752978496078256
 20
-12.656035274123962
 30
0.0
 10
8.773240143805002e-15
 20
-12.732395447351628
 30
0.0
 10
0.7752978496078321
 20
-12.656035274123962
 30
0.0
 10
1.0482268615142087
 20
-12.346258910411928
 30
0.0
 10
1.7999610502967618
 20
-10.830686370456927
 30
0.0
 10
2.0027129917986692
 20
-9.823490535444105
 30
0.0
 10
1.979802102152558
 20
-9.461176884590655
 30
0.0
 10
1.601270330500724
 20
-8.337578375050269
 30
0.0
 10
1.8524630469665793
 20
-7.447432386087914
 30
0.0
 10
3.956240760223539
 20
-6.57601912503863
 30
0.0
 10
4.763289098462491
 20
-7.027827316882233
 30
0.0
 10
5.290130841260038
 20
-8.08999382493891
 30
0.0
 10
5.530124835263185
 20
-8.36238870980562
 30
0.0
 10
6.3856871129183626
 20
-8.931216441991316
 30
0.0
 10
7.98891507583853
 20
-9.471331719835687
 30
0.0
 10
8.400949998372166
 20
-9.497386732166234
 30
0.0
  0
LWPOLYLINE
  8
OpenJsCad
  90
31
  70
1
 10
0.41582338163551874
 20
-1.9562952014676114
 30
0.0
 10
1.2246467991473532e-16
 20
-2
 30
0.0
 10
-0.41582338163551785
 20
-1.9562952014676114
 30
0.0
 10
-0.8134732861516002
 20
-1.827090915285202
 30
0.0
 10
-1.1755705045849467
 20
-1.6180339887498945
 30
0.0
 10
-1.486289650954788
 20
-1.338261212717717
 30
0.0
 10
-1.7320508075688772
 20
-1.0000000000000002
 30
0.0
 10
-1.9021130325903073
 20
-0.6180339887498946
 30
0.0
 10
-1.9890437907365468
 20
-0.20905692653530608
 30
0.0
 10
-1.9890437907365466
 20
0.20905692653530836
 30
0.0
 10
-1.902113032590307
 20
0.618033988749895
 30
0.0
 10
-1.7320508075688767
 20
1.0000000000000009
 30
0.0
 10
-1.486289650954788
 20
1.338261212717717
 30
0.0
 10
-1.175570504584946
 20
1.618033988749895
 30
0.0
 10
-0.8134732861516005
 20
1.8270909152852017
 30
0.0
 10
-0.41582338163551824
 20
1.9562952014676114
 30
0.0
 10
1.0106430996148606e-15
 20
2
 30
0.0
 10
0.4158233816355185
 20
1.9562952014676114
 30
0.0
 10
0.8134732861516
 20
1.827090915285202
 30
0.0
 10
1.1755705045849465
 20
1.618033988749895
 30
0.0
 10
1.486289650954789
 20
1.3382612127177158
 30
0.0
 10
1.7320508075688774
 20
0.9999999999999997
 30
0.0
 10
1.9021130325903073
 20
0.6180339887498948
 30
0.0
 10
1.9890437907365468
 20
0.20905692653530678
 30
0.0
 10
1.9890437907365466
 20
-0.2090569265353068
 30
0.0
 10
1.902113032590307
 20
-0.6180339887498948
 30
0.0
 10
1.7320508075688772
 20
-1.0000000000000002
 30
0.0
 10
1.4862896509547885
 20
-1.3382612127177165
 30
0.0
 10
1.1755705045849463
 20
-1.618033988749895
 30
0.0
 10
0.8134732861516004
 20
-1.8270909152852017
 30
0.0
 10
0.41582338163551874
 20
-1.9562952014676114
 30
0.0
  0
ENDSEC
  0
EOF
