999
DXF generated by OpenJsCad
  0
SECTION
  2
HEADER
  0
ENDSEC
  0
SECTION
  2
TABLES
  0
TABLE
  2
LTYPE
  70
1
  0
LTYPE
  2
CONTINUOUS
  3
Solid Line
  72
65
  73
0
  40
0.0
  0
ENDTAB
  0
TABLE
  2
LAYER
  70
1
  0
LAYER
  2
OpenJsCad
  62
7
  6
continuous
  0
ENDTAB
  0
TABLE
  2
STYLE
  70
0
  0
ENDTAB
  0
TABLE
  2
VIEW
  70
0
  0
ENDTAB
  0
ENDSEC
  0
SECTION
  2
BLOCKS
  0
ENDSEC
  0
SECTION
  2
ENTITIES
  0
LWPOLYLINE
  8
OpenJsCad
  90
121
  70
1
 10
36.98714438962538
 20
5.5595368336880835
 30
0.0
 10
36.61990314628813
 20
4.872476792022168
 30
0.0
 10
36.39375710523899
 20
4.126973203982729
 30
0.0
 10
36.575507736259965
 20
3.756273393922999
 30
0.0
 10
37.68803796637104
 20
2.481777061429565
 30
0.0
 10
38.540975774677364
 20
1.9090215332924974
 30
0.0
 10
38.88447755893862
 20
1.7915370038068383
 30
0.0
 10
40.067405062298135
 20
1.711272225809989
 30
0.0
 10
40.793665431525206
 20
1.1385562939891423
 30
0.0
 10
40.7936654315252
 20
-1.1385562939891571
 30
0.0
 10
40.067405062298135
 20
-1.7112722258099964
 30
0.0
 10
38.88447755893861
 20
-1.791537003806853
 30
0.0
 10
38.540975774677364
 20
-1.9090215332925098
 30
0.0
 10
37.68803796637101
 20
-2.481777061429595
 30
0.0
 10
36.57550773625997
 20
-3.756273393922992
 30
0.0
 10
36.39375710523899
 20
-4.1269732039827245
 30
0.0
 10
36.61990314628813
 20
-4.8724767920221606
 30
0.0
 10
36.98714438962538
 20
-5.559536833688087
 30
0.0
 10
37.37778584278305
 20
-5.69314407948602
 30
0.0
 10
39.0656685120731
 20
-5.807671408802942
 30
0.0
 10
40.073785938164704
 20
-5.609552618526951
 30
0.0
 10
40.399752486649334
 20
-5.44973428500996
 30
0.0
 10
41.292964314738924
 20
-4.670033994544381
 30
0.0
 10
42.211479265810524
 20
-4.5614616816409645
 30
0.0
 10
43.821641018295225
 20
-6.171623434125674
 30
0.0
 10
43.71306870539181
 20
-7.090138385197262
 30
0.0
 10
42.933368414926235
 20
-7.9833502132868635
 30
0.0
 10
42.77355008140924
 20
-8.309316761771491
 30
0.0
 10
42.57543129113324
 20
-9.317434187863121
 30
0.0
 10
42.68995862045016
 20
-11.005316857153137
 30
0.0
 10
42.823565866248096
 20
-11.395958310310803
 30
0.0
 10
43.51062590791402
 20
-11.763199553648057
 30
0.0
 10
44.25612949595346
 20
-11.989345594697197
 30
0.0
 10
44.626829306013185
 20
-11.807594963676221
 30
0.0
 10
45.90132563850662
 20
-10.695064733565145
 30
0.0
 10
46.47408116664369
 20
-9.842126925258821
 30
0.0
 10
46.59156569612935
 20
-9.498625140997566
 30
0.0
 10
46.671830474126196
 20
-8.315697637638054
 30
0.0
 10
47.24454640594705
 20
-7.589437268410981
 30
0.0
 10
49.52165899392534
 20
-7.589437268410987
 30
0.0
 10
50.09437492574619
 20
-8.31569763763805
 30
0.0
 10
50.17463970374304
 20
-9.498625140997571
 30
0.0
 10
50.2921242332287
 20
-9.842126925258821
 30
0.0
 10
50.864879761365785
 20
-10.695064733565177
 30
0.0
 10
52.13937609385918
 20
-11.80759496367622
 30
0.0
 10
52.51007590391891
 20
-11.989345594697198
 30
0.0
 10
53.25557949195835
 20
-11.76319955364806
 30
0.0
 10
53.94263953362427
 20
-11.395958310310808
 30
0.0
 10
54.076246779422206
 20
-11.005316857153142
 30
0.0
 10
54.19077410873913
 20
-9.317434187863082
 30
0.0
 10
53.992655318463136
 20
-8.309316761771484
 30
0.0
 10
53.83283698494615
 20
-7.983350213286852
 30
0.0
 10
53.05313669448057
 20
-7.090138385197262
 30
0.0
 10
52.94456438157715
 20
-6.17162343412566
 30
0.0
 10
54.554726134061866
 20
-4.56146168164096
 30
0.0
 10
55.47324108513345
 20
-4.670033994544374
 30
0.0
 10
56.36645291322305
 20
-5.449734285009954
 30
0.0
 10
56.69241946170768
 20
-5.609552618526944
 30
0.0
 10
57.70053688779931
 20
-5.807671408802944
 30
0.0
 10
59.38841955708932
 20
-5.693144079486027
 30
0.0
 10
59.77906101024699
 20
-5.559536833688094
 30
0.0
 10
60.146302253584246
 20
-4.872476792022169
 30
0.0
 10
60.37244829463339
 20
-4.126973203982731
 30
0.0
 10
60.19069766361241
 20
-3.7562733939230006
 30
0.0
 10
59.078167433501335
 20
-2.481777061429566
 30
0.0
 10
58.22522962519501
 20
-1.9090215332924982
 30
0.0
 10
57.881727840933756
 20
-1.7915370038068392
 30
0.0
 10
56.69880033757424
 20
-1.71127222580999
 30
0.0
 10
55.97253996834717
 20
-1.1385562939891432
 30
0.0
 10
55.97253996834718
 20
1.1385562939891563
 30
0.0
 10
56.69880033757424
 20
1.7112722258099953
 30
0.0
 10
57.88172784093376
 20
1.7915370038068519
 30
0.0
 10
58.22522962519501
 20
1.9090215332925085
 30
0.0
 10
59.07816743350136
 20
2.481777061429594
 30
0.0
 10
60.19069766361241
 20
3.7562733939229904
 30
0.0
 10
60.37244829463339
 20
4.126973203982723
 30
0.0
 10
60.14630225358425
 20
4.8724767920221606
 30
0.0
 10
59.779061010247
 20
5.559536833688087
 30
0.0
 10
59.388419557089335
 20
5.693144079486021
 30
0.0
 10
57.700536887799274
 20
5.807671408802942
 30
0.0
 10
56.69241946170767
 20
5.609552618526951
 30
0.0
 10
56.36645291322304
 20
5.449734285009959
 30
0.0
 10
55.47324108513345
 20
4.670033994544381
 30
0.0
 10
54.55472613406185
 20
4.561461681640965
 30
0.0
 10
52.94456438157715
 20
6.171623434125674
 30
0.0
 10
53.053136694480564
 20
7.090138385197262
 30
0.0
 10
53.83283698494614
 20
7.9833502132868635
 30
0.0
 10
53.992655318463136
 20
8.309316761771491
 30
0.0
 10
54.190774108739134
 20
9.317434187863121
 30
0.0
 10
54.07624677942222
 20
11.005316857153137
 30
0.0
 10
53.94263953362429
 20
11.395958310310805
 30
0.0
 10
53.25557949195836
 20
11.763199553648057
 30
0.0
 10
52.51007590391892
 20
11.989345594697195
 30
0.0
 10
52.13937609385919
 20
11.80759496367622
 30
0.0
 10
50.864879761365756
 20
10.695064733565147
 30
0.0
 10
50.292124233228684
 20
9.842126925258821
 30
0.0
 10
50.174639703743026
 20
9.498625140997564
 30
0.0
 10
50.09437492574618
 20
8.315697637638053
 30
0.0
 10
49.52165899392533
 20
7.589437268410981
 30
0.0
 10
47.244546405947034
 20
7.589437268410988
 30
0.0
 10
46.671830474126196
 20
8.31569763763805
 30
0.0
 10
46.59156569612934
 20
9.498625140997571
 30
0.0
 10
46.47408116664368
 20
9.842126925258821
 30
0.0
 10
45.90132563850659
 20
10.695064733565177
 30
0.0
 10
44.6268293060132
 20
11.80759496367622
 30
0.0
 10
44.256129495953466
 20
11.989345594697198
 30
0.0
 10
43.51062590791402
 20
11.763199553648056
 30
0.0
 10
42.82356586624809
 20
11.395958310310805
 30
0.0
 10
42.689958620450156
 20
11.005316857153138
 30
0.0
 10
42.57543129113324
 20
9.317434187863077
 30
0.0
 10
42.77355008140923
 20
8.309316761771479
 30
0.0
 10
42.93336841492622
 20
7.983350213286847
 30
0.0
 10
43.713068705391805
 20
7.090138385197258
 30
0.0
 10
43.82164101829522
 20
6.171623434125657
 30
0.0
 10
42.21147926581051
 20
4.561461681640955
 30
0.0
 10
41.292964314738924
 20
4.67003399454437
 30
0.0
 10
40.39975248664932
 20
5.4497342850099475
 30
0.0
 10
40.07378593816469
 20
5.609552618526937
 30
0.0
 10
39.06566851207306
 20
5.807671408802936
 30
0.0
 10
37.37778584278305
 20
5.693144079486018
 30
0.0
 10
36.98714438962538
 20
5.5595368336880835
 30
0.0
  0
LWPOLYLINE
  8
OpenJsCad
  90
31
  70
1
 10
47.25029022608652
 20
1.6482523772440314
 30
0.0
 10
47.617735835206005
 20
1.8477590650225737
 30
0.0
 10
48.018631648951896
 20
1.966509815127909
 30
0.0
 10
48.43545659655194
 20
1.9993146499511147
 30
0.0
 10
48.849993427648
 20
1.9447398407953531
 30
0.0
 10
49.24412489355278
 20
1.8051705686997215
 30
0.0
 10
49.60062555795363
 20
1.5867066805824703
 30
0.0
 10
49.90391463113625
 20
1.2988960966603669
 30
0.0
 10
50.14073692526012
 20
0.9543175205192159
 30
0.0
 10
50.300742169672574
 20
0.5680306894078436
 30
0.0
 10
50.37693736740245
 20
0.15691819145568942
 30
0.0
 10
50.36599242268381
 20
-0.2610523844401045
 30
0.0
 10
50.268385682120545
 20
-0.6676137184675427
 30
0.0
 10
50.08838302864437
 20
-1.044997129431898
 30
0.0
 10
49.83385144196076
 20
-1.376709151387508
 30
0.0
 10
49.51591517378586
 20
-1.6482523772440316
 30
0.0
 10
49.148469564666364
 20
-1.8477590650225741
 30
0.0
 10
48.74757375092048
 20
-1.9665098151279092
 30
0.0
 10
48.33074880332044
 20
-1.9993146499511145
 30
0.0
 10
47.916211972224374
 20
-1.9447398407953533
 30
0.0
 10
47.5220805063196
 20
-1.8051705686997208
 30
0.0
 10
47.16557984191875
 20
-1.5867066805824699
 30
0.0
 10
46.86229076873612
 20
-1.2988960966603673
 30
0.0
 10
46.625468474612255
 20
-0.9543175205192165
 30
0.0
 10
46.4654632301998
 20
-0.5680306894078451
 30
0.0
 10
46.38926803246993
 20
-0.15691819145568964
 30
0.0
 10
46.400212977188566
 20
0.2610523844401037
 30
0.0
 10
46.49781971775183
 20
0.6676137184675422
 30
0.0
 10
46.677822371228004
 20
1.044997129431898
 30
0.0
 10
46.932353957911616
 20
1.376709151387508
 30
0.0
 10
47.25029022608652
 20
1.6482523772440314
 30
0.0
  0
ENDSEC
  0
EOF
