999
DXF generated by OpenJsCad
  0
SECTION
  2
HEADER
  0
ENDSEC
  0
SECTION
  2
TABLES
  0
TABLE
  2
LTYPE
  70
1
  0
LTYPE
  2
CONTINUOUS
  3
Solid Line
  72
65
  73
0
  40
0.0
  0
ENDTAB
  0
TABLE
  2
LAYER
  70
1
  0
LAYER
  2
OpenJsCad
  62
7
  6
continuous
  0
ENDTAB
  0
TABLE
  2
STYLE
  70
0
  0
ENDTAB
  0
TABLE
  2
VIEW
  70
0
  0
ENDTAB
  0
ENDSEC
  0
SECTION
  2
BLOCKS
  0
ENDSEC
  0
SECTION
  2
ENTITIES
  0
LWPOLYLINE
  8
OpenJsCad
  90
1666
  70
1
 10
19.623478991084582
 20
-9.133905268209864
 30
0.0
 10
19.773757443923596
 20
-8.803844030367985
 30
0.0
 10
19.918484832645614
 20
-8.47131129954722
 30
0.0
 10
20.057620528097743
 20
-8.136400427277517
 30
0.0
 10
20.104606445603284
 20
-8.017727546194367
 30
0.0
 10
20.0036741485253
 20
-7.874212758914884
 30
0.0
 10
19.861586983547166
 20
-7.680913801983929
 30
0.0
 10
19.72031052793762
 20
-7.496920308467213
 30
0.0
 10
19.580170097827644
 20
-7.32211077675134
 30
0.0
 10
19.441486218583496
 20
-7.156354206043788
 30
0.0
 10
19.304574370585684
 20
-6.999510244931202
 30
0.0
 10
19.16974473915009
 20
-6.851429346394789
 30
0.0
 10
19.037301968754
 20
-6.711952929178759
 30
0.0
 10
18.907544921755235
 20
-6.580913545431733
 30
0.0
 10
18.78076644154726
 20
-6.458135054293639
 30
0.0
 10
18.657253120862567
 20
-6.343432801862202
 30
0.0
 10
18.537285074614555
 20
-6.236613806693158
 30
0.0
 10
18.421135717870587
 20
-6.137476951086577
 30
0.0
 10
18.3090715491208
 20
-6.045813178138993
 30
0.0
 10
18.20135193892738
 20
-5.961405694277571
 30
0.0
 10
18.09822892383227
 20
-5.8840301770045
 30
0.0
 10
17.999947006006476
 20
-5.813454987924377
 30
0.0
 10
17.906742958630414
 20
-5.749441390890467
 30
0.0
 10
17.81884563706285
 20
-5.691743774974347
 30
0.0
 10
17.73647579602529
 20
-5.640109882287405
 30
0.0
 10
17.65984591282073
 20
-5.594281040328363
 30
0.0
 10
17.589160016814468
 20
-5.553992398887337
 30
0.0
 10
17.52461352547382
 20
-5.518973170673662
 30
0.0
 10
17.466391924350894
 20
-5.488946937767865
 30
0.0
 10
17.414654002821912
 20
-5.463620553540534
 30
0.0
 10
17.369656919593748
 20
-5.442751699889896
 30
0.0
 10
17.331395470271783
 20
-5.425970634765974
 30
0.0
 10
17.30018954328522
 20
-5.4130563786199
 30
0.0
 10
17.2760818976382
 20
-5.403666059187038
 30
0.0
 10
17.26053918035871
 20
-5.397983854410181
 30
0.0
 10
17.157896093334024
 20
-5.374509910078479
 30
0.0
 10
17.00810670264677
 20
-5.334061911842482
 30
0.0
 10
16.867552171731987
 20
-5.289872284535503
 30
0.0
 10
16.736319850798036
 20
-5.242310356072774
 30
0.0
 10
16.614485666698208
 20
-5.191747395000603
 30
0.0
 10
16.50211408159941
 20
-5.138556293865696
 30
0.0
 10
16.399258056891917
 20
-5.083111259999857
 30
0.0
 10
16.30595904389896
 20
-5.025787455066399
 30
0.0
 10
16.22224693269406
 20
-4.966960770245965
 30
0.0
 10
16.148140085601387
 20
-4.907007395781087
 30
0.0
 10
16.083645307681632
 20
-4.846303579835892
 30
0.0
 10
16.028758097681994
 20
-4.785224807807354
 30
0.0
 10
15.98346112956384
 20
-4.724148581858821
 30
0.0
 10
15.947728491310325
 20
-4.663445693793992
 30
0.0
 10
15.921519571451602
 20
-4.603492062160712
 30
0.0
 10
15.90478413173602
 20
-4.544658548030195
 30
0.0
 10
15.89746015023016
 20
-4.487314935635875
 30
0.0
 10
15.899474295895587
 20
-4.431828814335249
 30
0.0
 10
15.910741986766379
 20
-4.378565281008019
 30
0.0
 10
15.940692217979233
 20
-4.271295606607704
 30
0.0
 10
16.02664742693354
 20
-3.9365221713663052
 30
0.0
 10
16.10557281839181
 20
-3.600022047139112
 30
0.0
 10
16.177433773425665
 20
-3.261942834388221
 30
0.0
 10
16.24219877134752
 20
-2.9224328257021632
 30
0.0
 10
16.29983916468984
 20
-2.5816409009437145
 30
0.0
 10
16.316109013623226
 20
-2.471463361107521
 30
0.0
 10
16.327479696542202
 20
-2.418221719348817
 30
0.0
 10
16.348207921647216
 20
-2.36671339851479
 30
0.0
 10
16.378222460085148
 20
-2.317306333498227
 30
0.0
 10
16.417440791056777
 20
-2.270366160478323
 30
0.0
 10
16.46576916843495
 20
-2.2262559056661937
 30
0.0
 10
16.52310269545873
 20
-2.1853356758655806
 30
0.0
 10
16.589325407458496
 20
-2.147962351050147
 30
0.0
 10
16.664310362556016
 20
-2.1144892791577226
 30
0.0
 10
16.747919740285695
 20
-2.0852659733007757
 30
0.0
 10
16.84000494807204
 20
-2.0606378115905533
 30
0.0
 10
16.94040673549927
 20
-2.0409457397711415
 30
0.0
 10
17.048955316298787
 20
-2.0265259768577444
 30
0.0
 10
17.16547049797969
 20
-2.017709723971845
 30
0.0
 10
17.289761819021308
 20
-2.0148228765640703
 30
0.0
 10
17.421628693540825
 20
-2.018185740213399
 30
0.0
 10
17.560860563346953
 20
-2.0281127501893117
 30
0.0
 10
17.707237057284924
 20
-2.0449121949614755
 30
0.0
 10
17.860528157771938
 20
-2.06888594383865
 30
0.0
 10
17.963844997721786
 20
-2.089190133426313
 30
0.0
 10
17.980355136170843
 20
-2.090320973484696
 30
0.0
 10
18.006197953882044
 20
-2.091547952788174
 30
0.0
 10
18.039985077997162
 20
-2.0924434861791843
 30
0.0
 10
18.081710485617794
 20
-2.092675273722569
 30
0.0
 10
18.131357718993073
 20
-2.091911195181164
 30
0.0
 10
18.188899891908093
 20
-2.089819601328585
 30
0.0
 10
18.2542997037398
 20
-2.0860696050417293
 30
0.0
 10
18.327509461103347
 20
-2.080331371977235
 30
0.0
 10
18.408471107091426
 20
-2.0722764106490166
 30
0.0
 10
18.49711625814721
 20
-2.0615778617022236
 30
0.0
 10
18.593366248437942
 20
-2.047910786066916
 30
0.0
 10
18.697132195971985
 20
-2.0309524511886416
 30
0.0
 10
18.808314893415584
 20
-2.010382252607056
 30
0.0
 10
18.926823070699413
 20
-1.985879820465586
 30
0.0
 10
19.052484526871496
 20
-1.9571416939060573
 30
0.0
 10
19.18522290409673
 20
-1.923845133079096
 30
0.0
 10
19.324881631709903
 20
-1.885686713480583
 30
0.0
 10
19.471311940847194
 20
-1.842362888806804
 30
0.0
 10
19.624355404078834
 20
-1.7935742813846434
 30
0.0
 10
19.78384404622018
 20
-1.7390259531406353
 30
0.0
 10
19.949600462242742
 20
-1.678427673727818
 30
0.0
 10
20.121437942222848
 20
-1.6114941856290659
 30
0.0
 10
20.299160603242157
 20
-1.5379454660637983
 30
0.0
 10
20.48256352817033
 20
-1.4575069855193883
 30
0.0
 10
20.67143291123572
 20
-1.3699099627383036
 30
0.0
 10
20.865546210304814
 20
-1.2748916159864963
 30
0.0
 10
21.064672305771687
 20
-1.1721954104369345
 30
0.0
 10
21.268571665966643
 20
-1.0615713014990904
 30
0.0
 10
21.476996518973586
 20
-0.9427759739352943
 30
0.0
 10
21.62757548330851
 20
-0.8527215556029444
 30
0.0
 10
21.632920321074046
 20
-0.7251975897860425
 30
0.0
 10
21.642034062414375
 20
-0.36264969800871055
 30
0.0
 10
21.645072260497766
 20
-4.509784163436628e-16
 30
0.0
 10
21.642034062414375
 20
0.36264969800871727
 30
0.0
 10
21.632920321074042
 20
0.7251975897860432
 30
0.0
 10
21.627575483308508
 20
0.852721555602955
 30
0.0
 10
21.47699651897368
 20
0.9427759739352433
 30
0.0
 10
21.268571665966448
 20
1.0615713014992063
 30
0.0
 10
21.06467230577172
 20
1.1721954104369217
 30
0.0
 10
20.865546210304906
 20
1.2748916159864563
 30
0.0
 10
20.67143291123581
 20
1.369909962738261
 30
0.0
 10
20.48256352817031
 20
1.4575069855194012
 30
0.0
 10
20.29916060324235
 20
1.5379454660637166
 30
0.0
 10
20.121437942222713
 20
1.61149418562912
 30
0.0
 10
19.94960046228389
 20
1.6784276737117945
 30
0.0
 10
19.78384404623564
 20
1.7390259531331689
 30
0.0
 10
19.624355404058587
 20
1.7935742813928466
 30
0.0
 10
19.471311940834674
 20
1.8423628888121952
 30
0.0
 10
19.3248816317186
 20
1.8856867134791024
 30
0.0
 10
19.185222904092374
 20
1.9238451330793824
 30
0.0
 10
19.052484526864873
 20
1.957141693908521
 30
0.0
 10
18.926805506694425
 20
1.9858838372624403
 30
0.0
 10
18.80831499160538
 20
2.0103826233373394
 30
0.0
 10
18.69713218192229
 20
2.030952452784215
 30
0.0
 10
18.593366248454092
 20
2.047910786211449
 30
0.0
 10
18.49711625814706
 20
2.061577861701705
 30
0.0
 10
18.408471107091387
 20
2.0722764106484957
 30
0.0
 10
18.327509461101656
 20
2.080331371977143
 30
0.0
 10
18.25429970380391
 20
2.0860696056316805
 30
0.0
 10
18.188898855385062
 20
2.0898190757176525
 30
0.0
 10
18.131332743682517
 20
2.091912170464625
 30
0.0
 10
18.08173773521356
 20
2.092674854342947
 30
0.0
 10
18.039958687886916
 20
2.092442786704879
 30
0.0
 10
18.006197953844143
 20
2.0915479527593757
 30
0.0
 10
17.980355136665317
 20
2.09032097356015
 30
0.0
 10
17.963844996999008
 20
2.089190133272906
 30
0.0
 10
17.860528157771967
 20
2.0688859438387297
 30
0.0
 10
17.707237057284928
 20
2.0449121949614586
 30
0.0
 10
17.560860563347028
 20
2.028112750189295
 30
0.0
 10
17.42162869354078
 20
2.018185740213423
 30
0.0
 10
17.289761819020324
 20
2.014822876573221
 30
0.0
 10
17.165470497968098
 20
2.017709724101832
 30
0.0
 10
17.04895531685558
 20
2.0265259687291612
 30
0.0
 10
16.940406735346357
 20
2.0409457429938715
 30
0.0
 10
16.840004948098308
 20
2.060637810603483
 30
0.0
 10
16.74791974028567
 20
2.085265973300813
 30
0.0
 10
16.66431036255597
 20
2.114489279152118
 30
0.0
 10
16.589325426480045
 20
2.1479628743541284
 30
0.0
 10
16.52310264789668
 20
2.185334846385474
 30
0.0
 10
16.465769169614102
 20
2.2262559207114085
 30
0.0
 10
16.417440791056723
 20
2.27036616047719
 30
0.0
 10
16.3782224600851
 20
2.317306333497962
 30
0.0
 10
16.34820792164146
 20
2.3667133984739683
 30
0.0
 10
16.32747969655003
 20
2.418221719396983
 30
0.0
 10
16.316109013619286
 20
2.4714633610860712
 30
0.0
 10
16.299839404029715
 20
2.5816409413801398
 30
0.0
 10
16.242198771489605
 20
2.922432825629283
 30
0.0
 10
16.177433773426213
 20
3.2619428343883863
 30
0.0
 10
16.10557281839124
 20
3.6000220471390403
 30
0.0
 10
16.026647426833385
 20
3.9365221712419354
 30
0.0
 10
15.940691982884399
 20
4.2712955461999185
 30
0.0
 10
15.910741986778703
 20
4.378565280990027
 30
0.0
 10
15.899474295868847
 20
4.431828814376068
 30
0.0
 10
15.897460150252023
 20
4.487314935600924
 30
0.0
 10
15.90478413173617
 20
4.544658548029973
 30
0.0
 10
15.921519571452112
 20
4.603492062159699
 30
0.0
 10
15.947728484113677
 20
4.663445707058876
 30
0.0
 10
15.983461510393887
 20
4.724147843436265
 30
0.0
 10
16.02875786745804
 20
4.785225278132567
 30
0.0
 10
16.083645307683952
 20
4.84630357983079
 30
0.0
 10
16.148140085601394
 20
4.907007395781131
 30
0.0
 10
16.22224693307154
 20
4.966960769333547
 30
0.0
 10
16.30595904272785
 20
5.0257874580727036
 30
0.0
 10
16.399258059689455
 20
5.0831112523475595
 30
0.0
 10
16.502114081557128
 20
5.138556293989159
 30
0.0
 10
16.614485666695384
 20
5.191747395009362
 30
0.0
 10
16.73631985079807
 20
5.242310356072813
 30
0.0
 10
16.867552171731926
 20
5.289872284535457
 30
0.0
 10
17.008106702646774
 20
5.334061911842465
 30
0.0
 10
17.157896093333964
 20
5.37450991007854
 30
0.0
 10
17.260539181081395
 20
5.397983854564018
 30
0.0
 10
17.276081897155784
 20
5.4036660590548475
 30
0.0
 10
17.30018954333156
 20
5.413056378609007
 30
0.0
 10
17.331419863338958
 20
5.425980729589251
 30
0.0
 10
17.369632196426373
 20
5.44274023335844
 30
0.0
 10
17.4146764222199
 20
5.463631602880284
 30
0.0
 10
17.46639308504703
 20
5.488946879190283
 30
0.0
 10
17.524613525175305
 20
5.518973171186533
 30
0.0
 10
17.58916001681605
 20
5.55399239888794
 30
0.0
 10
17.65984591282098
 20
5.594281040327904
 30
0.0
 10
17.736475796025633
 20
5.64010988228699
 30
0.0
 10
17.81884563698931
 20
5.691743775099813
 30
0.0
 10
17.90674297081647
 20
5.74944139806262
 30
0.0
 10
17.999946765516047
 20
5.813455286665956
 30
0.0
 10
18.09824333557078
 20
5.884040990455448
 30
0.0
 10
18.201351938932426
 20
5.961405694282514
 30
0.0
 10
18.309071549124663
 20
6.045813178141025
 30
0.0
 10
18.421135717863244
 20
6.137476951081687
 30
0.0
 10
18.537285074623803
 20
6.236613806703176
 30
0.0
 10
18.657253120877726
 20
6.343432801877931
 30
0.0
 10
18.780766441536176
 20
6.458135054280532
 30
0.0
 10
18.907544921724167
 20
6.580913545400359
 30
0.0
 10
19.0373019687541
 20
6.711952929178863
 30
0.0
 10
19.169744739149948
 20
6.851429346394634
 30
0.0
 10
19.304574370585698
 20
6.999510244931221
 30
0.0
 10
19.441486218583428
 20
7.1563542060437095
 30
0.0
 10
19.58017009782758
 20
7.322110776751265
 30
0.0
 10
19.720310527937595
 20
7.496920308467185
 30
0.0
 10
19.8615869835473
 20
7.680913801984114
 30
0.0
 10
20.003674148525228
 20
7.874212758914795
 30
0.0
 10
20.104606445603288
 20
8.01772754619438
 30
0.0
 10
20.057620528097747
 20
8.136400427277518
 30
0.0
 10
19.918484832645614
 20
8.471311299547228
 30
0.0
 10
19.7737574439236
 20
8.803844030367982
 30
0.0
 10
19.623478991084582
 20
9.13390526820987
 30
0.0
 10
19.467691661625274
 20
9.461402355362319
 30
0.0
 10
19.410940239594645
 20
9.575727353704393
 30
0.0
 10
19.236751078903424
 20
9.596750176041123
 30
0.0
 10
18.99802708843238
 20
9.620501082880615
 30
0.0
 10
18.766760875397676
 20
9.638627893815519
 30
0.0
 10
18.54307982548402
 20
9.651453666293463
 30
0.0
 10
18.32710105946299
 20
9.659304253721553
 30
0.0
 10
18.118931373486305
 20
9.662508017138421
 30
0.0
 10
17.918667186949286
 20
9.661395535643871
 30
0.0
 10
17.726394497956086
 20
9.656299315776648
 30
0.0
 10
17.542188846453115
 20
9.647553500033828
 30
0.0
 10
17.366115284749103
 20
9.635493574708443
 30
0.0
 10
17.198228356220934
 20
9.620456077284256
 30
0.0
 10
17.038572081168745
 20
9.60277830350052
 30
0.0
 10
16.88717995040433
 20
9.582798014358254
 30
0.0
 10
16.744074926667956
 20
9.560853143203984
 30
0.0
 10
16.609269453719307
 20
9.53728150314372
 30
0.0
 10
16.482765472819047
 20
9.512420494878421
 30
0.0
 10
16.364554446978175
 20
9.48660681527126
 30
0.0
 10
16.254617392846388
 20
9.460176166748703
 30
0.0
 10
16.15292492005812
 20
9.433462967775858
 30
0.0
 10
16.059437278209415
 20
9.406800064555682
 30
0.0
 10
15.974104411236059
 20
9.380518444184055
 30
0.0
 10
15.896866019367955
 20
9.354946949409575
 30
0.0
 10
15.827651628239646
 20
9.330411995775888
 30
0.0
 10
15.766379933364558
 20
9.307236385601305
 30
0.0
 10
15.71293933517353
 20
9.285734275770997
 30
0.0
 10
15.667321828984571
 20
9.266258914905679
 30
0.0
 10
15.629249160486754
 20
9.24905384110851
 30
0.0
 10
15.5987711570104
 20
9.234504641989918
 30
0.0
 10
15.575661626164614
 20
9.222872520008908
 30
0.0
 10
15.561038817249699
 20
9.215124167216588
 30
0.0
 10
15.474912645926679
 20
9.154552622827472
 30
0.0
 10
15.344625259519994
 20
9.070302405812484
 30
0.0
 10
15.217736628149542
 20
8.99541866558045
 30
0.0
 10
15.094579664642325
 20
8.929719187374861
 30
0.0
 10
14.97548108027877
 20
8.873011968696334
 30
0.0
 10
14.860761121834255
 20
8.825095400454762
 30
0.0
 10
14.750733317638252
 20
8.785758447054452
 30
0.0
 10
14.645704203488616
 20
8.754780880680508
 30
0.0
 10
14.545973121334205
 20
8.731933393692778
 30
0.0
 10
14.45183192180026
 20
8.716977911552357
 30
0.0
 10
14.363564765237431
 20
8.709667732242682
 30
0.0
 10
14.281447679749506
 20
8.70974826190967
 30
0.0
 10
14.205749610733047
 20
8.716954026545901
 30
0.0
 10
14.136728771674761
 20
8.7310176616257
 30
0.0
 10
14.074637350120833
 20
8.751657448339529
 30
0.0
 10
14.019717333605518
 20
8.77858789789718
 30
0.0
 10
13.97220202459452
 20
8.811515485071427
 30
0.0
 10
13.93231552717455
 20
8.850139748990836
 30
0.0
 10
13.900272564820414
 20
8.89415353550861
 30
0.0
 10
13.84059627773122
 20
8.988188317131693
 30
0.0
 10
13.64932639271158
 20
9.276072637604829
 30
0.0
 10
13.452069461663225
 20
9.559888166029793
 30
0.0
 10
13.248912008521259
 20
9.839510411542395
 30
0.0
 10
13.039943144698713
 20
10.11481672259708
 30
0.0
 10
12.825254340597898
 20
10.38568618990373
 30
0.0
 10
12.754263125866965
 20
10.471500207987594
 30
0.0
 10
12.722305347250352
 20
10.515575884194517
 30
0.0
 10
12.697897094986775
 20
10.565445751374838
 30
0.0
 10
12.681264136582246
 20
10.620810679677025
 30
0.0
 10
12.672622975478921
 20
10.681364685837849
 30
0.0
 10
12.672180664324193
 20
10.74679519095924
 30
0.0
 10
12.680134624992634
 20
10.816783283072157
 30
0.0
 10
12.696672475480293
 20
10.891003984319262
 30
0.0
 10
12.7219718637828
 20
10.969126522580709
 30
0.0
 10
12.756200308869413
 20
11.050814607369775
 30
0.0
 10
12.799515048856199
 20
11.135726709817872
 30
0.0
 10
12.852062896481371
 20
11.223516346570086
 30
0.0
 10
12.913980101977442
 20
11.313832367405956
 30
0.0
 10
12.98539222343334
 20
11.406319246401031
 30
0.0
 10
13.066414004734032
 20
11.500617376441287
 30
0.0
 10
13.157149261159708
 20
11.596363366899567
 30
0.0
 10
13.257690772723622
 20
11.69319034428302
 30
0.0
 10
13.368120185322347
 20
11.790728255657658
 30
0.0
 10
13.488507919766006
 20
11.888604174653437
 30
0.0
 10
13.572729332956314
 20
11.951797394956426
 30
0.0
 10
13.58461714984563
 20
11.963310139218796
 30
0.0
 10
13.602821193451096
 20
11.981694086071306
 30
0.0
 10
13.626094703302936
 20
12.006203583724275
 30
0.0
 10
13.654186702318178
 20
12.037056508349032
 30
0.0
 10
13.686839364676313
 20
12.074462861268854
 30
0.0
 10
13.723788236581603
 20
12.118624578780212
 30
0.0
 10
13.764762461992172
 20
12.169735347819406
 30
0.0
 10
13.809485013118964
 20
12.227980427548454
 30
0.0
 10
13.857672925560292
 20
12.293536476984375
 30
0.0
 10
13.909037537947096
 20
12.36657138883907
 30
0.0
 10
13.96328473577458
 20
12.447244129682886
 30
0.0
 10
14.020115208353936
 20
12.535704597553503
 30
0.0
 10
14.079224317476037
 20
12.632093593291152
 30
0.0
 10
14.140312910342905
 20
12.736557659292476
 30
0.0
 10
14.203040246660638
 20
12.849171880259108
 30
0.0
 10
14.2671153906157
 20
12.970095466372117
 30
0.0
 10
14.33220808763378
 20
13.099415093574253
 30
0.0
 10
14.39799321304992
 20
13.237223317176435
 30
0.0
 10
14.464142277253341
 20
13.383602725417962
 30
0.0
 10
14.530323701203756
 20
13.538625840501497
 30
0.0
 10
14.596203094586333
 20
13.702355026806144
 30
0.0
 10
14.661443536428859
 20
13.874842406353666
 30
0.0
 10
14.725705857995004
 20
14.056129781579864
 30
0.0
 10
14.78864892777434
 20
14.246248565478922
 30
0.0
 10
14.849929938380516
 20
14.445219719163811
 30
0.0
 10
14.909204695174914
 20
14.653053696900606
 30
0.0
 10
14.966127906426216
 20
14.869750398654466
 30
0.0
 10
15.020353474819444
 20
15.095299130192986
 30
0.0
 10
15.071534790122307
 20
15.329678570771343
 30
0.0
 10
15.105368308837562
 20
15.501838716486606
 30
0.0
 10
15.014175928051317
 20
15.591140893587431
 30
0.0
 10
14.750848621558507
 20
15.840505613964329
 30
0.0
 10
14.483380326348174
 20
16.085423447473197
 30
0.0
 10
14.211846128486277
 20
16.32582563861318
 30
0.0
 10
13.936322255454964
 20
16.561644699554464
 30
0.0
 10
13.837977085598826
 20
16.64300289959834
 30
0.0
 10
13.67029661689356
 20
16.591359088971153
 30
0.0
 10
13.442551035650522
 20
16.515958827523413
 30
0.0
 10
13.22390599899713
 20
16.438454050167948
 30
0.0
 10
13.01434648024525
 20
16.359191696994383
 30
0.0
 10
12.813846938022808
 20
16.278517087212094
 30
0.0
 10
12.622371379002535
 20
16.196773631464634
 30
0.0
 10
12.43987342805173
 20
16.114302546088204
 30
0.0
 10
12.266296405754431
 20
16.031442569501106
 30
0.0
 10
12.101573413287994
 20
15.948529680927962
 30
0.0
 10
11.94562742432493
 20
15.865896821505556
 30
0.0
 10
11.798371384593029
 20
15.783873618313525
 30
0.0
 10
11.659708318100813
 20
15.702786111011445
 30
0.0
 10
11.529531440451558
 20
15.622956481567932
 30
0.0
 10
11.407724279277373
 20
15.544702787244578
 30
0.0
 10
11.294160801549678
 20
15.468338697002961
 30
0.0
 10
11.188705547469842
 20
15.394173231302684
 30
0.0
 10
11.091213771158497
 20
15.322510505727461
 30
0.0
 10
11.001531587984173
 20
15.253649478479923
 30
0.0
 10
10.919496128268035
 20
15.187883701891199
 30
0.0
 10
10.844935697461866
 20
15.12550107815223
 30
0.0
 10
10.777669942495281
 20
15.066783619385463
 30
0.0
 10
10.71751002439156
 20
15.012007212264102
 30
0.0
 10
10.664258796451781
 20
14.961441387718512
 30
0.0
 10
10.617710687800225
 20
14.915347970826367
 30
0.0
 10
10.577635968040532
 20
14.873968566548974
 30
0.0
 10
10.543883645373677
 20
14.837622627761725
 30
0.0
 10
10.516100465967295
 20
14.80641946136818
 30
0.0
 10
10.494175116742396
 20
14.780731585779428
 30
0.0
 10
10.477794720056378
 20
14.760705620581655
 30
0.0
 10
10.467587658398298
 20
14.747679515873632
 30
0.0
 10
10.413544152432749
 20
14.657313986829658
 30
0.0
 10
10.32878835283988
 20
14.52735492958804
 30
0.0
 10
10.243327781147858
 20
14.407334972879678
 30
0.0
 10
10.157540681775956
 20
14.297223063087136
 30
0.0
 10
10.07180361478244
 20
14.196976682648708
 30
0.0
 10
9.98649114195879
 20
14.106541908594284
 30
0.0
 10
9.901975521596015
 20
14.025853473774246
 30
0.0
 10
9.818626362801984
 20
13.95483486941006
 30
0.0
 10
9.73681039587415
 20
13.89339836588807
 30
0.0
 10
9.656891073264262
 20
13.841445177638269
 30
0.0
 10
9.57922833111996
 20
13.79886550958115
 30
0.0
 10
9.504177886311197
 20
13.765539049402106
 30
0.0
 10
9.432093410689962
 20
13.741332664475303
 30
0.0
 10
9.363319540963783
 20
13.726107130039551
 30
0.0
 10
9.298201247282837
 20
13.719707657072034
 30
0.0
 10
9.237075715012011
 20
13.721971863782594
 30
0.0
 10
9.180275464024692
 20
13.732726494194914
 30
0.0
 10
9.128127432037552
 20
13.75178821498863
 30
0.0
 10
9.080952709552223
 20
13.778963762793467
 30
0.0
 10
8.988188317143177
 20
13.840596277723762
 30
0.0
 10
8.69636148039626
 20
14.025795220064142
 30
0.0
 10
8.40072013176416
 20
14.204841984907159
 30
0.0
 10
8.101393949790966
 20
14.37765803664423
 30
0.0
 10
7.798514228681176
 20
14.544167572390029
 30
0.0
 10
7.492213709044118
 20
14.704297340376165
 30
0.0
 10
7.392456301649868
 20
14.753817618431206
 30
0.0
 10
7.345334225576613
 20
14.781084352627888
 30
0.0
 10
7.302752275224669
 20
14.816715012674676
 30
0.0
 10
7.26503836654529
 20
14.860528157771968
 30
0.0
 10
7.232514739879942
 20
14.912332318182806
 30
0.0
 10
7.205497684525848
 20
14.971926154773447
 30
0.0
 10
7.184297267523483
 20
15.039098625673713
 30
0.0
 10
7.169217066843674
 20
15.113629159952094
 30
0.0
 10
7.160553909147544
 20
15.195287838190382
 30
0.0
 10
7.158597612292195
 20
15.28383557984519
 30
0.0
 10
7.163630732749845
 20
15.379024337273458
 30
0.0
 10
7.175928318107276
 20
15.480597296300457
 30
0.0
 10
7.195757664807392
 20
15.588289083199529
 30
0.0
 10
7.223378081293036
 20
15.701825977952915
 30
0.0
 10
7.259040656709494
 20
15.820926133657649
 30
0.0
 10
7.302988035318239
 20
15.9452998019355
 30
0.0
 10
7.355454196771852
 20
16.07464956420469
 30
0.0
 10
7.416664242396413
 20
16.208670568666175
 30
0.0
 10
7.486834187622999
 20
16.34705077285248
 30
0.0
 10
7.538071278788057
 20
16.439036587090207
 30
0.0
 10
7.544248684954712
 20
16.454389213051158
 30
0.0
 10
7.553401481471939
 20
16.4785880357783
 30
0.0
 10
7.564693979881647
 20
16.510444765298008
 30
0.0
 10
7.577808282987175
 20
16.55005635982069
 30
0.0
 10
7.592423439948072
 20
16.597509797892606
 30
0.0
 10
7.608215725309137
 20
16.652881994450993
 30
0.0
 10
7.624858920189361
 20
16.7162397242395
 30
0.0
 10
7.6420245954207555
 20
16.7876395525711
 30
0.0
 10
7.659382396463933
 20
16.867127773497494
 30
0.0
 10
7.676600329918354
 20
16.954740355486777
 30
0.0
 10
7.693345051284956
 20
17.050502894580845
 30
0.0
 10
7.709282157618897
 20
17.154430588826322
 30
0.0
 10
7.724076079206915
 20
17.26652815866871
 30
0.0
 10
7.737393922206791
 20
17.386807800843986
 30
0.0
 10
7.748893865171313
 20
17.515199517076976
 30
0.0
 10
7.758245368394964
 20
17.65173041884925
 30
0.0
 10
7.765111475029525
 20
17.79634536193768
 30
0.0
 10
7.769157523277699
 20
17.948996659711334
 30
0.0
 10
7.770049831284461
 20
18.109626151519496
 30
0.0
 10
7.767455989086452
 20
18.278165224345233
 30
0.0
 10
7.761045150052272
 20
18.45453484208966
 30
0.0
 10
7.750488321622007
 20
18.638645582483786
 30
0.0
 10
7.735458655154799
 20
18.8303976815997
 30
0.0
 10
7.715631734693035
 20
19.029681085950152
 30
0.0
 10
7.6906858644533465
 20
19.23637551213914
 30
0.0
 10
7.660302354853985
 20
19.45035051404207
 30
0.0
 10
7.62416580689008
 20
19.67146555747289
 30
0.0
 10
7.581964394667819
 20
19.899570102304093
 30
0.0
 10
7.533390145912098
 20
20.13450369198376
 30
0.0
 10
7.494274763510819
 20
20.305541142914713
 30
0.0
 10
7.37464391053858
 20
20.350031458327678
 30
0.0
 10
7.032656676551178
 20
20.470732601251232
 30
0.0
 10
6.688695172967569
 20
20.58568701902587
 30
0.0
 10
6.342855959703861
 20
20.6948624406305
 30
0.0
 10
5.995236123803466
 20
20.79822821737495
 30
0.0
 10
5.872301979427763
 20
20.832552047217014
 30
0.0
 10
5.740123679076833
 20
20.717171287652636
 30
0.0
 10
5.562735787062372
 20
20.555657248111846
 30
0.0
 10
5.394517639955462
 20
20.395922162579577
 30
0.0
 10
5.235314396946017
 20
20.23827686469408
 30
0.0
 10
5.084962270853585
 20
20.08302643063859
 30
0.0
 10
4.943288702445175
 20
19.930469941841523
 30
0.0
 10
4.81011254074181
 20
19.780900252471085
 30
0.0
 10
4.685244229193362
 20
19.634603761875272
 30
0.0
 10
4.568485997622309
 20
19.49186019214605
 30
0.0
 10
4.459632059616743
 20
19.352942370716722
 30
0.0
 10
4.358468815729877
 20
19.21811601874615
 30
0.0
 10
4.264775061708551
 20
19.087639544595138
 30
0.0
 10
4.1783222019398165
 20
18.961763843010576
 30
0.0
 10
4.098874468078161
 20
18.840732100179146
 30
0.0
 10
4.026189142562342
 20
18.724779604704928
 30
0.0
 10
3.960016786764245
 20
18.614133564361353
 30
0.0
 10
3.900101473791635
 20
18.509012929105445
 30
0.0
 10
3.846181025782675
 20
18.409628220326823
 30
0.0
 10
3.797987255392345
 20
18.316181366357732
 30
0.0
 10
3.755246211475342
 20
18.228865544472786
 30
0.0
 10
3.717678428639456
 20
18.14786502936302
 30
0.0
 10
3.684999180675946
 20
18.073355048314095
 30
0.0
 10
3.6569187370077043
 20
18.00550164329663
 30
0.0
 10
3.633142805441823
 20
17.94446039021312
 30
0.0
 10
3.61336324722732
 20
17.890358566408292
 30
0.0
 10
3.5973121913018913
 20
17.843426592707917
 30
0.0
 10
3.584622465108569
 20
17.803620644659304
 30
0.0
 10
3.575040862201651
 20
17.771235759656708
 30
0.0
 10
3.5682219190736517
 20
17.746278622555057
 30
0.0
 10
3.5641954983613298
 20
17.73022709777379
 30
0.0
 10
3.5515792709045346
 20
17.625692604991727
 30
0.0
 10
3.527010105857355
 20
17.47249580916152
 30
0.0
 10
3.4977545030742285
 20
17.328092176838776
 30
0.0
 10
3.464170636670379
 20
17.192607184997712
 30
0.0
 10
3.426619804826875
 20
17.066155152686967
 30
0.0
 10
3.3854661192147892
 20
16.948839166827828
 30
0.0
 10
3.3410762012462714
 20
16.840751013999867
 30
0.0
 10
3.2938188245666704
 20
16.74197113352377
 30
0.0
 10
3.244064696821959
 20
16.652568543059584
 30
0.0
 10
3.1921860280596324
 20
16.572600826928692
 30
0.0
 10
3.1385562939944713
 20
16.502114081555344
 30
0.0
 10
3.083549393584194
 20
16.441143079256612
 30
0.0
 10
3.0275425720599927
 20
16.38971004862872
 30
0.0
 10
2.9709072985325697
 20
16.347827977901
 30
0.0
 10
2.9140216772831664
 20
16.315495772265606
 30
0.0
 10
2.857259789094486
 20
16.292702234219146
 30
0.0
 10
2.800995875540632
 20
16.2794243345685
 30
0.0
 10
2.745603177466896
 20
16.275627567540994
 30
0.0
 10
2.6914536329369887
 20
16.281265977535334
 30
0.0
 10
2.5816409413936596
 20
16.299839404027576
 30
0.0
 10
2.2397166641565915
 20
16.350330388624972
 30
0.0
 10
1.8968099729365724
 20
16.39364957765589
 30
0.0
 10
1.5530712782883083
 20
16.429777970287546
 30
0.0
 10
1.2086513552470466
 20
16.45869971930237
 30
0.0
 10
0.8637012625718566
 20
16.48040189634992
 30
0.0
 10
0.7524266245203487
 20
16.48506592842282
 30
0.0
 10
0.698288086034139
 20
16.490809054556145
 30
0.0
 10
0.6448952436545524
 20
16.506039642652926
 30
0.0
 10
0.592621462131092
 20
16.530725313728073
 30
0.0
 10
0.5418390004220356
 20
16.56482221842787
 30
0.0
 10
0.4929186951815395
 20
16.60827507074823
 30
0.0
 10
0.4462296452078188
 20
16.661017189974448
 30
0.0
 10
0.40213889705740724
 20
16.722970550818726
 30
0.0
 10
0.36101113203061713
 20
16.79404584172065
 30
0.0
 10
0.32320835473199133
 20
16.874142531278107
 30
0.0
 10
0.2890895834089154
 20
16.963148942764487
 30
0.0
 10
0.2590105422702516
 20
17.060942336689138
 30
0.0
 10
0.23332335598600046
 20
17.167389001347388
 30
0.0
 10
0.212376246567414
 20
17.28234435130592
 30
0.0
 10
0.19651323282580796
 20
17.40565303376283
 30
0.0
 10
0.1860738326067695
 20
17.537149042715715
 30
0.0
 10
0.1813927679946377
 20
17.676655840868598
 30
0.0
 10
0.18279967368074138
 20
17.823986489202937
 30
0.0
 10
0.1906188086866374
 20
17.978943784131264
 30
0.0
 10
0.20001221928964874
 20
18.08381700935714
 30
0.0
 10
0.19941108508745398
 20
18.100354908513797
 30
0.0
 10
0.19793003284806865
 20
18.12618441082665
 30
0.0
 10
0.19528894425147492
 20
18.159880054269827
 30
0.0
 10
0.19115796930064333
 20
18.20140111413743
 30
0.0
 10
0.18520852745122762
 20
18.25069650681785
 30
0.0
 10
0.17711359666073112
 20
18.307704826597714
 30
0.0
 10
0.16654800141714118
 20
18.37235439006819
 30
0.0
 10
0.15318869956036593
 20
18.444563288036733
 30
0.0
 10
0.13671506771435446
 20
18.524239444927613
 30
0.0
 10
0.11680918512210955
 20
18.611280685690215
 30
0.0
 10
0.0931561155825253
 20
18.70557481004981
 30
0.0
 10
0.06544418520184832
 20
18.806999688181644
 30
0.0
 10
0.03336491581465601
 20
18.915423143928567
 30
0.0
 10
-0.003390767095940605
 20
19.030720919439453
 30
0.0
 10
-0.045106662096899904
 20
19.152690036799992
 30
0.0
 10
-0.09209575946777034
 20
19.281220820970802
 30
0.0
 10
-0.14464345543046195
 20
19.41612584250002
 30
0.0
 10
-0.20303608284955973
 20
19.557225418266572
 30
0.0
 10
-0.26755481920018853
 20
19.70433069523462
 30
0.0
 10
-0.33847542866627023
 20
19.85724378898158
 30
0.0
 10
-0.41606800780755326
 20
20.015757928990105
 30
0.0
 10
-0.5005967349692407
 20
20.17965761062312
 30
0.0
 10
-0.592319623597387
 20
20.348718753678476
 30
0.0
 10
-0.6914882796304921
 20
20.522708867435238
 30
0.0
 10
-0.7983476631254894
 20
20.701387222080335
 30
0.0
 10
-0.9131358542833636
 20
20.88450502641852
 30
0.0
 10
-1.0360838240292838
 20
21.071805611750005
 30
0.0
 10
-1.1674152093060113
 20
21.263024621807844
 30
0.0
 10
-1.3073460932272547
 20
21.45789020862854
 30
0.0
 10
-1.4126469717757955
 20
21.59823103568276
 30
0.0
 10
-1.5400310356429459
 20
21.590216709691138
 30
0.0
 10
-1.9015454975120332
 20
21.561383951014406
 30
0.0
 10
-2.26252614070714
 20
21.526498289893475
 30
0.0
 10
-2.622871627548743
 20
21.485569519739744
 30
0.0
 10
-2.982480798663975
 20
21.43860913043965
 30
0.0
 10
-3.108747487175043
 20
21.419963688077996
 30
0.0
 10
-3.1825687902388036
 20
21.2607963611064
 30
0.0
 10
-3.2789270149769796
 20
21.04109578821815
 30
0.0
 10
-3.3676318266887306
 20
20.8267500419453
 30
0.0
 10
-3.44895110692335
 20
20.617980103514846
 30
0.0
 10
-3.5231585683782076
 20
20.414998055640265
 30
0.0
 10
-3.5905334991329787
 20
20.218006936638794
 30
0.0
 10
-3.6513605033629424
 20
20.02720060136447
 30
0.0
 10
-3.7059292387028164
 20
19.842763589045852
 30
0.0
 10
-3.754534150424616
 20
19.664870998151358
 30
0.0
 10
-3.79747420268454
 20
19.49368836806902
 30
0.0
 10
-3.835052606819113
 20
19.329371568434585
 30
0.0
 10
-3.8675765471182273
 20
19.172066695156897
 30
0.0
 10
-3.895356904152852
 20
19.021909973780108
 30
0.0
 10
-3.9187079757572953
 20
18.879027670315015
 30
0.0
 10
-3.9379471959541026
 20
18.743536009471047
 30
0.0
 10
-3.9533948519959874
 20
18.6155411000473
 30
0.0
 10
-3.9653737997033667
 20
18.495138867937445
 30
0.0
 10
-3.974209177234323
 20
18.382414996657293
 30
0.0
 10
-3.980228117571698
 20
18.27744487529711
 30
0.0
 10
-3.983759459816089
 20
18.180293554109426
 30
0.0
 10
-3.985133459576362
 20
18.091015707585726
 30
0.0
 10
-3.984681498545121
 20
18.00965560523452
 30
0.0
 10
-3.9827357941287653
 20
17.93624708990153
 30
0.0
 10
-3.97962847404367
 20
17.870812587827174
 30
0.0
 10
-3.9756928054060534
 20
17.813343041330405
 30
0.0
 10
-3.971267221201283
 20
17.763939997333292
 30
0.0
 10
-3.9666693252401775
 20
17.722414077672898
 30
0.0
 10
-3.9622504356403763
 20
17.688931824080857
 30
0.0
 10
-3.958328867995375
 20
17.663358830808672
 30
0.0
 10
-3.955478443041893
 20
17.647057340412367
 30
0.0
 10
-3.924485931647826
 20
17.546428847360282
 30
0.0
 10
-3.8846202303088013
 20
17.396483430689727
 30
0.0
 10
-3.85261230468302
 20
17.25266482264703
 30
0.0
 10
-3.8281859825177467
 20
17.11523333468927
 30
0.0
 10
-3.811057699246895
 20
16.984440355673385
 30
0.0
 10
-3.800936751535593
 20
16.86052815774685
 30
0.0
 10
-3.797525547023352
 20
16.74372971048496
 30
0.0
 10
-3.800519911840831
 20
16.634268492618315
 30
0.0
 10
-3.809609259713297
 20
16.532358335300227
 30
0.0
 10
-3.8244769814961472
 20
16.438203235891166
 30
0.0
 10
-3.8448006392514635
 20
16.351997211828625
 30
0.0
 10
-3.8702528024603167
 20
16.27392410761182
 30
0.0
 10
-3.9004978816399483
 20
16.204157669532815
 30
0.0
 10
-3.935201805660415
 20
16.14286085302862
 30
0.0
 10
-3.9740187137746084
 20
16.090186446808573
 30
0.0
 10
-4.016602311747756
 20
16.04627637380612
 30
0.0
 10
-4.062601346073075
 20
16.011261813568034
 30
0.0
 10
-4.111660809509595
 20
15.985263054230904
 30
0.0
 10
-4.163422227901692
 20
15.968389394103385
 30
0.0
 10
-4.271295606594477
 20
15.940692217982775
 30
0.0
 10
-4.6041955105028665
 20
15.847744894904107
 30
0.0
 10
-4.935075862189371
 20
15.747846226797002
 30
0.0
 10
-5.263791526440014
 20
15.641040033021088
 30
0.0
 10
-5.590198317762143
 20
15.527373162154433
 30
0.0
 10
-5.914152978678714
 20
15.406895244693784
 30
0.0
 10
-6.017704451570022
 20
15.365896577267735
 30
0.0
 10
-6.069498407331738
 20
15.349123056654594
 30
0.0
 10
-6.124470034232792
 20
15.341320065753884
 30
0.0
 10
-6.182265076882531
 20
15.342609886015717
 30
0.0
 10
-6.242525624661619
 20
15.353103870421222
 30
0.0
 10
-6.304890414585414
 20
15.372902345548335
 30
0.0
 10
-6.368995136633332
 20
15.402094521539183
 30
0.0
 10
-6.434472741347268
 20
15.440758410030766
 30
0.0
 10
-6.5009537494975715
 20
15.488960750100642
 30
0.0
 10
-6.56806656361709
 20
15.546756942280679
 30
0.0
 10
-6.635437781199825
 20
15.61419099068131
 30
0.0
 10
-6.7026925093621985
 20
15.691295453268951
 30
0.0
 10
-6.769454680761508
 20
15.778091400329382
 30
0.0
 10
-6.835347370567336
 20
15.874588381148653
 30
0.0
 10
-6.899993114280127
 20
15.980784398936736
 30
0.0
 10
-6.963014226190103
 20
16.096665894012954
 30
0.0
 10
-7.024033118270406
 20
16.22220773526943
 30
0.0
 10
-7.082672619297225
 20
16.35737321992269
 30
0.0
 10
-7.138556293989149
 20
16.502114081557107
 30
0.0
 10
-7.172630769977902
 20
16.601741184386235
 30
0.0
 10
-7.179906502984253
 20
16.616604803732308
 30
0.0
 10
-7.191765316593124
 20
16.639598830027317
 30
0.0
 10
-7.207883323984131
 20
16.669307104527334
 30
0.0
 10
-7.228545293893595
 20
16.705558261281755
 30
0.0
 10
-7.254030622008577
 20
16.748171987341657
 30
0.0
 10
-7.28461308187682
 20
16.796959173948732
 30
0.0
 10
-7.320560579841188
 20
16.851722074254287
 30
0.0
 10
-7.3621349141296495
 20
16.912254467403763
 30
0.0
 10
-7.409591538260427
 20
16.978341828897534
 30
0.0
 10
-7.463179328959873
 20
17.049761507160756
 30
0.0
 10
-7.523140358800859
 20
17.126282906048882
 30
0.0
 10
-7.589709681378349
 20
17.20766768522199
 30
0.0
 10
-7.663115344632693
 20
17.293669626378634
 30
0.0
 10
-7.743589161963625
 20
17.384049502391882
 30
0.0
 10
-7.83130783770739
 20
17.478506452433688
 30
0.0
 10
-7.92651269385481
 20
17.57681297875438
 30
0.0
 10
-8.029388218401976
 20
17.678681774928343
 30
0.0
 10
-8.140122905727218
 20
17.783832230188356
 30
0.0
 10
-8.258896810785894
 20
17.891977453519026
 30
0.0
 10
-8.385881369849852
 20
18.002824505106513
 30
0.0
 10
-8.521239227258258
 20
18.116074632515904
 30
0.0
 10
-8.665124068305731
 20
18.231423511451602
 30
0.0
 10
-8.817680458374726
 20
18.348561490939858
 30
0.0
 10
-8.979043688432093
 20
18.467173842783822
 30
0.0
 10
-9.14933962698909
 20
18.586941015125003
 30
0.0
 10
-9.3286845786363
 20
18.70753888995534
 30
0.0
 10
-9.517185149247927
 20
18.828639044411275
 30
0.0
 10
-9.714938117956596
 20
18.949909015686583
 30
0.0
 10
-9.922030315981207
 20
19.07101256938873
 30
0.0
 10
-10.075309212147516
 20
19.156390568612153
 30
0.0
 10
-10.18842062501906
 20
19.09725735098776
 30
0.0
 10
-10.506953180056884
 20
18.923876136623342
 30
0.0
 10
-10.822536130248881
 20
18.745182444340934
 30
0.0
 10
-11.13508088235749
 20
18.56122643861463
 30
0.0
 10
-11.444499696054981
 20
18.37205976120172
 30
0.0
 10
-11.552266271160997
 20
18.303669013009202
 30
0.0
 10
-11.554966202992379
 20
18.12823659545355
 30
0.0
 10
-11.553633548010046
 20
17.888337714187262
 30
0.0
 10
-11.547487156523761
 20
17.65644363397438
 30
0.0
 10
-11.536861631668517
 20
17.432647273968943
 30
0.0
 10
-11.522093284246635
 20
17.2170310523868
 30
0.0
 10
-11.503519839738235
 20
17.009666857264413
 30
0.0
 10
-11.481480144867453
 20
16.81061602487627
 30
0.0
 10
-11.456313873917091
 20
16.619929325822394
 30
0.0
 10
-11.428361234991177
 20
16.437646958831735
 30
0.0
 10
-11.397962676371591
 20
16.263798551983
 30
0.0
 10
-11.365458593289919
 20
16.098403172112747
 30
0.0
 10
-11.331189035118383
 20
15.941469341368013
 30
0.0
 10
-11.295493413310991
 20
15.792995061456033
 30
0.0
 10
-11.258710210239988
 20
15.652967845671373
 30
0.0
 10
-11.221176689162924
 20
15.521364758520665
 30
0.0
 10
-11.183228605381407
 20
15.39815246265336
 30
0.0
 10
-11.145199918939628
 20
15.283287273441292
 30
0.0
 10
-11.107422508950592
 20
15.176715221068172
 30
0.0
 10
-11.070225889770324
 20
15.078372119923687
 30
0.0
 10
-11.03393692918681
 20
14.988183645458665
 30
0.0
 10
-10.998879568830525
 20
14.906065418248744
 30
0.0
 10
-10.96537454697277
 20
14.831923095425115
 30
0.0
 10
-10.933739124441574
 20
14.765652468973098
 30
0.0
 10
-10.904285836577333
 20
14.707138937770338
 30
0.0
 10
-10.877315453949466
 20
14.656238675265357
 30
0.0
 10
-10.853178453328674
 20
14.612906796091174
 30
0.0
 10
-10.832087953195389
 20
14.576841113579423
 30
0.0
 10
-10.814432637245025
 20
14.54805087722072
 30
0.0
 10
-10.800448633499169
 20
14.526283830638114
 30
0.0
 10
-10.791214227249638
 20
14.512551050410682
 30
0.0
 10
-10.72197186378287
 20
14.43322813771844
 30
0.0
 10
-10.624564437987683
 20
14.31246102496123
 30
0.0
 10
-10.536827445076566
 20
14.194094985080191
 30
0.0
 10
-10.458614467350715
 20
14.07848015379951
 30
0.0
 10
-10.389768704748608
 20
13.96596152236724
 30
0.0
 10
-10.330123127519125
 20
13.85687865710178
 30
0.0
 10
-10.27950062877611
 20
13.751565428018127
 30
0.0
 10
-10.237714228851576
 20
13.650349711754021
 30
0.0
 10
-10.204567166030515
 20
13.553553179607043
 30
0.0
 10
-10.179853176668622
 20
13.461490968979867
 30
0.0
 10
-10.163356613053564
 20
13.374471470945682
 30
0.0
 10
-10.154853128816539
 20
13.292795813801774
 30
0.0
 10
-10.154106816693524
 20
13.216759219223716
 30
0.0
 10
-10.160878767468644
 20
13.14664643338071
 30
0.0
 10
-10.174915166394145
 20
13.08273770994342
 30
0.0
 10
-10.195957383202359
 20
13.025303552517583
 30
0.0
 10
-10.223737887376188
 20
12.974606667254521
 30
0.0
 10
-10.257981289256083
 20
12.930901337288471
 30
0.0
 10
-10.298404562032653
 20
12.89443321616753
 30
0.0
 10
-10.385686340700033
 20
12.825254530806271
 30
0.0
 10
-10.652000453593299
 20
12.604940336611758
 30
0.0
 10
-10.913642246986065
 20
12.37909719863326
 30
0.0
 10
-11.17049695620209
 20
12.147824179657437
 30
0.0
 10
-11.422451916272884
 20
11.911222723513252
 30
0.0
 10
-11.669396441522657
 20
11.669396437980868
 30
0.0
 10
-11.747319758855262
 20
11.589824113115037
 30
0.0
 10
-11.787813486407968
 20
11.553434239852091
 30
0.0
 10
-11.834858804137744
 20
11.523946877968571
 30
0.0
 10
-11.888181819988143
 20
11.501617825776165
 30
0.0
 10
-11.947500857676367
 20
11.486694384648812
 30
0.0
 10
-12.012526693539307
 20
11.479415146369705
 30
0.0
 10
-12.08296279884622
 20
11.48000978669377
 30
0.0
 10
-12.158505587423278
 20
11.488698865262066
 30
0.0
 10
-12.238844668426907
 20
11.505693631997296
 30
0.0
 10
-12.323663104105277
 20
11.531195840110065
 30
0.0
 10
-12.41263767237932
 20
11.565397565837381
 30
0.0
 10
-12.505439134076106
 20
11.608481035034556
 30
0.0
 10
-12.601732504640246
 20
11.660618456733992
 30
0.0
 10
-12.701177330149594
 20
11.721971863782805
 30
0.0
 10
-12.803427967457484
 20
11.792692960665962
 30
0.0
 10
-12.908133868280336
 20
11.872922978616508
 30
0.0
 10
-13.014939867048891
 20
11.962792538111499
 30
0.0
 10
-13.123486472337953
 20
12.06242151884726
 30
0.0
 10
-13.233410161686217
 20
12.171918937281724
 30
0.0
 10
-13.305060737811381
 20
12.249073486551135
 30
0.0
 10
-13.317753029287134
 20
12.25969277126995
 30
0.0
 10
-13.337939107658578
 20
12.275875445506536
 30
0.0
 10
-13.36474708393859
 20
12.296459520511135
 30
0.0
 10
-13.398367406501238
 20
12.321172619818118
 30
0.0
 10
-13.438981976123767
 20
12.349736378888196
 30
0.0
 10
-13.486763979925612
 20
12.381866684540443
 30
0.0
 10
-13.541877731639953
 20
12.417273918712914
 30
0.0
 10
-13.604478518270657
 20
12.455663206348255
 30
0.0
 10
-13.674712453244094
 20
12.49673466725781
 30
0.0
 10
-13.752716336209009
 20
12.54018367182253
 30
0.0
 10
-13.838617519563035
 20
12.585701100196346
 30
0.0
 10
-13.932533793700383
 20
12.632973612734185
 30
0.0
 10
-14.034573344775687
 20
12.68168352237146
 30
0.0
 10
-14.144850642428757
 20
12.731517997248988
 30
0.0
 10
-14.263404742980079
 20
12.782130315195378
 30
0.0
 10
-14.390363573367193
 20
12.833214492178353
 30
0.0
 10
-14.525778813709826
 20
12.88443302268962
 30
0.0
 10
-14.669708527509624
 20
12.93545288846674
 30
0.0
 10
-14.822200514064651
 20
12.985938766577647
 30
0.0
 10
-14.983292238845824
 20
13.03555331377234
 30
0.0
 10
-15.153010771287908
 20
13.083957452708406
 30
0.0
 10
-15.331372730051323
 20
13.13081065986713
 30
0.0
 10
-15.518384235786938
 20
13.175771254969636
 30
0.0
 10
-15.714040871452724
 20
13.218496691707594
 30
0.0
 10
-15.918327650205185
 20
13.25864384959646
 30
0.0
 10
-16.13121899090419
 20
13.295869326763487
 30
0.0
 10
-16.352678701248852
 20
13.32982973347808
 30
0.0
 10
-16.58265996857041
 20
13.360181986234245
 30
0.0
 10
-16.82110535828638
 20
13.386583602191504
 30
0.0
 10
-16.995858958428247
 20
13.402236141883625
 30
0.0
 10
-17.075139729433765
 20
13.302208703162139
 30
0.0
 10
-17.29561320509687
 20
13.01425822019252
 30
0.0
 10
-17.51123130321645
 20
12.722654259525493
 30
0.0
 10
-17.721933493572553
 20
12.427478682804535
 30
0.0
 10
-17.92766062598233
 20
12.128814354328815
 30
0.0
 10
-17.998293267818863
 20
12.022503681978364
 30
0.0
 10
-17.929404985676108
 20
11.86114003258751
 30
0.0
 10
-17.8306118791265
 20
11.642523538927044
 30
0.0
 10
-17.730677051368374
 20
11.433177717934518
 30
0.0
 10
-17.629943971200607
 20
11.233051360125142
 30
0.0
 10
-17.52875339633745
 20
11.042082968358871
 30
0.0
 10
-17.42744309385583
 20
10.860200850296797
 30
0.0
 10
-17.3263475633518
 20
10.68732321803479
 30
0.0
 10
-17.22579776298691
 20
10.523358294846345
 30
0.0
 10
-17.12612083862533
 20
10.36820442899552
 30
0.0
 10
-17.027639856073797
 20
10.221750214287733
 30
0.0
 10
-16.93067353703102
 20
10.08387461793109
 30
0.0
 10
-16.835535998325856
 20
9.954447114754164
 30
0.0
 10
-16.74253649497149
 20
9.83332782815026
 30
0.0
 10
-16.651979167200924
 20
9.720367677762518
 30
0.0
 10
-16.564162791625552
 20
9.615408533649946
 30
0.0
 10
-16.479380536453974
 20
9.518283376643105
 30
0.0
 10
-16.39791972122859
 20
9.428816465061074
 30
0.0
 10
-16.320061581103662
 20
9.346823507626999
 30
0.0
 10
-16.246081035782698
 20
9.27211184230512
 30
0.0
 10
-16.176246463331026
 20
9.204480621134332
 30
0.0
 10
-16.1108194789499
 20
9.143721000743462
 30
0.0
 10
-16.050054718928408
 20
9.089616338625467
 30
0.0
 10
-15.994199630236805
 20
9.041942394417722
 30
0.0
 10
-15.943493115639868
 20
9.000467355210256
 30
0.0
 10
-15.898151443196344
 20
8.964937494498544
 30
0.0
 10
-15.858476532844627
 20
8.935169255714273
 30
0.0
 10
-15.824540167613387
 20
8.910799894503883
 30
0.0
 10
-15.79670118983379
 20
8.891679768796028
 30
0.0
 10
-15.775072711275422
 20
8.877482389004541
 30
0.0
 10
-15.761051036462334
 20
8.868692841405698
 30
0.0
 10
-15.665531454613392
 20
8.82439116130383
 30
0.0
 10
-15.527424933200717
 20
8.753684083390455
 30
0.0
 10
-15.399129396144158
 20
8.681237175288222
 30
0.0
 10
-15.280653497249123
 20
8.607429855340815
 30
0.0
 10
-15.171994313113782
 20
8.532641065066477
 30
0.0
 10
-15.073137368532153
 20
8.457248950853215
 30
0.0
 10
-14.984056665481999
 20
8.381630553997011
 30
0.0
 10
-14.904714748979927
 20
8.306161456193424
 30
0.0
 10
-14.835062703758712
 20
8.231215548994657
 30
0.0
 10
-14.775040276532291
 20
8.157164619725732
 30
0.0
 10
-14.724575897262481
 20
8.08437810947734
 30
0.0
 10
-14.683587095255888
 20
8.013222362526564
 30
0.0
 10
-14.651978435976327
 20
7.944063029422767
 30
0.0
 10
-14.62964748169584
 20
7.877257411867875
 30
0.0
 10
-14.616476350541747
 20
7.813164770088169
 30
0.0
 10
-14.612338795736353
 20
7.75213741583082
 30
0.0
 10
-14.617097268209077
 20
7.694524157571505
 30
0.0
 10
-14.630603613255776
 20
7.640669305578125
 30
0.0
 10
-14.652699189319843
 20
7.590912392908048
 30
0.0
 10
-14.704297555500158
 20
7.49221382147373
 30
0.0
 10
-14.857977747871296
 20
7.182627081831226
 30
0.0
 10
-15.00514073995164
 20
6.869889804258313
 30
0.0
 10
-15.145721981457823
 20
6.554139166112923
 30
0.0
 10
-15.279659808742085
 20
6.235513665915283
 30
0.0
 10
-15.406895246488794
 20
5.914152974002553
 30
0.0
 10
-15.445716758784771
 20
5.809765769558116
 30
0.0
 10
-15.467908524760638
 20
5.760051683324149
 30
0.0
 10
-15.498892970490365
 20
5.713978583211753
 30
0.0
 10
-15.538523925676497
 20
5.671891554542248
 30
0.0
 10
-15.586644652761027
 20
5.634131086428161
 30
0.0
 10
-15.643087976801235
 20
5.601032781171094
 30
0.0
 10
-15.70767642286765
 20
5.572927067114208
 30
0.0
 10
-15.780222360878167
 20
5.550138915136955
 30
0.0
 10
-15.860528157771956
 20
5.5329875589764095
 30
0.0
 10
-15.948386336929092
 20
5.521786219558925
 30
0.0
 10
-16.043579744731282
 20
5.516841833521751
 30
0.0
 10
-16.14588172416029
 20
5.518454786103235
 30
0.0
 10
-16.255056295320916
 20
5.526918648576242
 30
0.0
 10
-16.370858342775335
 20
5.542519920397652
 30
0.0
 10
-16.493033809569916
 20
5.565537776243788
 30
0.0
 10
-16.621319897830126
 20
5.59624381809818
 30
0.0
 10
-16.755445275797815
 20
5.63490183255569
 30
0.0
 10
-16.895130291179687
 20
5.681767553503861
 30
0.0
 10
-17.04008719067061
 20
5.737088430338234
 30
0.0
 10
-17.136924831395095
 20
5.778429703552171
 30
0.0
 10
-17.152839068838244
 20
5.782968482842672
 30
0.0
 10
-17.177862055637068
 20
5.7895416736303495
 30
0.0
 10
-17.210724658164462
 20
5.797442375570786
 30
0.0
 10
-17.251490074178164
 20
5.806344298048694
 30
0.0
 10
-17.300211257248726
 20
5.815919156692126
 30
0.0
 10
-17.356930862440954
 20
5.825836959647606
 30
0.0
 10
-17.421681199541144
 20
5.835766295233951
 30
0.0
 10
-17.494484193795348
 20
5.845374620767276
 30
0.0
 10
-17.57535135419927
 20
5.854328552378846
 30
0.0
 10
-17.66428374942199
 20
5.862294155634012
 30
0.0
 10
-17.761271991299395
 20
5.868937236614827
 30
0.0
 10
-17.866296239995684
 20
5.873923635642313
 30
0.0
 10
-17.97932611351081
 20
5.876919127868295
 30
0.0
 10
-18.100338944884005
 20
5.877591368171784
 30
0.0
 10
-18.229229389227367
 20
5.875607724451356
 30
0.0
 10
-18.36598985869548
 20
5.870636633811081
 30
0.0
 10
-18.510530289569502
 20
5.862348749428514
 30
0.0
 10
-18.66276827476747
 20
5.850416227428946
 30
0.0
 10
-18.822611092997274
 20
5.834513293344911
 30
0.0
 10
-18.989955760808623
 20
5.814316530202831
 30
0.0
 10
-19.164689092180687
 20
5.789505165305729
 30
0.0
 10
-19.346687765622317
 20
5.759761355521717
 30
0.0
 10
-19.535818398736676
 20
5.724770470891063
 30
0.0
 10
-19.73193763021953
 20
5.684221376362615
 30
0.0
 10
-19.934892209234032
 20
5.637806711474704
 30
0.0
 10
-20.144519092120866
 20
5.585223167793401
 30
0.0
 10
-20.360645546381658
 20
5.5261717639250865
 30
0.0
 10
-20.583089261881987
 20
5.460358117919012
 30
0.0
 10
-20.811658469199063
 20
5.387492716881215
 30
0.0
 10
-20.97767028826534
 20
5.3307133307304095
 30
0.0
 10
-21.009412051854788
 20
5.207087323787526
 30
0.0
 10
-21.093704581262376
 20
4.854356826666173
 30
0.0
 10
-21.17207549931574
 20
4.5002635715526695
 30
0.0
 10
-21.244502805037456
 20
4.144906962638044
 30
0.0
 10
-21.310966165993545
 20
3.788386758773209
 30
0.0
 10
-21.332251849109653
 20
3.6625382433163574
 30
0.0
 10
-21.203686762805642
 20
3.543144603012713
 30
0.0
 10
-21.024515430318388
 20
3.3836112747804576
 30
0.0
 10
-20.84807180588721
 20
3.233011507304971
 30
0.0
 10
-20.67464883509922
 20
3.0911588170477837
 30
0.0
 10
-20.50453280247614
 20
2.9578584249271445
 30
0.0
 10
-20.338003113695578
 20
2.832907454485492
 30
0.0
 10
-20.17533208320651
 20
2.716095135511703
 30
0.0
 10
-20.01678472737645
 20
2.6072030129825348
 30
0.0
 10
-19.86261856333774
 20
2.5060051612057777
 30
0.0
 10
-19.71308341340906
 20
2.4122684028566805
 30
0.0
 10
-19.568421215879034
 20
2.3257525331841777
 30
0.0
 10
-19.428865841379768
 20
2.246210548686308
 30
0.0
 10
-19.29464291548236
 20
2.173388880378471
 30
0.0
 10
-19.165969647671265
 20
2.107027631600438
 30
0.0
 10
-19.04305466672129
 20
2.046860820066955
 30
0.0
 10
-18.926097862301425
 20
1.9926166239214134
 30
0.0
 10
-18.81529023329318
 20
1.94401763176333
 30
0.0
 10
-18.710813742778953
 20
1.9007810964912852
 30
0.0
 10
-18.61284117969544
 20
1.8626191926603364
 30
0.0
 10
-18.52153602737968
 20
1.829239277334566
 30
0.0
 10
-18.437052338958704
 20
1.8003441541121485
 30
0.0
 10
-18.359534619811708
 20
1.7756323403054146
 30
0.0
 10
-18.28911771722203
 20
1.7547983363996467
 30
0.0
 10
-18.225925592920422
 20
1.7375332002553516
 30
0.0
 10
-18.17005261774289
 20
1.723517177032612
 30
0.0
 10
-18.121699950095312
 20
1.7124597775600108
 30
0.0
 10
-18.080785625616798
 20
1.704000421592957
 30
0.0
 10
-18.047576598175233
 20
1.6978564499717244
 30
0.0
 10
-18.022043405235653
 20
1.6936835929164535
 30
0.0
 10
-18.005658936817106
 20
1.6913570705765746
 30
0.0
 10
-17.900378340055834
 20
1.689736786022818
 30
0.0
 10
-17.745452595236276
 20
1.6813156390781405
 30
0.0
 10
-17.598781977919714
 20
1.667314591325088
 30
0.0
 10
-17.460528717094203
 20
1.6480767388483126
 30
0.0
 10
-17.33084427150033
 20
1.6239494510051704
 30
0.0
 10
-17.209869223371868
 20
1.5952840693074342
 30
0.0
 10
-17.09773317884472
 20
1.5624356124666872
 30
0.0
 10
-16.994554683927007
 20
1.5257624257490867
 30
0.0
 10
-16.90044112769335
 20
1.4856259717153908
 30
0.0
 10
-16.81548868555648
 20
1.4423904022068854
 30
0.0
 10
-16.73978224026216
 20
1.3964223286109185
 30
0.0
 10
-16.673395456724517
 20
1.3480899669307311
 30
0.0
 10
-16.6163898746335
 20
1.2977661722876614
 30
0.0
 10
-16.568817240162858
 20
1.2458190212061038
 30
0.0
 10
-16.53071598716168
 20
1.1926246611110674
 30
0.0
 10
-16.502114081557036
 20
1.1385562939894085
 30
0.0
 10
-16.483027739208755
 20
1.0839885184868965
 30
0.0
 10
-16.47346165766239
 20
1.0292961376318124
 30
0.0
 10
-16.473409011180472
 20
0.9748538556406187
 30
0.0
 10
-16.48040213860471
 20
0.8637012777826073
 30
0.0
 10
-16.494875709052028
 20
0.518372352483535
 30
0.0
 10
-16.502114081555447
 20
0.17281605173753556
 30
0.0
 10
-16.50211408155488
 20
-0.17281605173758996
 30
0.0
 10
-16.494875708928202
 20
-0.5183723523827123
 30
0.0
 10
-16.480401896087777
 20
-0.8637012675738466
 30
0.0
 10
-16.473409011188785
 20
-0.9748538556204626
 30
0.0
 10
-16.47346165764472
 20
-1.0292961376773049
 30
0.0
 10
-16.483027739222873
 20
-1.0839885184481701
 30
0.0
 10
-16.50211408155713
 20
-1.1385562939891651
 30
0.0
 10
-16.53071598716197
 20
-1.1926246611099758
 30
0.0
 10
-16.568817235881397
 20
-1.2458190356773915
 30
0.0
 10
-16.616390093614815
 20
-1.297765370822397
 30
0.0
 10
-16.673395329317614
 20
-1.348090474844468
 30
0.0
 10
-16.739782240263366
 20
-1.3964223286054522
 30
0.0
 10
-16.8154886855565
 20
-1.4423904022069334
 30
0.0
 10
-16.900441127872877
 20
-1.485625970744435
 30
0.0
 10
-16.994554683406534
 20
-1.5257624289331915
 30
0.0
 10
-17.097733179990122
 20
-1.5624356043999768
 30
0.0
 10
-17.20986922335618
 20
-1.5952840694369965
 30
0.0
 10
-17.33084427149939
 20
-1.623949451014332
 30
0.0
 10
-17.460528717094242
 20
-1.6480767388483522
 30
0.0
 10
-17.598781977919643
 20
-1.6673145913250629
 30
0.0
 10
-17.745452595236276
 20
-1.6813156390781299
 30
0.0
 10
-17.900378340055788
 20
-1.6897367860228967
 30
0.0
 10
-18.005658937555985
 20
-1.6913570705768006
 30
0.0
 10
-18.022043404736294
 20
-1.6936835928874585
 30
0.0
 10
-18.047576598218296
 20
-1.6978564499514424
 30
0.0
 10
-18.0808115844687
 20
-1.7040052242162924
 30
0.0
 10
-18.121673383162516
 20
-1.7124537018353168
 30
0.0
 10
-18.170076844510156
 20
-1.7235233236628413
 30
0.0
 10
-18.2259267160736
 20
-1.737532901635541
 30
0.0
 10
-18.289117717036667
 20
-1.7547983369633833
 30
0.0
 10
-18.359534619813374
 20
-1.7756323403056824
 30
0.0
 10
-18.437052338958853
 20
-1.8003441541116534
 30
0.0
 10
-18.52153602737993
 20
-1.8292392773340957
 30
0.0
 10
-18.612841179649593
 20
-1.8626191927983589
 30
0.0
 10
-18.710813756189893
 20
-1.9007811009730928
 30
0.0
 10
-18.815290060169907
 20
-1.9440179739774668
 30
0.0
 10
-18.926114207351738
 20
-1.9926242047036005
 30
0.0
 10
-19.04305466672725
 20
-2.0468608200707474
 30
0.0
 10
-19.16596964767546
 20
-2.107027631601631
 30
0.0
 10
-19.294642915474164
 20
-2.173388880375222
 30
0.0
 10
-19.4288658413909
 20
-2.2462105486941923
 30
0.0
 10
-19.568421215897136
 20
-2.3257525331964177
 30
0.0
 10
-19.713083413395488
 20
-2.412268402846171
 30
0.0
 10
-19.862618563300828
 20
-2.5060051611815575
 30
0.0
 10
-20.016784727376567
 20
-2.6072030129826227
 30
0.0
 10
-20.175332083206335
 20
-2.7160951355115897
 30
0.0
 10
-20.338003113695596
 20
-2.832907454485516
 30
0.0
 10
-20.50453280247606
 20
-2.9578584249270907
 30
0.0
 10
-20.67464883509914
 20
-3.091158817047732
 30
0.0
 10
-20.848071805887177
 20
-3.233011507304958
 30
0.0
 10
-21.024515430318555
 20
-3.3836112747806184
 30
0.0
 10
-21.203686762805553
 20
-3.5431446030126486
 30
0.0
 10
-21.332251849109653
 20
-3.6625382433163765
 30
0.0
 10
-21.310966165993545
 20
-3.7883867587732176
 30
0.0
 10
-21.24450280503746
 20
-4.144906962638058
 30
0.0
 10
-21.172075499315742
 20
-4.500263571552666
 30
0.0
 10
-21.093704581262372
 20
-4.854356826666176
 30
0.0
 10
-21.009412051854785
 20
-5.2070873237875235
 30
0.0
 10
-20.977670288265333
 20
-5.330713330730417
 30
0.0
 10
-20.81165846919917
 20
-5.387492716881182
 30
0.0
 10
-20.58308926188177
 20
-5.460358117919082
 30
0.0
 10
-20.360645546381694
 20
-5.526171763925077
 30
0.0
 10
-20.144519092120962
 20
-5.5852231677933775
 30
0.0
 10
-19.934892209234132
 20
-5.6378067114746795
 30
0.0
 10
-19.73193763021951
 20
-5.684221376362621
 30
0.0
 10
-19.535818398736883
 20
-5.724770470891021
 30
0.0
 10
-19.34668776562217
 20
-5.759761355521739
 30
0.0
 10
-19.16468909222427
 20
-5.789505165298608
 30
0.0
 10
-18.989955760825293
 20
-5.81431653019874
 30
0.0
 10
-18.822611092975766
 20
-5.834513293348723
 30
0.0
 10
-18.6627682747541
 20
-5.850416227431613
 30
0.0
 10
-18.510530289578316
 20
-5.86234874942887
 30
0.0
 10
-18.36598985869116
 20
-5.870636633810454
 30
0.0
 10
-18.22922938922038
 20
-5.875607724452387
 30
0.0
 10
-18.100320929555636
 20
-5.877591645430012
 30
0.0
 10
-17.97932613247576
 20
-5.8769195109120345
 30
0.0
 10
-17.86629622592127
 20
-5.873923634281919
 30
0.0
 10
-17.761271991285142
 20
-5.868937236759556
 30
0.0
 10
-17.664283749421955
 20
-5.862294155633472
 30
0.0
 10
-17.575351354199334
 20
-5.854328552378325
 30
0.0
 10
-17.494484193793713
 20
-5.845374620766832
 30
0.0
 10
-17.421681199481192
 20
-5.835766295824335
 30
0.0
 10
-17.356929957849097
 20
-5.825836230017274
 30
0.0
 10
-17.300186624935794
 20
-5.815914918004254
 30
0.0
 10
-17.25151681549881
 20
-5.806349553343051
 30
0.0
 10
-17.210698990170325
 20
-5.797436204569231
 30
0.0
 10
-17.17786205560598
 20
-5.789541673594298
 30
0.0
 10
-17.15283906930622
 20
-5.782968483019282
 30
0.0
 10
-17.136924830720005
 20
-5.778429703251842
 30
0.0
 10
-17.040087190670622
 20
-5.737088430338318
 30
0.0
 10
-16.895130291179694
 20
-5.6817675535038425
 30
0.0
 10
-16.75544527579789
 20
-5.6349018325556886
 30
0.0
 10
-16.621319897830077
 20
-5.596243818098191
 30
0.0
 10
-16.49303380956705
 20
-5.565537776252532
 30
0.0
 10
-16.370858342736973
 20
-5.542519920522387
 30
0.0
 10
-16.255056297555566
 20
-5.526918640741051
 30
0.0
 10
-16.14588172334068
 20
-5.518454789223748
 30
0.0
 10
-16.043579744962198
 20
-5.516841832561711
 30
0.0
 10
-15.948386336929058
 20
-5.5217862195589555
 30
0.0
 10
-15.860528157773075
 20
-5.532987558970916
 30
0.0
 10
-15.780222270683034
 20
-5.550139430960289
 30
0.0
 10
-15.707676548803558
 20
-5.572926245871524
 30
0.0
 10
-15.643087974826543
 20
-5.601032796132692
 30
0.0
 10
-15.586644652761208
 20
-5.63413108642704
 30
0.0
 10
-15.538523925676506
 20
-5.671891554541978
 30
0.0
 10
-15.49889297049322
 20
-5.713978583170625
 30
0.0
 10
-15.467908524758277
 20
-5.760051683372887
 30
0.0
 10
-15.445716758785377
 20
-5.809765769536315
 30
0.0
 10
-15.406895472191316
 20
-5.914153063316902
 30
0.0
 10
-15.279659808896216
 20
-6.235513665873534
 30
0.0
 10
-15.145721981458323
 20
-6.554139166113196
 30
0.0
 10
-15.005140739951102
 20
-6.869889804258123
 30
0.0
 10
-14.857977747799186
 20
-7.182627081688749
 30
0.0
 10
-14.704297338102197
 20
-7.492213713507034
 30
0.0
 10
-14.652699189335639
 20
-7.590912392893009
 30
0.0
 10
-14.630603613221135
 20
-7.640669305612492
 30
0.0
 10
-14.61709726823773
 20
-7.694524157541863
 30
0.0
 10
-14.612338795736546
 20
-7.7521374158306315
 30
0.0
 10
-14.616476350542458
 20
-7.813164770087282
 30
0.0
 10
-14.629647471898533
 20
-7.877257423346619
 30
0.0
 10
-14.651978962011006
 20
-7.944062386315534
 30
0.0
 10
-14.683586772276769
 20
-8.01322277470779
 30
0.0
 10
-14.724575897265812
 20
-8.08437810947283
 30
0.0
 10
-14.77504027653229
 20
-8.157164619725775
 30
0.0
 10
-14.835062704317648
 20
-8.23121554818066
 30
0.0
 10
-14.904714747209365
 20
-8.306161458890546
 30
0.0
 10
-14.984056669809407
 20
-8.381630547093577
 30
0.0
 10
-15.07313736846513
 20
-8.45724895096519
 30
0.0
 10
-15.171994313109202
 20
-8.532641065074458
 30
0.0
 10
-15.280653497249146
 20
-8.60742985534086
 30
0.0
 10
-15.399129396144104
 20
-8.681237175288164
 30
0.0
 10
-15.527424933200725
 20
-8.75368408339044
 30
0.0
 10
-15.665531454613323
 20
-8.824391161303877
 30
0.0
 10
-15.761051037137245
 20
-8.86869284170643
 30
0.0
 10
-15.775072710831035
 20
-8.87748238877494
 30
0.0
 10
-15.796701189881382
 20
-8.891679768795006
 30
0.0
 10
-15.82456192880174
 20
-8.910814840334892
 30
0.0
 10
-15.85845473396372
 20
-8.935152899518508
 30
0.0
 10
-15.898171075389788
 20
-8.964952963638654
 30
0.0
 10
-15.94349426315097
 20
-9.000467539235032
 30
0.0
 10
-15.994199629838182
 20
-9.04194239485732
 30
0.0
 10
-16.05005471892983
 20
-9.089616338626383
 30
0.0
 10
-16.11081947895024
 20
-9.143721000743064
 30
0.0
 10
-16.17624646333145
 20
-9.204480621134
 30
0.0
 10
-16.246081035684675
 20
-9.272111842412556
 30
0.0
 10
-16.32006159153225
 20
-9.346823517176048
 30
0.0
 10
-16.397919423881586
 20
-9.428816707273661
 30
0.0
 10
-16.47939238501855
 20
-9.518296950163126
 30
0.0
 10
-16.56416279162946
 20
-9.61540853365583
 30
0.0
 10
-16.65197916720428
 20
-9.720367677765308
 30
0.0
 10
-16.742536494965325
 20
-9.83332782814395
 30
0.0
 10
-16.83553599833282
 20
-9.954447114765886
 30
0.0
 10
-16.93067353704258
 20
-10.083874617949625
 30
0.0
 10
-17.02763985606568
 20
-10.221750214272605
 30
0.0
 10
-17.12612083860146
 20
-10.368204428958373
 30
0.0
 10
-17.225797762986993
 20
-10.523358294846465
 30
0.0
 10
-17.32634756335169
 20
-10.68732321803461
 30
0.0
 10
-17.427443093855835
 20
-10.86020085029682
 30
0.0
 10
-17.5287533963374
 20
-11.042082968358779
 30
0.0
 10
-17.629943971200557
 20
-11.233051360125057
 30
0.0
 10
-17.730677051368357
 20
-11.433177717934486
 30
0.0
 10
-17.830611879126593
 20
-11.642523538927252
 30
0.0
 10
-17.929404985676058
 20
-11.861140032587409
 30
0.0
 10
-17.998293267818863
 20
-12.022503681978375
 30
0.0
 10
-17.927660625982334
 20
-12.128814354328815
 30
0.0
 10
-17.72193349357255
 20
-12.42747868280454
 30
0.0
 10
-17.511231303216462
 20
-12.72265425952548
 30
0.0
 10
-17.295613205096874
 20
-13.014258220192515
 30
0.0
 10
-17.075139729433772
 20
-13.302208703162126
 30
0.0
 10
-16.995858958428244
 20
-13.40223614188362
 30
0.0
 10
-16.8211053582865
 20
-13.386583602191509
 30
0.0
 10
-16.58265996857019
 20
-13.360181986234213
 30
0.0
 10
-16.352678701248895
 20
-13.329829733478078
 30
0.0
 10
-16.131218990904298
 20
-13.295869326763498
 30
0.0
 10
-15.918327650205292
 20
-13.258643849596469
 30
0.0
 10
-15.71404087145271
 20
-13.218496691707584
 30
0.0
 10
-15.518384235787153
 20
-13.175771254969673
 30
0.0
 10
-15.33137273005119
 20
-13.130810659867086
 30
0.0
 10
-15.153010771330624
 20
-13.083957452719615
 30
0.0
 10
-14.983292238862724
 20
-13.035553313775374
 30
0.0
 10
-14.822200514043459
 20
-12.985938766572376
 30
0.0
 10
-14.669708527496333
 20
-12.935452888463734
 30
0.0
 10
-14.52577881371774
 20
-12.884433022693525
 30
0.0
 10
-14.390363573363512
 20
-12.833214492176015
 30
0.0
 10
-14.263404742973282
 20
-12.782130315193466
 30
0.0
 10
-14.144834071836287
 20
-12.73151092304279
 30
0.0
 10
-14.034573206303111
 20
-12.68168388001306
 30
0.0
 10
-13.932533781396094
 20
-12.632973605766818
 30
0.0
 10
-13.838617519491155
 20
-12.585701100322757
 30
0.0
 10
-13.752716336209204
 20
-12.540183671822012
 30
0.0
 10
-13.674712453244371
 20
-12.496734667257353
 30
0.0
 10
-13.60447851826935
 20
-12.455663206347175
 30
0.0
 10
-13.541877731345059
 20
-12.417273919227862
 30
0.0
 10
-13.486763450307226
 20
-12.381865650059302
 30
0.0
 10
-13.43896119741586
 20
-12.349722487789862
 30
0.0
 10
-13.398389698392467
 20
-12.32118829744339
 30
0.0
 10
-13.364726145031607
 20
-12.296443442906916
 30
0.0
 10
-13.337939107644846
 20
-12.275875445460949
 30
0.0
 10
-13.317753029642827
 20
-12.259692771621626
 30
0.0
 10
-13.305060737316818
 20
-12.249073486002176
 30
0.0
 10
-13.233410161686201
 20
-12.171918937281795
 30
0.0
 10
-13.123486472337973
 20
-12.06242151884724
 30
0.0
 10
-13.01493986704897
 20
-11.96279253811152
 30
0.0
 10
-12.908133868280293
 20
-11.872922978616492
 30
0.0
 10
-12.803427967451317
 20
-11.792692960672776
 30
0.0
 10
-12.701177330063818
 20
-11.721971863881144
 30
0.0
 10
-12.601732509868569
 20
-11.660618450485096
 30
0.0
 10
-12.50543913205813
 20
-11.60848103755191
 30
0.0
 10
-12.412637672980765
 20
-11.565397565054255
 30
0.0
 10
-12.323663104105243
 20
-11.531195840110069
 30
0.0
 10
-12.238844668430172
 20
-11.505693631992724
 30
0.0
 10
-12.15850529522168
 20
-11.488699299804455
 30
0.0
 10
-12.082963247923896
 20
-11.480009087673986
 30
0.0
 10
-12.012526685649913
 20
-11.47941515923462
 30
0.0
 10
-11.947500857676996
 20
-11.486694384647853
 30
0.0
 10
-11.888181819988267
 20
-11.501617825775917
 30
0.0
 10
-11.834858804157086
 20
-11.523946877932152
 30
0.0
 10
-11.787813486385994
 20
-11.553434239895648
 30
0.0
 10
-11.74731975886469
 20
-11.589824113095359
 30
0.0
 10
-11.669396611384759
 20
-11.669396611375065
 30
0.0
 10
-11.422451916430676
 20
-11.911222723537794
 30
0.0
 10
-11.170496956202442
 20
-12.147824179657883
 30
0.0
 10
-10.913642246985656
 20
-12.37909719863286
 30
0.0
 10
-10.652000453585382
 20
-12.604940336452263
 30
0.0
 10
-10.385686186011128
 20
-12.825254343750062
 30
0.0
 10
-10.298404562053207
 20
-12.894433216160207
 30
0.0
 10
-10.257981289210466
 20
-12.93090133730577
 30
0.0
 10
-10.223737887414426
 20
-12.974606667239087
 30
0.0
 10
-10.19595738320262
 20
-13.025303552517483
 30
0.0
 10
-10.174915166395161
 20
-13.082737709942892
 30
0.0
 10
-10.160878753849538
 20
-13.146646439882135
 30
0.0
 10
-10.1541075588254
 20
-13.216758845673596
 30
0.0
 10
-10.15485266611123
 20
-13.292796058980612
 30
0.0
 10
-10.163356613058449
 20
-13.374471470942911
 30
0.0
 10
-10.17985317666861
 20
-13.461490968979897
 30
0.0
 10
-10.204567166872218
 20
-13.55355317909075
 30
0.0
 10
-10.237714226137076
 20
-13.650349713497803
 30
0.0
 10
-10.279500635537284
 20
-13.75156542347163
 30
0.0
 10
-10.330123127412358
 20
-13.856878657176802
 30
0.0
 10
-10.389768704741185
 20
-13.965961522372659
 30
0.0
 10
-10.458614467350724
 20
-14.07848015379955
 30
0.0
 10
-10.53682744507655
 20
-14.194094985080108
 30
0.0
 10
-10.624564437987704
 20
-14.312461024961209
 30
0.0
 10
-10.721971863782793
 20
-14.433228137718448
 30
0.0
 10
-10.791214227743886
 20
-14.512551050959914
 30
0.0
 10
-10.800448633186592
 20
-14.526283830247605
 30
0.0
 10
-10.814432637288924
 20
-14.548050877239136
 30
0.0
 10
-10.832101754013035
 20
-14.576863618348142
 30
0.0
 10
-10.853165191724203
 20
-14.612882987559178
 30
0.0
 10
-10.8773270969845
 20
-14.656260792160484
 30
0.0
 10
-10.904286810031277
 20
-14.70713957262014
 30
0.0
 10
-10.933739123898617
 20
-14.765652469212547
 30
0.0
 10
-10.9653745469737
 20
-14.831923095426522
 30
0.0
 10
-10.998879568831002
 20
-14.90606541824851
 30
0.0
 10
-11.03393692918734
 20
-14.988183645458523
 30
0.0
 10
-11.070225889637086
 20
-15.078372119981958
 30
0.0
 10
-11.107422514593638
 20
-15.176715234033338
 30
0.0
 10
-11.145199548782895
 20
-15.283287373771568
 30
0.0
 10
-11.183233908735792
 20
-15.398169681926289
 30
0.0
 10
-11.221176689164109
 20
-15.521364758527621
 30
0.0
 10
-11.258710210241924
 20
-15.652967845675278
 30
0.0
 10
-11.295493413307932
 20
-15.792995061447753
 30
0.0
 10
-11.331189035119982
 20
-15.941469341381543
 30
0.0
 10
-11.365458593292944
 20
-16.098403172134375
 30
0.0
 10
-11.397962676370335
 20
-16.26379855196587
 30
0.0
 10
-11.428361234984488
 20
-16.43764695878808
 30
0.0
 10
-11.456313873917118
 20
-16.619929325822525
 30
0.0
 10
-11.481480144867435
 20
-16.81061602487605
 30
0.0
 10
-11.503519839738242
 20
-17.009666857264428
 30
0.0
 10
-11.522093284246631
 20
-17.21703105238669
 30
0.0
 10
-11.536861631668517
 20
-17.432647273968836
 30
0.0
 10
-11.547487156523763
 20
-17.656443633974334
 30
0.0
 10
-11.553633548010051
 20
-17.888337714187482
 30
0.0
 10
-11.554966202992382
 20
-18.128236595453426
 30
0.0
 10
-11.552266271160999
 20
-18.3036690130092
 30
0.0
 10
-11.44449969605499
 20
-18.37205976120171
 30
0.0
 10
-11.135080882357494
 20
-18.56122643861462
 30
0.0
 10
-10.822536130248883
 20
-18.745182444340934
 30
0.0
 10
-10.50695318005688
 20
-18.923876136623342
 30
0.0
 10
-10.188420625019061
 20
-19.09725735098776
 30
0.0
 10
-10.075309212147507
 20
-19.156390568612153
 30
0.0
 10
-9.922030315981305
 20
-19.07101256938879
 30
0.0
 10
-9.714938117956399
 20
-18.94990901568647
 30
0.0
 10
-9.517185149247958
 20
-18.8286390444113
 30
0.0
 10
-9.328684578636384
 20
-18.707538889955398
 30
0.0
 10
-9.149339626989176
 20
-18.58694101512506
 30
0.0
 10
-8.979043688432073
 20
-18.467173842783815
 30
0.0
 10
-8.817680458374896
 20
-18.348561490939986
 30
0.0
 10
-8.665124068305621
 20
-18.231423511451514
 30
0.0
 10
-8.521239227292709
 20
-18.116074632543526
 30
0.0
 10
-8.385881369864046
 20
-18.00282450511617
 30
0.0
 10
-8.258896810768666
 20
-17.891977453505593
 30
0.0
 10
-8.140122905716288
 20
-17.783832230180206
 30
0.0
 10
-8.029388218407606
 20
-17.678681774935136
 30
0.0
 10
-7.926512693852387
 20
-17.576812978750752
 30
0.0
 10
-7.8313078377019485
 20
-17.478506452429183
 30
0.0
 10
-7.743576901313016
 20
-17.3840362999158
 30
0.0
 10
-7.663115072665749
 20
-17.293669896778628
 30
0.0
 10
-7.589709672971698
 20
-17.207667673852384
 30
0.0
 10
-7.523140358683768
 20
-17.126282906135135
 30
0.0
 10
-7.463179328960251
 20
-17.04976150716037
 30
0.0
 10
-7.40959153826086
 20
-16.978341828897236
 30
0.0
 10
-7.3621349141288865
 20
-16.912254467402256
 30
0.0
 10
-7.320560579362331
 20
-16.85172207460478
 30
0.0
 10
-7.284613018807726
 20
-16.796958013487988
 30
0.0
 10
-7.25401728973305
 20
-16.74815084572998
 30
0.0
 10
-7.228559281884887
 20
-16.70558165043412
 30
0.0
 10
-7.207870734691528
 20
-16.6692839002843
 30
0.0
 10
-7.191765316599115
 20
-16.639598829980095
 30
0.0
 10
-7.179906503166148
 20
-16.616604804198264
 30
0.0
 10
-7.172630769749368
 20
-16.60174118368359
 30
0.0
 10
-7.1385562939890965
 20
-16.50211408155717
 30
0.0
 10
-7.082672619297243
 20
-16.357373219922685
 30
0.0
 10
-7.02403311827046
 20
-16.222207735269485
 30
0.0
 10
-6.963014226190063
 20
-16.09666589401293
 30
0.0
 10
-6.899993114271713
 20
-15.980784398940457
 30
0.0
 10
-6.835347370448971
 20
-15.87458838120361
 30
0.0
 10
-6.769454688079466
 20
-15.778091396747287
 30
0.0
 10
-6.702692506494778
 20
-15.691295454747891
 30
0.0
 10
-6.63543778206779
 20
-15.614190990210524
 30
0.0
 10
-6.568066563617047
 20
-15.546756942280677
 30
0.0
 10
-6.500953749502405
 20
-15.488960750097801
 30
0.0
 10
-6.434472297663505
 20
-15.440758688155903
 30
0.0
 10
-6.368995831203154
 20
-15.402094065609187
 30
0.0
 10
-6.304890402145454
 20
-15.372902354092119
 30
0.0
 10
-6.2425256246625755
 20
-15.353103870420608
 30
0.0
 10
-6.182265076882739
 20
-15.342609886015545
 30
0.0
 10
-6.1244700342652685
 20
-15.341320065728487
 30
0.0
 10
-6.06949840729394
 20
-15.349123056685453
 30
0.0
 10
-6.0177044515866305
 20
-15.365896577253599
 30
0.0
 10
-5.914153063329683
 20
-15.40689547218641
 30
0.0
 10
-5.590198317896303
 20
-15.527373162241041
 30
0.0
 10
-5.263791526440145
 20
-15.641040033021643
 30
0.0
 10
-4.935075862189151
 20
-15.747846226796476
 30
0.0
 10
-4.604195510560499
 20
-15.847744894755184
 30
0.0
 10
-4.271295541361739
 20
-15.940691984180786
 30
0.0
 10
-4.163422227923438
 20
-15.968389394105062
 30
0.0
 10
-4.111660809460878
 20
-15.985263054228156
 30
0.0
 10
-4.062601346114278
 20
-16.011261813569494
 30
0.0
 10
-4.016602311748027
 20
-16.046276373806137
 30
0.0
 10
-3.9740187137757434
 20
-16.09018644680851
 30
0.0
 10
-3.935201790574367
 20
-16.14286085342858
 30
0.0
 10
-3.900498711547666
 20
-16.204157630130034
 30
0.0
 10
-3.8702522800347587
 20
-16.273924143394627
 30
0.0
 10
-3.844800639257044
 20
-16.351997211828085
 30
0.0
 10
-3.8244769814961144
 20
-16.438203235891194
 30
0.0
 10
-3.809609260692217
 20
-16.532358335170926
 30
0.0
 10
-3.800519908651742
 20
-16.634268493107257
 30
0.0
 10
-3.797525555049207
 20
-16.743729709081553
 30
0.0
 10
-3.8009367514075327
 20
-16.860528157771963
 30
0.0
 10
-3.8110576992379004
 20
-16.98444035567532
 30
0.0
 10
-3.8281859825177293
 20
-17.115233334689318
 30
0.0
 10
-3.8526123046830305
 20
-17.252664822646953
 30
0.0
 10
-3.884620230308821
 20
-17.396483430689724
 30
0.0
 10
-3.9244859316477463
 20
-17.54642884736026
 30
0.0
 10
-3.955478443270013
 20
-17.647057341115154
 30
0.0
 10
-3.9583288678686506
 20
-17.663358830324793
 30
0.0
 10
-3.9622504356729813
 20
-17.688931824115542
 30
0.0
 10
-3.966672779400361
 20
-17.722440250100387
 30
0.0
 10
-3.971264789925132
 20
-17.763912853176556
 30
0.0
 10
-3.9756944460961323
 20
-17.81336798176848
 30
0.0
 10
-3.9796291051214134
 20
-17.870813563730724
 30
0.0
 10
-3.9827357935353476
 20
-17.936247089899446
 30
0.0
 10
-3.9846814985453913
 20
-18.00965560523619
 30
0.0
 10
-3.985133459576887
 20
-18.091015707585715
 30
0.0
 10
-3.9837594598166217
 20
-18.180293554109518
 30
0.0
 10
-3.9802281174262713
 20
-18.27744487529616
 30
0.0
 10
-3.974209177116085
 20
-18.382415010796805
 30
0.0
 10
-3.965373420740357
 20
-18.495138809037414
 30
0.0
 10
-3.953392693142019
 20
-18.615558987704436
 30
0.0
 10
-3.937947195952346
 20
-18.74353600947789
 30
0.0
 10
-3.9187079757574677
 20
-18.87902767031938
 30
0.0
 10
-3.895356904153417
 20
-19.021909973771308
 30
0.0
 10
-3.8675765471141763
 20
-19.172066695169917
 30
0.0
 10
-3.8350526068130733
 20
-19.329371568455578
 30
0.0
 10
-3.7974742026903514
 20
-19.49368836805287
 30
0.0
 10
-3.754534150436253
 20
-19.664870998108764
 30
0.0
 10
-3.7059292387027782
 20
-19.84276358904599
 30
0.0
 10
-3.6513605033630054
 20
-20.02720060136427
 30
0.0
 10
-3.5905334991329694
 20
-20.218006936638815
 30
0.0
 10
-3.5231585683782423
 20
-20.41499805564017
 30
0.0
 10
-3.448951106923382
 20
-20.617980103514753
 30
0.0
 10
-3.367631826688742
 20
-20.826750041945264
 30
0.0
 10
-3.2789270149768877
 20
-21.04109578821836
 30
0.0
 10
-3.1825687902388484
 20
-21.260796361106298
 30
0.0
 10
-3.108747487175037
 20
-21.419963688078003
 30
0.0
 10
-2.982480798663979
 20
-21.438609130439655
 30
0.0
 10
-2.6228716275487387
 20
-21.485569519739748
 30
0.0
 10
-2.2625261407071515
 20
-21.526498289893475
 30
0.0
 10
-1.901545497512029
 20
-21.561383951014406
 30
0.0
 10
-1.5400310356429476
 20
-21.590216709691134
 30
0.0
 10
-1.412646971775788
 20
-21.598231035682755
 30
0.0
 10
-1.3073460932273195
 20
-21.457890208628633
 30
0.0
 10
-1.167415209305879
 20
-21.26302462180766
 30
0.0
 10
-1.0360838240293035
 20
-21.071805611750037
 30
0.0
 10
-0.9131358542834156
 20
-20.88450502641861
 30
0.0
 10
-0.7983476631255441
 20
-20.701387222080424
 30
0.0
 10
-0.6914882796304799
 20
-20.52270886743522
 30
0.0
 10
-0.5923196235974914
 20
-20.34871875367866
 30
0.0
 10
-0.5005967349691748
 20
-20.179657610622993
 30
0.0
 10
-0.4160680078277924
 20
-20.015757929029352
 30
0.0
 10
-0.3384754286753143
 20
-19.857243788996175
 30
0.0
 10
-0.26755481918991697
 20
-19.704330695215347
 30
0.0
 10
-0.20303608284289135
 20
-19.55722541825468
 30
0.0
 10
-0.1446434554328461
 20
-19.416125842508517
 30
0.0
 10
-0.09209575946703256
 20
-19.281220820966503
 30
0.0
 10
-0.04510666209376051
 20
-19.152690036793665
 30
0.0
 10
-0.0033849363650719226
 20
-19.030703871521524
 30
0.0
 10
0.03336527425040919
 20
-18.915423280332334
 30
0.0
 10
0.06544418825727076
 20
-18.8069996743757
 30
0.0
 10
0.09315611572457465
 20
-18.705574810080982
 30
0.0
 10
0.11680918512160623
 20
-18.611280685690016
 30
0.0
 10
0.13671506771383804
 20
-18.524239444927517
 30
0.0
 10
0.15318869956044903
 20
-18.444563288035045
 30
0.0
 10
0.16654800199715705
 20
-18.372354390193614
 30
0.0
 10
0.17711318227530737
 20
-18.307703740811565
 30
0.0
 10
0.18521210802281218
 20
-18.25067177026954
 30
0.0
 10
0.19115470386005495
 20
-18.201428170619952
 30
0.0
 10
0.19529100712663028
 20
-18.159853735612394
 30
0.0
 10
0.19793003282338817
 20
-18.126184410785946
 30
0.0
 10
0.1994110851108053
 20
-18.100354909013447
 30
0.0
 10
0.20001221921263146
 20
-18.083817008622287
 30
0.0
 10
0.19061880868671133
 20
-17.978943784131303
 30
0.0
 10
0.18279967368072222
 20
-17.823986489202937
 30
0.0
 10
0.181392767994611
 20
-17.676655840868673
 30
0.0
 10
0.18607383260679564
 20
-17.537149042715676
 30
0.0
 10
0.1965132328350096
 20
-17.40565303376281
 30
0.0
 10
0.21237624669789773
 20
-17.282344351307977
 30
0.0
 10
0.2333233478437446
 20
-17.167389001051465
 30
0.0
 10
0.25901054549130914
 20
-17.060942336873932
 30
0.0
 10
0.28908958242450494
 20
-16.963148942687436
 30
0.0
 10
0.32320835473202897
 20
-16.87414253127809
 30
0.0
 10
0.3610111320250466
 20
-16.794045841720024
 30
0.0
 10
0.4021394155063788
 20
-16.722970624436236
 30
0.0
 10
0.4462288252432761
 20
-16.66101705596867
 30
0.0
 10
0.4929187100210789
 20
-16.608275073493573
 30
0.0
 10
0.5418390004209118
 20
-16.5648222184277
 30
0.0
 10
0.5926214621308318
 20
-16.530725313728002
 30
0.0
 10
0.6448952436145535
 20
-16.506039642642932
 30
0.0
 10
0.6982880860812221
 20
-16.490809054568963
 30
0.0
 10
0.7524266244994263
 20
-16.485065928416656
 30
0.0
 10
0.8637012777689358
 20
-16.480402138605424
 30
0.0
 10
1.2086513551597127
 20
-16.45869971943606
 30
0.0
 10
1.5530712782884144
 20
-16.429777970288107
 30
0.0
 10
1.8968099729365602
 20
-16.39364957765532
 30
0.0
 10
2.2397166640433706
 20
-16.350330388512365
 30
0.0
 10
2.5816409058908936
 20
-16.29983916390628
 30
0.0
 10
2.6914536329178036
 20
-16.28126597754571
 30
0.0
 10
2.7456031775102843
 20
-16.27562756751867
 30
0.0
 10
2.8009958755035855
 20
-16.279424334586594
 30
0.0
 10
2.857259789094247
 20
-16.292702234219274
 30
0.0
 10
2.9140216772821037
 20
-16.315495772266008
 30
0.0
 10
2.97090731247704
 20
-16.347827972130336
 30
0.0
 10
3.0275417978750117
 20
-16.389710350186366
 30
0.0
 10
3.0835498853978702
 20
-16.44114289945622
 30
0.0
 10
3.138556293989153
 20
-16.50211408155712
 30
0.0
 10
3.192186028059674
 20
-16.572600826928703
 30
0.0
 10
3.2440646958750796
 20
-16.652568543339626
 30
0.0
 10
3.293818827678919
 20
-16.741971132673324
 30
0.0
 10
3.34107619334347
 20
-16.840751015982196
 30
0.0
 10
3.3854661193419933
 20
-16.948839166798685
 30
0.0
 10
3.4266198048358794
 20
-17.066155152685077
 30
0.0
 10
3.464170636670413
 20
-17.192607184997748
 30
0.0
 10
3.497754503074188
 20
-17.328092176838712
 30
0.0
 10
3.527010105857336
 20
-17.47249580916152
 30
0.0
 10
3.5515792709046
 20
-17.625692604991674
 30
0.0
 10
3.5641954984387807
 20
-17.7302270985086
 30
0.0
 10
3.5682219189926094
 20
-17.74627862206147
 30
0.0
 10
3.5750408621859724
 20
-17.771235759701657
 30
0.0
 10
3.5846299548615193
 20
-17.803645959295064
 30
0.0
 10
3.597303371859985
 20
-17.843400806397728
 30
0.0
 10
3.6133718925724088
 20
-17.89038201796098
 30
0.0
 10
3.63314262585935
 20
-17.94446153842782
 30
0.0
 10
3.6569187375489687
 20
-18.005501643053357
 30
0.0
 10
3.684999180676378
 20
-18.073355048315733
 30
0.0
 10
3.7176784286389712
 20
-18.147865029363224
 30
0.0
 10
3.755246211474892
 20
-18.228865544473084
 30
0.0
 10
3.79798725552481
 20
-18.316181366297712
 30
0.0
 10
3.846181031641747
 20
-18.40962823319582
 30
0.0
 10
3.9001017960347695
 20
-18.509012721159447
 30
0.0
 10
3.960026034541097
 20
-18.61414902746426
 30
0.0
 10
4.026189142566728
 20
-18.724779604710466
 30
0.0
 10
4.098874468079776
 20
-18.8407321001832
 30
0.0
 10
4.178322201935719
 20
-18.961763843002768
 30
0.0
 10
4.264775061717545
 20
-19.087639544605384
 30
0.0
 10
4.358468815743931
 20
-19.218116018762878
 30
0.0
 10
4.459632059604863
 20
-19.35294237070433
 30
0.0
 10
4.568485997594352
 20
-19.491860192111872
 30
0.0
 10
4.685244229193452
 20
-19.634603761875383
 30
0.0
 10
4.810112540741669
 20
-19.78090025247093
 30
0.0
 10
4.94328870244519
 20
-19.93046994184154
 30
0.0
 10
5.084962270853512
 20
-20.083026430638515
 30
0.0
 10
5.235314396945948
 20
-20.238276864694008
 30
0.0
 10
5.3945176399554375
 20
-20.395922162579552
 30
0.0
 10
5.562735787062539
 20
-20.555657248112
 30
0.0
 10
5.740123679076749
 20
-20.717171287652558
 30
0.0
 10
5.872301979427772
 20
-20.832552047217018
 30
0.0
 10
5.995236123803465
 20
-20.79822821737496
 30
0.0
 10
6.342855959703865
 20
-20.6948624406305
 30
0.0
 10
6.688695172967555
 20
-20.585687019025876
 30
0.0
 10
7.032656676551172
 20
-20.470732601251232
 30
0.0
 10
7.374643910538567
 20
-20.35003145832768
 30
0.0
 10
7.4942747635108145
 20
-20.30554114291471
 30
0.0
 10
7.533390145912066
 20
-20.134503691983873
 30
0.0
 10
7.581964394667855
 20
-19.899570102303876
 30
0.0
 10
7.6241658068900655
 20
-19.67146555747293
 30
0.0
 10
7.660302354853963
 20
-19.450350514042178
 30
0.0
 10
7.690685864453323
 20
-19.236375512139247
 30
0.0
 10
7.71563173469303
 20
-19.029681085950134
 30
0.0
 10
7.735458655154769
 20
-18.830397681599916
 30
0.0
 10
7.750488321622006
 20
-18.638645582483647
 30
0.0
 10
7.761045150049736
 20
-18.454534842133747
 30
0.0
 10
7.767455989084115
 20
-18.278165224362247
 30
0.0
 10
7.770049831285995
 20
-18.10962615149771
 30
0.0
 10
7.769157523278945
 20
-17.948996659697762
 30
0.0
 10
7.765111475030794
 20
-17.796345361946415
 30
0.0
 10
7.75824536839388
 20
-17.651730418845027
 30
0.0
 10
7.7488938651716
 20
-17.515199517069924
 30
0.0
 10
7.737392314831573
 20
-17.38678985522411
 30
0.0
 10
7.72407646213467
 20
-17.2665281374908
 30
0.0
 10
7.709282154794772
 20
-17.154430574971215
 30
0.0
 10
7.693345051427395
 20
-17.050502894551546
 30
0.0
 10
7.676600329917805
 20
-16.954740355486802
 30
0.0
 10
7.659382396463414
 20
-16.86712777349762
 30
0.0
 10
7.642024595420136
 20
-16.787639552569527
 30
0.0
 10
7.624858920770237
 20
-16.716239724118168
 30
0.0
 10
7.608214905120192
 20
-16.652881171081727
 30
0.0
 10
7.592416649702351
 20
-16.597485743581597
 30
0.0
 10
7.577816304721625
 20
-16.550082405321746
 30
0.0
 10
7.564685159649493
 20
-16.510419882961145
 30
0.0
 10
7.553401481432828
 20
-16.47858803575116
 30
0.0
 10
7.544248685179263
 20
-16.454389213498118
 30
0.0
 10
7.538071278418798
 20
-16.439036586450214
 30
0.0
 10
7.486834187623074
 20
-16.347050772852487
 30
0.0
 10
7.416664242396388
 20
-16.20867056866619
 30
0.0
 10
7.355454196771851
 20
-16.074649564204773
 30
0.0
 10
7.302988035318239
 20
-15.945299801935457
 30
0.0
 10
7.259040656717883
 20
-15.820926133653888
 30
0.0
 10
7.223378081413068
 20
-15.701825977901727
 30
0.0
 10
7.195757657248699
 20
-15.588289086240943
 30
0.0
 10
7.1759283211250136
 20
-15.480597295159157
 30
0.0
 10
7.163630731819194
 20
-15.379024337603468
 30
0.0
 10
7.158597612292214
 20
-15.283835579845162
 30
0.0
 10
7.160553909142191
 20
-15.195287838192076
 30
0.0
 10
7.16921757041331
 20
-15.113629016332844
 30
0.0
 10
7.184296463943531
 20
-15.039098836762973
 30
0.0
 10
7.205497699199067
 20
-14.971926151245665
 30
0.0
 10
7.232514739878838
 20
-14.912332318183111
 30
0.0
 10
7.2650383665450144
 20
-14.86052815777201
 30
0.0
 10
7.302752275184058
 20
-14.816715012681819
 30
0.0
 10
7.345334225624831
 20
-14.781084352620452
 30
0.0
 10
7.392456301628241
 20
-14.753817618434093
 30
0.0
 10
7.492213821461527
 20
-14.704297555506377
 30
0.0
 10
7.79851422865576
 20
-14.544167572547684
 30
0.0
 10
8.101393949791282
 20
-14.377658036644704
 30
0.0
 10
8.400720131763908
 20
-14.204841984906647
 30
0.0
 10
8.696361480247019
 20
-14.025795220007325
 30
0.0
 10
8.988188187043649
 20
-13.840596072802327
 30
0.0
 10
9.08095270953891
 20
-13.778963762810754
 30
0.0
 10
9.128127432068101
 20
-13.751788214950592
 30
0.0
 10
9.180275463998198
 20
-13.732726494226515
 30
0.0
 10
9.237075715011837
 20
-13.721971863782812
 30
0.0
 10
9.298201247282021
 20
-13.71970765707284
 30
0.0
 10
9.36331955135554
 20
-13.726107119096064
 30
0.0
 10
9.432092826091324
 20
-13.741333254851325
 30
0.0
 10
9.504178262473934
 20
-13.765538685107636
 30
0.0
 10
9.579228331115816
 20
-13.79886550958494
 30
0.0
 10
9.656891073264298
 20
-13.841445177638267
 30
0.0
 10
9.736810395123026
 20
-13.893398366529032
 30
0.0
 10
9.818626365299247
 20
-13.954834867367277
 30
0.0
 10
9.901975515182725
 20
-14.025853478799561
 30
0.0
 10
9.986491142063135
 20
-14.106541908515927
 30
0.0
 10
10.071803614789886
 20
-14.196976682643324
 30
0.0
 10
10.157540681775995
 20
-14.29722306308716
 30
0.0
 10
10.243327781147785
 20
-14.407334972879637
 30
0.0
 10
10.328788352839858
 20
-14.527354929588055
 30
0.0
 10
10.413544152432783
 20
-14.657313986829593
 30
0.0
 10
10.467587658767922
 20
-14.747679516513417
 30
0.0
 10
10.477794719781578
 20
-14.76070562016371
 30
0.0
 10
10.494175116746348
 20
-14.78073158582687
 30
0.0
 10
10.516117604587047
 20
-14.806439541081724
 30
0.0
 10
10.543865100175335
 20
-14.837602657985382
 30
0.0
 10
10.577653404562078
 20
-14.873986474229774
 30
0.0
 10
10.617710990764458
 20
-14.915349092815465
 30
0.0
 10
10.664258796847298
 20
-14.961441387276126
 30
0.0
 10
10.717510024392615
 20
-15.012007212265427
 30
0.0
 10
10.777669942494915
 20
-15.066783619385854
 30
0.0
 10
10.84493569746157
 20
-15.125501078152693
 30
0.0
 10
10.91949612836463
 20
-15.187883701782495
 30
0.0
 10
11.001531598570988
 20
-15.253649487853242
 30
0.0
 10
11.091213980962985
 20
-15.322510184691252
 30
0.0
 10
11.18872028514494
 20
-15.394183596140397
 30
0.0
 10
11.29416080155593
 20
-15.46833869700624
 30
0.0
 10
11.407724279280492
 20
-15.544702787247632
 30
0.0
 10
11.529531440444632
 20
-15.62295648156247
 30
0.0
 10
11.659708318113191
 20
-15.70278611101715
 30
0.0
 10
11.798371384612665
 20
-15.78387361832309
 30
0.0
 10
11.945627424309032
 20
-15.865896821499073
 30
0.0
 10
12.101573413248547
 20
-15.948529680908116
 30
0.0
 10
12.266296405754554
 20
-16.031442569501174
 30
0.0
 10
12.439873428051532
 20
-16.114302546088123
 30
0.0
 10
12.622371379002551
 20
-16.196773631464648
 30
0.0
 10
12.813846938022706
 20
-16.278517087212062
 30
0.0
 10
13.01434648024515
 20
-16.35919169699435
 30
0.0
 10
13.22390599899709
 20
-16.438454050167945
 30
0.0
 10
13.44255103565073
 20
-16.51595882752349
 30
0.0
 10
13.67029661689345
 20
-16.59135908897112
 30
0.0
 10
13.837977085598828
 20
-16.643002899598347
 30
0.0
 10
13.936322255454957
 20
-16.56164469955447
 30
0.0
 10
14.211846128486272
 20
-16.325825638613185
 30
0.0
 10
14.483380326348174
 20
-16.085423447473204
 30
0.0
 10
14.750848621558513
 20
-15.84050561396432
 30
0.0
 10
15.01417592805132
 20
-15.591140893587427
 30
0.0
 10
15.10536830883757
 20
-15.501838716486596
 30
0.0
 10
15.071534790122337
 20
-15.32967857077145
 30
0.0
 10
15.020353474819398
 20
-15.095299130192759
 30
0.0
 10
14.966127906426232
 20
-14.869750398654498
 30
0.0
 10
14.909204695174946
 20
-14.6530536969007
 30
0.0
 10
14.849929938380546
 20
-14.445219719163907
 30
0.0
 10
14.788648927774336
 20
-14.246248565478897
 30
0.0
 10
14.72570585799507
 20
-14.05612978158006
 30
0.0
 10
14.66144353642881
 20
-13.874842406353528
 30
0.0
 10
14.596203094601956
 20
-13.70235502684744
 30
0.0
 10
14.530323701208548
 20
-13.538625840517978
 30
0.0
 10
14.464142277245891
 20
-13.38360272539743
 30
0.0
 10
14.397993213045547
 20
-13.237223317163522
 30
0.0
 10
14.332208087638495
 20
-13.099415093581706
 30
0.0
 10
14.267115390613
 20
-12.97009546636869
 30
0.0
 10
14.203040246658038
 20
-12.849171880252541
 30
0.0
 10
14.14030414279139
 20
-12.73654191893134
 30
0.0
 10
14.079224658684124
 20
-12.63209341819341
 30
0.0
 10
14.020115200138598
 20
-12.5357045860449
 30
0.0
 10
13.963284735892795
 20
-12.447244129598177
 30
0.0
 10
13.909037537946613
 20
-12.366571388839311
 30
0.0
 10
13.857672925559877
 20
-12.293536476984695
 30
0.0
 10
13.809485013117763
 20
-12.227980427547262
 30
0.0
 10
13.764762462473486
 20
-12.169735347472294
 30
0.0
 10
13.723787152407272
 20
-12.118624160195846
 30
0.0
 10
13.686823377708475
 20
-12.074443648404038
 30
0.0
 10
13.65420462419692
 20
-12.037077039364863
 30
0.0
 10
13.626076525061755
 20
-12.00618444009007
 30
0.0
 10
13.602821193404331
 20
-11.981694086062408
 30
0.0
 10
13.58461715023257
 20
-11.963310139535775
 30
0.0
 10
13.572729332358676
 20
-11.951797394521945
 30
0.0
 10
13.488507919766086
 20
-11.888604174653405
 30
0.0
 10
13.368120185322338
 20
-11.790728255657672
 30
0.0
 10
13.257690772723661
 20
-11.693190344283089
 30
0.0
 10
13.157149261159695
 20
-11.596363366899519
 30
0.0
 10
13.066414004740173
 20
-11.500617376434436
 30
0.0
 10
12.985392223522183
 20
-11.40631924630544
 30
0.0
 10
12.913980096309295
 20
-11.313832373258816
 30
0.0
 10
12.852062898774006
 20
-11.223516344300023
 30
0.0
 10
12.79951504814024
 20
-11.135726710497874
 30
0.0
 10
12.756200308869426
 20
-11.050814607369734
 30
0.0
 10
12.721971863778604
 20
-10.969126522584428
 30
0.0
 10
12.696672877098838
 20
-10.89100364829632
 30
0.0
 10
12.680133976743562
 20
-10.816783802757195
 30
0.0
 10
12.672180676293973
 20
-10.746795181768306
 30
0.0
 10
12.672622975478042
 20
-10.681364685838567
 30
0.0
 10
12.68126413658202
 20
-10.620810679677167
 30
0.0
 10
12.697897094952587
 20
-10.565445751397876
 30
0.0
 10
12.722305347291382
 20
-10.515575884168104
 30
0.0
 10
12.754263125848388
 20
-10.471500207999018
 30
0.0
 10
12.825254530797654
 20
-10.38568634071067
 30
0.0
 10
13.039943144739624
 20
-10.114816722751435
 30
0.0
 10
13.248912008521748
 20
-9.839510411542692
 30
0.0
 10
13.452069461662791
 20
-9.55988816602942
 30
0.0
 10
13.64932639255214
 20
-9.27607263761362
 30
0.0
 10
13.840596075530339
 20
-8.988188182842883
 30
0.0
 10
13.90027256481529
 20
-8.894153535529808
 30
0.0
 10
13.932315527186994
 20
-8.850139748943652
 30
0.0
 10
13.972202024583178
 20
-8.811515485111062
 30
0.0
 10
14.019717333605453
 20
-8.778587897897443
 30
0.0
 10
14.07463735012042
 20
-8.751657448340588
 30
0.0
 10
14.136728776716993
 20
-8.731017647401607
 30
0.0
 10
14.205749316803187
 20
-8.716954803658913
 30
0.0
 10
14.28144787521936
 20
-8.709747776110934
 30
0.0
 10
14.363564765235193
 20
-8.70966773224782
 30
0.0
 10
14.451831921800297
 20
-8.716977911552332
 30
0.0
 10
14.54597312090873
 20
-8.731933394583825
 30
0.0
 10
14.64570420493911
 20
-8.75478087779859
 30
0.0
 10
14.750733313823405
 20
-8.785758454253811
 30
0.0
 10
14.860761121897715
 20
-8.825095400340727
 30
0.0
 10
14.975481080283393
 20
-8.873011968688372
 30
0.0
 10
15.094579664642374
 20
-8.929719187374852
 30
0.0
 10
15.217736628149465
 20
-8.995418665580432
 30
0.0
 10
15.344625259519981
 20
-9.070302405812496
 30
0.0
 10
15.474912645926686
 20
-9.154552622827387
 30
0.0
 10
15.561038817847596
 20
-9.21512416765071
 30
0.0
 10
15.57566162574358
 20
-9.222872519738853
 30
0.0
 10
15.598771157033312
 20
-9.23450464203164
 30
0.0
 10
15.629272984550264
 20
-9.249065213934934
 30
0.0
 10
15.667296764663076
 20
-9.266248214618917
 30
0.0
 10
15.71296254793856
 20
-9.285743543179196
 30
0.0
 10
15.766380666490237
 20
-9.307237287362682
 30
0.0
 10
15.827651628421037
 20
-9.330411995210865
 30
0.0
 10
15.896866019369462
 20
-9.354946949410344
 30
0.0
 10
15.974104411235885
 20
-9.380518444184547
 30
0.0
 10
16.059437278209337
 20
-9.406800064556213
 30
0.0
 10
16.152924920102148
 20
-9.43346296763725
 30
0.0
 10
16.2546174063304
 20
-9.460176171005598
 30
0.0
 10
16.364554508066927
 20
-9.486606436654906
 30
0.0
 10
16.482783152114486
 20
-9.512423969276327
 30
0.0
 10
16.60926945372636
 20
-9.53728150314416
 30
0.0
 10
16.74407492667205
 20
-9.56085314320549
 30
0.0
 10
16.887179950395787
 20
-9.582798014356067
 30
0.0
 10
17.038572081182377
 20
-9.602778303500687
 30
0.0
 10
17.19822835624277
 20
-9.620456077284995
 30
0.0
 10
17.366115284731947
 20
-9.635493574708972
 30
0.0
 10
17.54218884640901
 20
-9.647553500031728
 30
0.0
 10
17.726394497956232
 20
-9.656299315776652
 30
0.0
 10
17.918667186949076
 20
-9.661395535643864
 30
0.0
 10
18.118931373486326
 20
-9.662508017138416
 30
0.0
 10
18.327101059462887
 20
-9.659304253721553
 30
0.0
 10
18.543079825483918
 20
-9.651453666293461
 30
0.0
 10
18.76676087539764
 20
-9.638627893815517
 30
0.0
 10
18.998027088432604
 20
-9.620501082880589
 30
0.0
 10
19.236751078903314
 20
-9.596750176041128
 30
0.0
 10
19.41094023959465
 20
-9.575727353704382
 30
0.0
 10
19.467691661625274
 20
-9.461402355362319
 30
0.0
 10
19.623478991084582
 20
-9.133905268209864
 30
0.0
  0
LWPOLYLINE
  8
OpenJsCad
  90
361
  70
1
 10
0.03490481287456715
 20
-1.9996953903127825
 30
0.0
 10
1.2246467991473532e-16
 20
-2
 30
0.0
 10
-0.03490481287456877
 20
-1.9996953903127825
 30
0.0
 10
-0.06979899340500152
 20
-1.9987816540381915
 30
0.0
 10
-0.10467191248588861
 20
-1.9972590695091477
 30
0.0
 10
-0.1395129474882494
 20
-1.9951281005196486
 30
0.0
 10
-0.17431148549531653
 20
-1.992389396183491
 30
0.0
 10
-0.20905692653530672
 20
-1.9890437907365466
 30
0.0
 10
-0.24373868681029612
 20
-1.985092303282644
 30
0.0
 10
-0.27834620192013165
 20
-1.9805361374831405
 30
0.0
 10
-0.3128689300804621
 20
-1.9753766811902753
 30
0.0
 10
-0.34729635533386244
 20
-1.9696155060244158
 30
0.0
 10
-0.3816179907530892
 20
-1.963254366895328
 30
0.0
 10
-0.41582338163551963
 20
-1.9562952014676112
 30
0.0
 10
-0.44990210868773056
 20
-1.9487401295704703
 30
0.0
 10
-0.4838437911993356
 20
-1.940591452551993
 30
0.0
 10
-0.5176380902050413
 20
-1.9318516525781366
 30
0.0
 10
-0.5512747116339994
 20
-1.9225233918766373
 30
0.0
 10
-0.5847434094454724
 20
-1.9126095119260713
 30
0.0
 10
-0.6180339887498951
 20
-1.902113032590307
 30
0.0
 10
-0.651136308914315
 20
-1.891037151198633
 30
0.0
 10
-0.6840402866513371
 20
-1.8793852415718169
 30
0.0
 10
-0.7167358990906014
 20
-1.8671608529944033
 30
0.0
 10
-0.7492131868318246
 20
-1.8543677091335746
 30
0.0
 10
-0.7814622569785493
 20
-1.8410097069048799
 30
0.0
 10
-0.8134732861516002
 20
-1.827090915285202
 30
0.0
 10
-0.8452365234813999
 20
-1.8126155740732994
 30
0.0
 10
-0.8767422935781539
 20
-1.7975880925983343
 30
0.0
 10
-0.9079809994790938
 20
-1.7820130483767356
 30
0.0
 10
-0.9389431255717815
 20
-1.765895185717854
 30
0.0
 10
-0.9696192404926737
 20
-1.7492394142787917
 30
0.0
 10
-1.0000000000000009
 20
-1.7320508075688767
 30
0.0
 10
-1.030076149820109
 20
-1.7143346014042242
 30
0.0
 10
-1.0598385284664116
 20
-1.6960961923128508
 30
0.0
 10
-1.089278070030054
 20
-1.677341135890848
 30
0.0
 10
-1.1183858069414947
 20
-1.6580751451100828
 30
0.0
 10
-1.147152872702093
 20
-1.6383040885779832
 30
0.0
 10
-1.1755705045849467
 20
-1.6180339887498945
 30
0.0
 10
-1.2036300463040965
 20
-1.5972710200945857
 30
0.0
 10
-1.2313229506513177
 20
-1.5760215072134431
 30
0.0
 10
-1.2586407820996757
 20
-1.554291922913941
 30
0.0
 10
-1.2855752193730792
 20
-1.5320888862379558
 30
0.0
 10
-1.3121180579810148
 20
-1.5094191604455438
 30
0.0
 10
-1.3382612127177163
 20
-1.4862896509547885
 30
0.0
 10
-1.3639967201249965
 20
-1.4627074032383414
 30
0.0
 10
-1.3893167409179952
 20
-1.4386796006773017
 30
0.0
 10
-1.4142135623730954
 20
-1.4142135623730947
 30
0.0
 10
-1.4386796006773035
 20
-1.3893167409179932
 30
0.0
 10
-1.462707403238342
 20
-1.3639967201249958
 30
0.0
 10
-1.4862896509547892
 20
-1.3382612127177156
 30
0.0
 10
-1.5094191604455443
 20
-1.312118057981014
 30
0.0
 10
-1.5320888862379562
 20
-1.2855752193730785
 30
0.0
 10
-1.5542919229139416
 20
-1.258640782099675
 30
0.0
 10
-1.5760215072134436
 20
-1.231322950651317
 30
0.0
 10
-1.597271020094586
 20
-1.2036300463040959
 30
0.0
 10
-1.6180339887498951
 20
-1.1755705045849458
 30
0.0
 10
-1.6383040885779836
 20
-1.147152872702092
 30
0.0
 10
-1.6580751451100841
 20
-1.1183858069414925
 30
0.0
 10
-1.6773411358908485
 20
-1.0892780700300533
 30
0.0
 10
-1.6960961923128521
 20
-1.0598385284664094
 30
0.0
 10
-1.7143346014042247
 20
-1.0300761498201083
 30
0.0
 10
-1.7320508075688772
 20
-1.0000000000000002
 30
0.0
 10
-1.7492394142787921
 20
-0.9696192404926731
 30
0.0
 10
-1.7658951857178542
 20
-0.938943125571781
 30
0.0
 10
-1.782013048376736
 20
-0.9079809994790934
 30
0.0
 10
-1.797588092598334
 20
-0.8767422935781549
 30
0.0
 10
-1.8126155740732997
 20
-0.8452365234813993
 30
0.0
 10
-1.8270909152852015
 20
-0.8134732861516012
 30
0.0
 10
-1.841009706904881
 20
-0.7814622569785471
 30
0.0
 10
-1.8543677091335748
 20
-0.749213186831824
 30
0.0
 10
-1.8671608529944042
 20
-0.7167358990905992
 30
0.0
 10
-1.879385241571817
 20
-0.6840402866513364
 30
0.0
 10
-1.891037151198634
 20
-0.6511363089143127
 30
0.0
 10
-1.9021130325903073
 20
-0.6180339887498946
 30
0.0
 10
-1.9126095119260709
 20
-0.5847434094454735
 30
0.0
 10
-1.9225233918766376
 20
-0.5512747116339989
 30
0.0
 10
-1.9318516525781364
 20
-0.5176380902050424
 30
0.0
 10
-1.9405914525519932
 20
-0.483843791199335
 30
0.0
 10
-1.9487401295704705
 20
-0.44990210868772995
 30
0.0
 10
-1.9562952014676116
 20
-0.41582338163551724
 30
0.0
 10
-1.9632543668953282
 20
-0.3816179907530886
 30
0.0
 10
-1.9696155060244163
 20
-0.34729635533386005
 30
0.0
 10
-1.9753766811902755
 20
-0.31286893008046146
 30
0.0
 10
-1.9805361374831407
 20
-0.27834620192013104
 30
0.0
 10
-1.985092303282644
 20
-0.24373868681029548
 30
0.0
 10
-1.9890437907365468
 20
-0.20905692653530608
 30
0.0
 10
-1.992389396183491
 20
-0.1743114854953159
 30
0.0
 10
-1.9951281005196486
 20
-0.13951294748825055
 30
0.0
 10
-1.9972590695091477
 20
-0.10467191248588802
 30
0.0
 10
-1.9987816540381915
 20
-0.06979899340500269
 30
0.0
 10
-1.9996953903127825
 20
-0.034904812874566385
 30
0.0
 10
-2
 20
2.449293598294706e-16
 30
0.0
 10
-1.9996953903127825
 20
0.03490481287456687
 30
0.0
 10
-1.9987816540381913
 20
0.06979899340500317
 30
0.0
 10
-1.9972590695091477
 20
0.10467191248588849
 30
0.0
 10
-1.9951281005196484
 20
0.13951294748825105
 30
0.0
 10
-1.992389396183491
 20
0.1743114854953164
 30
0.0
 10
-1.9890437907365468
 20
0.2090569265353066
 30
0.0
 10
-1.9850923032826442
 20
0.24373868681029423
 30
0.0
 10
-1.9805361374831407
 20
0.27834620192012977
 30
0.0
 10
-1.9753766811902753
 20
0.31286893008046196
 30
0.0
 10
-1.969615506024416
 20
0.34729635533386055
 30
0.0
 10
-1.9632543668953277
 20
0.38161799075309083
 30
0.0
 10
-1.9562952014676112
 20
0.41582338163551946
 30
0.0
 10
-1.9487401295704703
 20
0.4499021086877304
 30
0.0
 10
-1.940591452551993
 20
0.48384379119933546
 30
0.0
 10
-1.9318516525781366
 20
0.5176380902050411
 30
0.0
 10
-1.9225233918766378
 20
0.5512747116339977
 30
0.0
 10
-1.9126095119260706
 20
0.5847434094454741
 30
0.0
 10
-1.902113032590307
 20
0.618033988749895
 30
0.0
 10
-1.8910371511986337
 20
0.6511363089143132
 30
0.0
 10
-1.8793852415718164
 20
0.6840402866513386
 30
0.0
 10
-1.8671608529944033
 20
0.7167358990906013
 30
0.0
 10
-1.8543677091335746
 20
0.7492131868318245
 30
0.0
 10
-1.8410097069048805
 20
0.7814622569785475
 30
0.0
 10
-1.827090915285202
 20
0.8134732861516001
 30
0.0
 10
-1.8126155740732994
 20
0.8452365234813998
 30
0.0
 10
-1.7975880925983336
 20
0.8767422935781554
 30
0.0
 10
-1.7820130483767356
 20
0.9079809994790937
 30
0.0
 10
-1.765895185717854
 20
0.9389431255717814
 30
0.0
 10
-1.7492394142787917
 20
0.9696192404926736
 30
0.0
 10
-1.7320508075688767
 20
1.0000000000000009
 30
0.0
 10
-1.7143346014042242
 20
1.030076149820109
 30
0.0
 10
-1.6960961923128517
 20
1.05983852846641
 30
0.0
 10
-1.677341135890848
 20
1.089278070030054
 30
0.0
 10
-1.6580751451100828
 20
1.1183858069414945
 30
0.0
 10
-1.6383040885779832
 20
1.1471528727020928
 30
0.0
 10
-1.6180339887498947
 20
1.1755705045849465
 30
0.0
 10
-1.5972710200945857
 20
1.2036300463040965
 30
0.0
 10
-1.5760215072134443
 20
1.2313229506513161
 30
0.0
 10
-1.5542919229139422
 20
1.2586407820996741
 30
0.0
 10
-1.5320888862379558
 20
1.285575219373079
 30
0.0
 10
-1.5094191604455434
 20
1.3121180579810154
 30
0.0
 10
-1.486289650954788
 20
1.338261212717717
 30
0.0
 10
-1.4627074032383403
 20
1.3639967201249978
 30
0.0
 10
-1.4386796006773017
 20
1.389316740917995
 30
0.0
 10
-1.414213562373095
 20
1.4142135623730954
 30
0.0
 10
-1.3893167409179947
 20
1.4386796006773022
 30
0.0
 10
-1.3639967201249967
 20
1.4627074032383411
 30
0.0
 10
-1.3382612127177165
 20
1.4862896509547885
 30
0.0
 10
-1.3121180579810148
 20
1.5094191604455438
 30
0.0
 10
-1.2855752193730785
 20
1.5320888862379562
 30
0.0
 10
-1.2586407820996752
 20
1.5542919229139416
 30
0.0
 10
-1.2313229506513157
 20
1.5760215072134445
 30
0.0
 10
-1.203630046304096
 20
1.597271020094586
 30
0.0
 10
-1.175570504584946
 20
1.618033988749895
 30
0.0
 10
-1.1471528727020917
 20
1.638304088577984
 30
0.0
 10
-1.1183858069414934
 20
1.6580751451100837
 30
0.0
 10
-1.0892780700300542
 20
1.677341135890848
 30
0.0
 10
-1.0598385284664096
 20
1.6960961923128521
 30
0.0
 10
-1.0300761498201083
 20
1.7143346014042247
 30
0.0
 10
-1.0000000000000002
 20
1.7320508075688772
 30
0.0
 10
-0.969619240492674
 20
1.7492394142787917
 30
0.0
 10
-0.9389431255717818
 20
1.7658951857178538
 30
0.0
 10
-0.9079809994790926
 20
1.7820130483767362
 30
0.0
 10
-0.8767422935781543
 20
1.7975880925983343
 30
0.0
 10
-0.8452365234813987
 20
1.8126155740733
 30
0.0
 10
-0.8134732861515998
 20
1.8270909152852022
 30
0.0
 10
-0.7814622569785472
 20
1.8410097069048807
 30
0.0
 10
-0.7492131868318241
 20
1.8543677091335748
 30
0.0
 10
-0.716735899090601
 20
1.8671608529944035
 30
0.0
 10
-0.6840402866513374
 20
1.8793852415718169
 30
0.0
 10
-0.6511363089143136
 20
1.8910371511986335
 30
0.0
 10
-0.6180339887498956
 20
1.902113032590307
 30
0.0
 10
-0.5847434094454729
 20
1.912609511926071
 30
0.0
 10
-0.5512747116339981
 20
1.9225233918766378
 30
0.0
 10
-0.5176380902050408
 20
1.9318516525781368
 30
0.0
 10
-0.4838437911993351
 20
1.9405914525519932
 30
0.0
 10
-0.44990210868773006
 20
1.9487401295704705
 30
0.0
 10
-0.41582338163551824
 20
1.9562952014676114
 30
0.0
 10
-0.38161799075308955
 20
1.963254366895328
 30
0.0
 10
-0.34729635533386105
 20
1.969615506024416
 30
0.0
 10
-0.31286893008046157
 20
1.9753766811902755
 30
0.0
 10
-0.27834620192013115
 20
1.9805361374831405
 30
0.0
 10
-0.24373868681029562
 20
1.985092303282644
 30
0.0
 10
-0.20905692653530622
 20
1.9890437907365468
 30
0.0
 10
-0.174311485495316
 20
1.992389396183491
 30
0.0
 10
-0.13951294748824977
 20
1.9951281005196486
 30
0.0
 10
-0.10467191248588725
 20
1.9972590695091477
 30
0.0
 10
-0.06979899340500192
 20
1.9987816540381915
 30
0.0
 10
-0.03490481287456651
 20
1.9996953903127825
 30
0.0
 10
1.2246467991473532e-16
 20
2
 30
0.0
 10
0.03490481287456675
 20
1.9996953903127825
 30
0.0
 10
0.06979899340500127
 20
1.9987816540381915
 30
0.0
 10
0.10467191248588749
 20
1.9972590695091477
 30
0.0
 10
0.13951294748825094
 20
1.9951281005196484
 30
0.0
 10
0.17431148549531716
 20
1.992389396183491
 30
0.0
 10
0.20905692653530736
 20
1.9890437907365466
 30
0.0
 10
0.24373868681029498
 20
1.985092303282644
 30
0.0
 10
0.2783462019201314
 20
1.9805361374831405
 30
0.0
 10
0.31286893008046185
 20
1.9753766811902753
 30
0.0
 10
0.34729635533386044
 20
1.969615506024416
 30
0.0
 10
0.38161799075308983
 20
1.963254366895328
 30
0.0
 10
0.4158233816355185
 20
1.9562952014676114
 30
0.0
 10
0.44990210868772945
 20
1.9487401295704705
 30
0.0
 10
0.48384379119933535
 20
1.940591452551993
 30
0.0
 10
0.5176380902050419
 20
1.9318516525781364
 30
0.0
 10
0.5512747116339992
 20
1.9225233918766373
 30
0.0
 10
0.584743409445474
 20
1.9126095119260709
 30
0.0
 10
0.6180339887498949
 20
1.902113032590307
 30
0.0
 10
0.6511363089143138
 20
1.8910371511986335
 30
0.0
 10
0.6840402866513376
 20
1.8793852415718166
 30
0.0
 10
0.7167358990906003
 20
1.8671608529944035
 30
0.0
 10
0.7492131868318244
 20
1.8543677091335746
 30
0.0
 10
0.7814622569785482
 20
1.8410097069048803
 30
0.0
 10
0.8134732861516007
 20
1.8270909152852015
 30
0.0
 10
0.8452365234813989
 20
1.8126155740732999
 30
0.0
 10
0.8767422935781545
 20
1.797588092598334
 30
0.0
 10
0.9079809994790936
 20
1.7820130483767356
 30
0.0
 10
0.9389431255717821
 20
1.7658951857178535
 30
0.0
 10
0.9696192404926742
 20
1.7492394142787915
 30
0.0
 10
0.9999999999999998
 20
1.7320508075688774
 30
0.0
 10
1.0300761498201088
 20
1.7143346014042242
 30
0.0
 10
1.0598385284664098
 20
1.6960961923128521
 30
0.0
 10
1.0892780700300537
 20
1.6773411358908483
 30
0.0
 10
1.1183858069414938
 20
1.6580751451100832
 30
0.0
 10
1.1471528727020928
 20
1.6383040885779834
 30
0.0
 10
1.1755705045849465
 20
1.618033988749895
 30
0.0
 10
1.2036300463040963
 20
1.5972710200945857
 30
0.0
 10
1.2313229506513168
 20
1.5760215072134436
 30
0.0
 10
1.2586407820996754
 20
1.5542919229139414
 30
0.0
 10
1.285575219373079
 20
1.5320888862379558
 30
0.0
 10
1.3121180579810146
 20
1.509419160445544
 30
0.0
 10
1.3382612127177167
 20
1.486289650954788
 30
0.0
 10
1.3639967201249972
 20
1.462707403238341
 30
0.0
 10
1.3893167409179943
 20
1.4386796006773026
 30
0.0
 10
1.4142135623730951
 20
1.414213562373095
 30
0.0
 10
1.4386796006773028
 20
1.389316740917994
 30
0.0
 10
1.4627074032383411
 20
1.3639967201249967
 30
0.0
 10
1.4862896509547885
 20
1.3382612127177165
 30
0.0
 10
1.5094191604455436
 20
1.312118057981015
 30
0.0
 10
1.532088886237956
 20
1.2855752193730787
 30
0.0
 10
1.554291922913942
 20
1.2586407820996746
 30
0.0
 10
1.576021507213444
 20
1.2313229506513166
 30
0.0
 10
1.5972710200945854
 20
1.2036300463040968
 30
0.0
 10
1.618033988749895
 20
1.175570504584946
 30
0.0
 10
1.638304088577984
 20
1.1471528727020917
 30
0.0
 10
1.6580751451100835
 20
1.1183858069414934
 30
0.0
 10
1.677341135890848
 20
1.0892780700300542
 30
0.0
 10
1.6960961923128521
 20
1.0598385284664096
 30
0.0
 10
1.7143346014042247
 20
1.0300761498201085
 30
0.0
 10
1.7320508075688774
 20
0.9999999999999997
 30
0.0
 10
1.7492394142787917
 20
0.9696192404926741
 30
0.0
 10
1.7658951857178542
 20
0.9389431255717812
 30
0.0
 10
1.7820130483767358
 20
0.9079809994790936
 30
0.0
 10
1.7975880925983339
 20
0.8767422935781551
 30
0.0
 10
1.8126155740733
 20
0.8452365234813988
 30
0.0
 10
1.827090915285202
 20
0.8134732861516003
 30
0.0
 10
1.8410097069048807
 20
0.7814622569785473
 30
0.0
 10
1.8543677091335748
 20
0.7492131868318243
 30
0.0
 10
1.8671608529944035
 20
0.7167358990906006
 30
0.0
 10
1.8793852415718169
 20
0.6840402866513375
 30
0.0
 10
1.8910371511986337
 20
0.651136308914313
 30
0.0
 10
1.9021130325903073
 20
0.6180339887498948
 30
0.0
 10
1.912609511926071
 20
0.5847434094454734
 30
0.0
 10
1.9225233918766378
 20
0.5512747116339982
 30
0.0
 10
1.9318516525781366
 20
0.5176380902050418
 30
0.0
 10
1.940591452551993
 20
0.4838437911993357
 30
0.0
 10
1.9487401295704705
 20
0.44990210868772973
 30
0.0
 10
1.9562952014676114
 20
0.41582338163551835
 30
0.0
 10
1.963254366895328
 20
0.3816179907530897
 30
0.0
 10
1.969615506024416
 20
0.3472963553338607
 30
0.0
 10
1.9753766811902753
 20
0.3128689300804622
 30
0.0
 10
1.9805361374831407
 20
0.2783462019201308
 30
0.0
 10
1.9850923032826442
 20
0.24373868681029484
 30
0.0
 10
1.9890437907365468
 20
0.20905692653530678
 30
0.0
 10
1.992389396183491
 20
0.17431148549531658
 30
0.0
 10
1.9951281005196484
 20
0.13951294748825077
 30
0.0
 10
1.9972590695091477
 20
0.10467191248588736
 30
0.0
 10
1.9987816540381915
 20
0.06979899340500159
 30
0.0
 10
1.9996953903127825
 20
0.03490481287456708
 30
0.0
 10
2
 20
0
 30
0.0
 10
1.9996953903127825
 20
-0.03490481287456663
 30
0.0
 10
1.9987816540381915
 20
-0.06979899340500204
 30
0.0
 10
1.9972590695091477
 20
-0.10467191248588781
 30
0.0
 10
1.9951281005196484
 20
-0.1395129474882508
 30
0.0
 10
1.992389396183491
 20
-0.17431148549531617
 30
0.0
 10
1.9890437907365466
 20
-0.2090569265353068
 30
0.0
 10
1.985092303282644
 20
-0.24373868681029487
 30
0.0
 10
1.9805361374831405
 20
-0.27834620192013126
 30
0.0
 10
1.9753766811902755
 20
-0.31286893008046174
 30
0.0
 10
1.969615506024416
 20
-0.3472963553338607
 30
0.0
 10
1.963254366895328
 20
-0.3816179907530897
 30
0.0
 10
1.9562952014676112
 20
-0.4158233816355188
 30
0.0
 10
1.9487401295704705
 20
-0.44990210868772973
 30
0.0
 10
1.940591452551993
 20
-0.4838437911993357
 30
0.0
 10
1.9318516525781366
 20
-0.5176380902050414
 30
0.0
 10
1.9225233918766378
 20
-0.5512747116339982
 30
0.0
 10
1.9126095119260709
 20
-0.5847434094454734
 30
0.0
 10
1.902113032590307
 20
-0.6180339887498948
 30
0.0
 10
1.8910371511986335
 20
-0.6511363089143134
 30
0.0
 10
1.8793852415718166
 20
-0.6840402866513375
 30
0.0
 10
1.8671608529944035
 20
-0.7167358990906006
 30
0.0
 10
1.8543677091335748
 20
-0.7492131868318238
 30
0.0
 10
1.8410097069048805
 20
-0.7814622569785478
 30
0.0
 10
1.8270909152852017
 20
-0.8134732861516003
 30
0.0
 10
1.8126155740732999
 20
-0.8452365234813988
 30
0.0
 10
1.797588092598334
 20
-0.8767422935781548
 30
0.0
 10
1.7820130483767356
 20
-0.9079809994790936
 30
0.0
 10
1.7658951857178538
 20
-0.9389431255717816
 30
0.0
 10
1.7492394142787915
 20
-0.9696192404926741
 30
0.0
 10
1.7320508075688772
 20
-1.0000000000000002
 30
0.0
 10
1.7143346014042244
 20
-1.0300761498201088
 30
0.0
 10
1.6960961923128521
 20
-1.0598385284664098
 30
0.0
 10
1.677341135890848
 20
-1.0892780700300544
 30
0.0
 10
1.6580751451100835
 20
-1.1183858069414936
 30
0.0
 10
1.6383040885779836
 20
-1.147152872702092
 30
0.0
 10
1.618033988749895
 20
-1.1755705045849463
 30
0.0
 10
1.5972710200945857
 20
-1.2036300463040965
 30
0.0
 10
1.576021507213444
 20
-1.2313229506513166
 30
0.0
 10
1.5542919229139416
 20
-1.258640782099675
 30
0.0
 10
1.532088886237956
 20
-1.2855752193730787
 30
0.0
 10
1.509419160445544
 20
-1.3121180579810146
 30
0.0
 10
1.4862896509547885
 20
-1.3382612127177165
 30
0.0
 10
1.462707403238341
 20
-1.363996720124997
 30
0.0
 10
1.4386796006773022
 20
-1.3893167409179947
 30
0.0
 10
1.414213562373095
 20
-1.4142135623730951
 30
0.0
 10
1.3893167409179945
 20
-1.4386796006773024
 30
0.0
 10
1.363996720124997
 20
-1.4627074032383411
 30
0.0
 10
1.3382612127177165
 20
-1.4862896509547885
 30
0.0
 10
1.3121180579810143
 20
-1.509419160445544
 30
0.0
 10
1.2855752193730785
 20
-1.532088886237956
 30
0.0
 10
1.2586407820996748
 20
-1.5542919229139418
 30
0.0
 10
1.2313229506513164
 20
-1.576021507213444
 30
0.0
 10
1.2036300463040965
 20
-1.5972710200945857
 30
0.0
 10
1.1755705045849463
 20
-1.618033988749895
 30
0.0
 10
1.147152872702092
 20
-1.6383040885779836
 30
0.0
 10
1.1183858069414938
 20
-1.6580751451100832
 30
0.0
 10
1.0892780700300542
 20
-1.677341135890848
 30
0.0
 10
1.0598385284664098
 20
-1.696096192312852
 30
0.0
 10
1.0300761498201083
 20
-1.7143346014042247
 30
0.0
 10
1
 20
-1.7320508075688774
 30
0.0
 10
0.9696192404926742
 20
-1.7492394142787915
 30
0.0
 10
0.9389431255717817
 20
-1.765895185717854
 30
0.0
 10
0.9079809994790936
 20
-1.7820130483767358
 30
0.0
 10
0.8767422935781549
 20
-1.797588092598334
 30
0.0
 10
0.845236523481399
 20
-1.8126155740732999
 30
0.0
 10
0.8134732861516004
 20
-1.8270909152852017
 30
0.0
 10
0.7814622569785475
 20
-1.8410097069048807
 30
0.0
 10
0.7492131868318241
 20
-1.8543677091335748
 30
0.0
 10
0.7167358990906006
 20
-1.8671608529944035
 30
0.0
 10
0.6840402866513375
 20
-1.8793852415718169
 30
0.0
 10
0.6511363089143134
 20
-1.8910371511986337
 30
0.0
 10
0.6180339887498949
 20
-1.902113032590307
 30
0.0
 10
0.5847434094454736
 20
-1.9126095119260709
 30
0.0
 10
0.5512747116339984
 20
-1.9225233918766378
 30
0.0
 10
0.5176380902050416
 20
-1.9318516525781366
 30
0.0
 10
0.48384379119933557
 20
-1.940591452551993
 30
0.0
 10
0.4499021086877301
 20
-1.9487401295704705
 30
0.0
 10
0.41582338163551874
 20
-1.9562952014676114
 30
0.0
 10
0.3816179907530897
 20
-1.963254366895328
 30
0.0
 10
0.3472963553338608
 20
-1.969615506024416
 30
0.0
 10
0.31286893008046185
 20
-1.9753766811902755
 30
0.0
 10
0.278346201920131
 20
-1.9805361374831407
 30
0.0
 10
0.24373868681029506
 20
-1.985092303282644
 30
0.0
 10
0.20905692653530702
 20
-1.9890437907365466
 30
0.0
 10
0.17431148549531644
 20
-1.992389396183491
 30
0.0
 10
0.13951294748825072
 20
-1.9951281005196484
 30
0.0
 10
0.10467191248588778
 20
-1.9972590695091477
 30
0.0
 10
0.06979899340500206
 20
-1.9987816540381915
 30
0.0
 10
0.03490481287456715
 20
-1.9996953903127825
 30
0.0
  0
LWPOLYLINE
  8
OpenJsCad
  90
169
  70
1
 10
21.69507226049779
 20
166.8747459281668
 30
0.0
 10
16.552114081557136
 20
165.1157506346876
 30
0.0
 10
16.552114081557136
 20
162.8842493653124
 30
0.0
 10
21.69507226049779
 20
161.1252540718332
 30
0.0
 10
21.69507226049779
 20
158.8747459281668
 30
0.0
 10
16.552114081557136
 20
157.1157506346876
 30
0.0
 10
16.552114081557136
 20
154.8842493653124
 30
0.0
 10
21.695072260497785
 20
153.1252540718332
 30
0.0
 10
21.695072260497785
 20
150.8747459281668
 30
0.0
 10
16.552114081557136
 20
149.1157506346876
 30
0.0
 10
16.552114081557136
 20
146.8842493653124
 30
0.0
 10
21.695072260497785
 20
145.1252540718332
 30
0.0
 10
21.695072260497785
 20
142.8747459281668
 30
0.0
 10
16.552114081557136
 20
141.1157506346876
 30
0.0
 10
16.552114081557136
 20
138.8842493653124
 30
0.0
 10
21.695072260497785
 20
137.1252540718332
 30
0.0
 10
21.695072260497785
 20
134.8747459281668
 30
0.0
 10
16.552114081557136
 20
133.1157506346876
 30
0.0
 10
16.552114081557136
 20
130.88424936531243
 30
0.0
 10
21.69507226049778
 20
129.1252540718332
 30
0.0
 10
21.69507226049778
 20
126.87474592816679
 30
0.0
 10
16.552114081557136
 20
125.11575063468759
 30
0.0
 10
16.552114081557136
 20
122.88424936531241
 30
0.0
 10
21.69507226049778
 20
121.12525407183321
 30
0.0
 10
21.69507226049778
 20
118.87474592816679
 30
0.0
 10
16.552114081557136
 20
117.11575063468759
 30
0.0
 10
16.552114081557136
 20
114.88424936531241
 30
0.0
 10
21.69507226049778
 20
113.12525407183321
 30
0.0
 10
21.69507226049778
 20
110.87474592816679
 30
0.0
 10
16.552114081557136
 20
109.11575063468759
 30
0.0
 10
16.552114081557136
 20
106.88424936531241
 30
0.0
 10
21.69507226049778
 20
105.12525407183321
 30
0.0
 10
21.69507226049778
 20
102.87474592816679
 30
0.0
 10
16.552114081557136
 20
101.11575063468759
 30
0.0
 10
16.552114081557136
 20
98.88424936531241
 30
0.0
 10
21.695072260497778
 20
97.12525407183321
 30
0.0
 10
21.695072260497778
 20
94.87474592816679
 30
0.0
 10
16.552114081557136
 20
93.11575063468759
 30
0.0
 10
16.552114081557136
 20
90.88424936531241
 30
0.0
 10
21.695072260497778
 20
89.12525407183321
 30
0.0
 10
21.695072260497778
 20
86.87474592816679
 30
0.0
 10
16.552114081557136
 20
85.11575063468759
 30
0.0
 10
16.552114081557136
 20
82.88424936531241
 30
0.0
 10
21.695072260497778
 20
81.12525407183321
 30
0.0
 10
21.695072260497778
 20
78.87474592816679
 30
0.0
 10
16.552114081557136
 20
77.11575063468759
 30
0.0
 10
16.552114081557136
 20
74.88424936531241
 30
0.0
 10
21.695072260497774
 20
73.12525407183321
 30
0.0
 10
21.695072260497774
 20
70.87474592816679
 30
0.0
 10
16.552114081557136
 20
69.11575063468759
 30
0.0
 10
16.552114081557136
 20
66.8842493653124
 30
0.0
 10
21.695072260497774
 20
65.12525407183321
 30
0.0
 10
21.695072260497774
 20
62.874745928166796
 30
0.0
 10
16.552114081557136
 20
61.11575063468759
 30
0.0
 10
16.552114081557136
 20
58.88424936531241
 30
0.0
 10
21.695072260497774
 20
57.125254071833204
 30
0.0
 10
21.695072260497774
 20
54.874745928166796
 30
0.0
 10
16.552114081557136
 20
53.11575063468759
 30
0.0
 10
16.552114081557136
 20
50.88424936531241
 30
0.0
 10
21.695072260497774
 20
49.125254071833204
 30
0.0
 10
21.695072260497774
 20
46.874745928166796
 30
0.0
 10
16.552114081557136
 20
45.11575063468759
 30
0.0
 10
16.552114081557136
 20
42.88424936531241
 30
0.0
 10
21.69507226049777
 20
41.125254071833204
 30
0.0
 10
21.69507226049777
 20
38.874745928166796
 30
0.0
 10
16.552114081557136
 20
37.11575063468759
 30
0.0
 10
16.552114081557136
 20
34.88424936531241
 30
0.0
 10
21.69507226049777
 20
33.12525407183321
 30
0.0
 10
21.69507226049777
 20
30.874745928166792
 30
0.0
 10
16.552114081557136
 20
29.115750634687593
 30
0.0
 10
16.552114081557136
 20
26.884249365312407
 30
0.0
 10
21.69507226049777
 20
25.125254071833208
 30
0.0
 10
21.69507226049777
 20
22.874745928166792
 30
0.0
 10
16.552114081557136
 20
21.115750634687593
 30
0.0
 10
16.552114081557136
 20
18.884249365312407
 30
0.0
 10
21.69507226049777
 20
17.125254071833204
 30
0.0
 10
21.695072260497767
 20
14.874745928166794
 30
0.0
 10
16.552114081557136
 20
13.115750634687592
 30
0.0
 10
16.552114081557136
 20
10.884249365312408
 30
0.0
 10
21.695072260497767
 20
9.125254071833206
 30
0.0
 10
21.695072260497767
 20
6.874745928166793
 30
0.0
 10
16.552114081557136
 20
5.1157506346875925
 30
0.0
 10
16.552114081557136
 20
2.8842493653124084
 30
0.0
 10
21.695072260497767
 20
1.125254071833206
 30
0.0
 10
21.695072260497767
 20
-1.125254071833206
 30
0.0
 10
16.552114081557136
 20
-2.8842493653124084
 30
0.0
 10
16.552114081557136
 20
-5.115750634687592
 30
0.0
 10
21.695072260497767
 20
-6.874745928166794
 30
0.0
 10
21.695072260497767
 20
-9.125254071833206
 30
0.0
 10
16.552114081557136
 20
-10.884249365312408
 30
0.0
 10
16.552114081557136
 20
-13.115750634687593
 30
0.0
 10
21.695072260497767
 20
-14.874745928166792
 30
0.0
 10
21.695072260497763
 20
-17.125254071833208
 30
0.0
 10
16.552114081557136
 20
-18.884249365312407
 30
0.0
 10
16.552114081557136
 20
-21.115750634687593
 30
0.0
 10
21.695072260497763
 20
-22.874745928166792
 30
0.0
 10
21.695072260497763
 20
-25.125254071833208
 30
0.0
 10
16.552114081557136
 20
-26.884249365312407
 30
0.0
 10
16.552114081557136
 20
-29.115750634687593
 30
0.0
 10
21.695072260497763
 20
-30.874745928166796
 30
0.0
 10
21.695072260497763
 20
-33.125254071833204
 30
0.0
 10
16.552114081557136
 20
-34.88424936531241
 30
0.0
 10
16.552114081557136
 20
-37.11575063468759
 30
0.0
 10
21.695072260497763
 20
-38.874745928166796
 30
0.0
 10
21.695072260497763
 20
-41.125254071833204
 30
0.0
 10
16.552114081557136
 20
-42.88424936531241
 30
0.0
 10
16.552114081557136
 20
-45.11575063468759
 30
0.0
 10
21.69507226049776
 20
-46.874745928166796
 30
0.0
 10
21.69507226049776
 20
-49.125254071833204
 30
0.0
 10
16.552114081557136
 20
-50.88424936531241
 30
0.0
 10
16.552114081557136
 20
-53.11575063468759
 30
0.0
 10
21.69507226049776
 20
-54.874745928166796
 30
0.0
 10
21.69507226049776
 20
-57.125254071833204
 30
0.0
 10
16.552114081557136
 20
-58.88424936531241
 30
0.0
 10
16.552114081557136
 20
-61.115750634687586
 30
0.0
 10
21.69507226049776
 20
-62.87474592816679
 30
0.0
 10
21.69507226049776
 20
-65.12525407183321
 30
0.0
 10
16.552114081557136
 20
-66.88424936531241
 30
0.0
 10
16.552114081557136
 20
-69.11575063468759
 30
0.0
 10
21.69507226049776
 20
-70.87474592816679
 30
0.0
 10
21.69507226049776
 20
-73.12525407183321
 30
0.0
 10
16.552114081557136
 20
-74.88424936531241
 30
0.0
 10
16.552114081557136
 20
-77.11575063468759
 30
0.0
 10
21.695072260497756
 20
-78.87474592816679
 30
0.0
 10
21.695072260497756
 20
-81.12525407183321
 30
0.0
 10
16.552114081557136
 20
-82.88424936531241
 30
0.0
 10
16.552114081557136
 20
-85.11575063468759
 30
0.0
 10
21.695072260497756
 20
-86.87474592816679
 30
0.0
 10
21.695072260497756
 20
-89.12525407183321
 30
0.0
 10
16.552114081557136
 20
-90.88424936531241
 30
0.0
 10
16.552114081557136
 20
-93.11575063468759
 30
0.0
 10
21.695072260497756
 20
-94.87474592816679
 30
0.0
 10
21.695072260497756
 20
-97.12525407183321
 30
0.0
 10
16.552114081557136
 20
-98.88424936531241
 30
0.0
 10
16.552114081557136
 20
-101.11575063468759
 30
0.0
 10
21.695072260497753
 20
-102.87474592816679
 30
0.0
 10
21.695072260497753
 20
-105.12525407183321
 30
0.0
 10
16.552114081557136
 20
-106.88424936531241
 30
0.0
 10
16.552114081557136
 20
-109.11575063468759
 30
0.0
 10
21.695072260497753
 20
-110.87474592816679
 30
0.0
 10
21.695072260497753
 20
-113.12525407183321
 30
0.0
 10
16.552114081557136
 20
-114.88424936531241
 30
0.0
 10
16.552114081557136
 20
-117.11575063468759
 30
0.0
 10
21.695072260497753
 20
-118.87474592816679
 30
0.0
 10
21.695072260497753
 20
-121.12525407183321
 30
0.0
 10
16.552114081557136
 20
-122.88424936531241
 30
0.0
 10
16.552114081557136
 20
-125.1157506346876
 30
0.0
 10
21.695072260497753
 20
-126.87474592816679
 30
0.0
 10
21.695072260497753
 20
-129.1252540718332
 30
0.0
 10
16.552114081557136
 20
-130.8842493653124
 30
0.0
 10
16.552114081557136
 20
-133.1157506346876
 30
0.0
 10
21.69507226049775
 20
-134.8747459281668
 30
0.0
 10
21.69507226049775
 20
-137.1252540718332
 30
0.0
 10
16.552114081557136
 20
-138.8842493653124
 30
0.0
 10
16.552114081557136
 20
-141.1157506346876
 30
0.0
 10
21.69507226049775
 20
-142.8747459281668
 30
0.0
 10
21.69507226049775
 20
-145.1252540718332
 30
0.0
 10
16.552114081557136
 20
-146.8842493653124
 30
0.0
 10
16.552114081557136
 20
-149.1157506346876
 30
0.0
 10
21.69507226049775
 20
-150.8747459281668
 30
0.0
 10
21.69507226049775
 20
-153.1252540718332
 30
0.0
 10
16.552114081557136
 20
-154.8842493653124
 30
0.0
 10
16.552114081557136
 20
-157.1157506346876
 30
0.0
 10
21.695072260497746
 20
-158.8747459281668
 30
0.0
 10
21.69507226049779
 20
-160
 30
0.0
 10
31.88098861837905
 20
-160
 30
0.0
 10
31.88098861837909
 20
168
 30
0.0
 10
21.69507226049779
 20
168
 30
0.0
 10
21.69507226049779
 20
166.8747459281668
 30
0.0
  0
ENDSEC
  0
EOF
