999
DXF generated by OpenJsCad
  0
SECTION
  2
HEADER
  0
ENDSEC
  0
SECTION
  2
TABLES
  0
TABLE
  2
LTYPE
  70
1
  0
LTYPE
  2
CONTINUOUS
  3
Solid Line
  72
65
  73
0
  40
0.0
  0
ENDTAB
  0
TABLE
  2
LAYER
  70
1
  0
LAYER
  2
OpenJsCad
  62
7
  6
continuous
  0
ENDTAB
  0
TABLE
  2
STYLE
  70
0
  0
ENDTAB
  0
TABLE
  2
VIEW
  70
0
  0
ENDTAB
  0
ENDSEC
  0
SECTION
  2
BLOCKS
  0
ENDSEC
  0
SECTION
  2
ENTITIES
  0
LWPOLYLINE
  8
OpenJsCad
  90
286
  70
1
 10
19.360075733583702
 20
-9.581866171233962
 30
0.0
 10
19.773757443923596
 20
-8.803844030367985
 30
0.0
 10
20.07513347833569
 20
-7.975820181055981
 30
0.0
 10
19.632069987741993
 20
-7.345831917193029
 30
0.0
 10
18.74217699790905
 20
-6.395479420835498
 30
0.0
 10
18.00337366858501
 20
-5.79972934024856
 30
0.0
 10
17.491694897940715
 20
-5.493717579131049
 30
0.0
 10
17.267513708698417
 20
-5.399104006811407
 30
0.0
 10
16.913371959910997
 20
-5.304995141813697
 30
0.0
 10
16.196476825502472
 20
-4.947082916425733
 30
0.0
 10
15.904784131736111
 20
-4.54465854803008
 30
0.0
 10
16.378222460085137
 20
-2.3173063334982213
 30
0.0
 10
16.808377732196096
 20
-2.0683154867773155
 30
0.0
 10
17.608870042911153
 20
-2.0329339194466245
 30
0.0
 10
17.970672152710375
 20
-2.091003619378821
 30
0.0
 10
18.21395466662628
 20
-2.095752524508132
 30
0.0
 10
18.80586267977918
 20
-2.024315375659025
 30
0.0
 10
19.72310649326439
 20
-1.7805689817112318
 30
0.0
 10
20.922607376020515
 20
-1.2743308628861931
 30
0.0
 10
21.583605326921408
 20
-0.8790181028989938
 30
0.0
 10
21.645072260497766
 20
-4.509784163436628e-16
 30
0.0
 10
21.583605326921408
 20
0.8790181028989932
 30
0.0
 10
20.922607376021492
 20
1.274330862885615
 30
0.0
 10
19.723106493264442
 20
1.7805689817110049
 30
0.0
 10
18.805862679779167
 20
2.0243153756589307
 30
0.0
 10
18.21395466662627
 20
2.095752524508033
 30
0.0
 10
17.970672152710353
 20
2.091003619378829
 30
0.0
 10
17.608870042911157
 20
2.0329339194465987
 30
0.0
 10
16.808377732196078
 20
2.0683154867778306
 30
0.0
 10
16.378222460085137
 20
2.317306333498104
 30
0.0
 10
15.90478413173616
 20
4.544658548029973
 30
0.0
 10
16.19647682550228
 20
4.9470829164262105
 30
0.0
 10
16.913371959911004
 20
5.304995141813672
 30
0.0
 10
17.267513708698434
 20
5.399104006811422
 30
0.0
 10
17.49169489794076
 20
5.49371757913096
 30
0.0
 10
18.00337366858506
 20
5.799729340248478
 30
0.0
 10
18.74217699790909
 20
6.395479420835268
 30
0.0
 10
19.63206998774134
 20
7.345831917192102
 30
0.0
 10
20.07513347833569
 20
7.975820181055981
 30
0.0
 10
19.7737574439236
 20
8.803844030367982
 30
0.0
 10
19.360075733583702
 20
9.581866171233967
 30
0.0
 10
18.59543587306603
 20
9.674150259838887
 30
0.0
 10
17.29373169713699
 20
9.648740831358298
 30
0.0
 10
16.356647187740528
 20
9.498337572787143
 30
0.0
 10
15.786856204868656
 20
9.322847977345704
 30
0.0
 10
15.566538123087433
 20
9.219557723606941
 30
0.0
 10
15.25963452392972
 20
9.019350237409716
 30
0.0
 10
14.513957429675063
 20
8.726083352261197
 30
0.0
 10
14.019717333605493
 20
8.778587897897324
 30
0.0
 10
12.681264136582236
 20
10.62081067967702
 30
0.0
 10
12.784057935306425
 20
11.107085740542264
 30
0.0
 10
13.293398211881712
 20
11.725642348686513
 30
0.0
 10
13.578645274015216
 20
11.955657500903902
 30
0.0
 10
13.744962174341802
 20
12.133274004480922
 30
0.0
 10
14.0879377945774
 20
12.620948164340057
 30
0.0
 10
14.52055483228259
 20
13.465691330412815
 30
0.0
 10
14.946969346824945
 20
14.695833623999961
 30
0.0
 10
15.095488674483548
 20
15.45156669765475
 30
0.0
 10
14.483380326348174
 20
16.085423447473197
 30
0.0
 10
13.78901316514286
 20
16.62792253004118
 30
0.0
 10
13.052944573425991
 20
16.401221189969988
 30
0.0
 10
11.874113581954285
 20
15.848557735205123
 30
0.0
 10
11.079218801466794
 20
15.33001091389255
 30
0.0
 10
10.630066886203062
 20
14.937938319485319
 30
0.0
 10
10.470808234423446
 20
14.753966540370925
 30
0.0
 10
10.271869566333258
 20
14.44623896110012
 30
0.0
 10
9.70994203239939
 20
13.875032132160039
 30
0.0
 10
9.23707571501193
 20
13.721971863782716
 30
0.0
 10
7.265038366545281
 20
14.86052815777196
 30
0.0
 10
7.161159288575781
 20
15.346572535412369
 30
0.0
 10
7.374875146286615
 20
16.118819469354897
 30
0.0
 10
7.5419057133351055
 20
16.444969199351476
 30
0.0
 10
7.621600621737878
 20
16.67487712712223
 30
0.0
 10
7.7365694909903455
 20
17.259890393102683
 30
0.0
 10
7.788196821055064
 20
18.207562876996683
 30
0.0
 10
7.677401916888906
 20
19.50479218976103
 30
0.0
 10
7.505696740603851
 20
20.255596959152374
 30
0.0
 10
6.688695172967569
 20
20.58568701902587
 30
0.0
 10
5.8337049511968635
 20
20.798860023470407
 30
0.0
 10
5.253480574761875
 20
20.29237197593843
 30
0.0
 10
4.401353355516309
 20
19.308015027007997
 30
0.0
 10
3.8860928328764532
 20
18.51098609920893
 30
0.0
 10
3.6352424317870136
 20
17.970123419276618
 30
0.0
 10
3.5645804777211323
 20
17.737280506726616
 30
0.0
 10
3.5080050437123216
 20
17.375241728455446
 30
0.0
 10
3.2269894456677872
 20
16.62486180569868
 30
0.0
 10
2.857259789094363
 20
16.292702234219224
 30
0.0
 10
0.5926214621310874
 20
16.530725313728063
 30
0.0
 10
0.30003114376062295
 20
16.932497519675064
 30
0.0
 10
0.1811691692611859
 20
17.724906268894053
 30
0.0
 10
0.20110213875691296
 20
18.09079632537614
 30
0.0
 10
0.1803950815675195
 20
18.333242507981115
 30
0.0
 10
0.04747803788371669
 20
18.914440771716187
 30
0.0
 10
-0.29081117407979573
 20
19.801181391631925
 30
0.0
 10
-0.919658051484034
 20
20.941194990438174
 30
0.0
 10
-1.3818983468405046
 20
21.557250490091118
 30
0.0
 10
-2.26252614070714
 20
21.526498289893475
 30
0.0
 10
-3.13030384635676
 20
21.373485667130158
 30
0.0
 10
-3.4543579416512835
 20
20.674787296855133
 30
0.0
 10
-3.8324408511303907
 20
19.428941112831353
 30
0.0
 10
-3.9789738905632865
 20
18.491243620942743
 30
0.0
 10
-3.988148464225718
 20
17.895110926428835
 30
0.0
 10
-3.9579956267761753
 20
17.653657535334577
 30
0.0
 10
-3.8624254201918022
 20
17.29990735184517
 30
0.0
 10
-3.813938932498539
 20
16.500101840903948
 30
0.0
 10
-4.016602311747901
 20
16.04627637380614
 30
0.0
 10
-6.182265076882531
 20
15.342609886015705
 30
0.0
 10
-6.612975111508112
 20
15.59063985587515
 30
0.0
 10
-7.043862602999728
 20
16.26619574882315
 30
0.0
 10
-7.174473822567918
 20
16.608560417018182
 30
0.0
 10
-7.292002407043724
 20
16.821623706930552
 30
0.0
 10
-7.649822799297432
 20
17.298512508599984
 30
0.0
 10
-8.319535275279675
 20
17.970995755568396
 30
0.0
 10
-9.357700787924266
 20
18.75667493248454
 30
0.0
 10
-10.030550655963767
 20
19.13145956982057
 30
0.0
 10
-10.822536130248881
 20
18.745182444340934
 30
0.0
 10
-11.553054670957636
 20
18.25244146692158
 30
0.0
 10
-11.564906588096234
 20
17.48234406959948
 30
0.0
 10
-11.403571217984542
 20
16.190426773857325
 30
0.0
 10
-11.156039880481659
 20
15.274197132940998
 30
0.0
 10
-10.921952259582463
 20
14.725871182422464
 30
0.0
 10
-10.79619833014245
 20
14.51755679763934
 30
0.0
 10
-10.565007439911401
 20
14.233261829376545
 30
0.0
 10
-10.195402620688416
 20
13.522324369097564
 30
0.0
 10
-10.1959573832025
 20
13.025303552517544
 30
0.0
 10
-11.888181819988137
 20
11.501617825776156
 30
0.0
 10
-12.382537893004246
 20
11.553018924477811
 30
0.0
 10
-13.050946539719172
 20
11.994912210031497
 30
0.0
 10
-13.309518081922258
 20
12.254553528523182
 30
0.0
 10
-13.503546433714938
 20
12.401393347297876
 30
0.0
 10
-14.024399778021676
 20
12.691514280694271
 30
0.0
 10
-14.909736146778476
 20
13.033461691996008
 30
0.0
 10
-16.177712046089578
 20
13.328955379662002
 30
0.0
 10
-16.944829631978926
 20
13.39766548607418
 30
0.0
 10
-17.51123130321645
 20
12.722654259525493
 30
0.0
 10
-17.978177386743198
 20
11.975384318857154
 30
0.0
 10
-17.675777821581317
 20
11.267044730600198
 30
0.0
 10
-17.002920523056964
 20
10.152440560273657
 30
0.0
 10
-16.404125225624153
 20
9.416103198929022
 30
0.0
 10
-15.967251286436076
 20
9.010394530635393
 30
0.0
 10
-15.767640261844356
 20
8.871238601769178
 30
0.0
 10
-15.44080369319088
 20
8.705556031484337
 30
0.0
 10
-14.813988573436202
 20
8.206414167413902
 30
0.0
 10
-14.612338795736466
 20
7.752137415830727
 30
0.0
 10
-15.538523925676488
 20
5.671891554542239
 30
0.0
 10
-16.011047380974706
 20
5.517776065156269
 30
0.0
 10
-16.801403255594007
 20
5.649599379768936
 30
0.0
 10
-17.143225751736363
 20
5.781623005822734
 30
0.0
 10
-17.380204606128725
 20
5.836849414795734
 30
0.0
 10
-17.974030627453768
 20
5.890037934868916
 30
0.0
 10
-18.921908187798667
 20
5.842323696595203
 30
0.0
 10
-20.20044992158597
 20
5.596538351937718
 30
0.0
 10
-20.929193625680416
 20
5.347293325815659
 30
0.0
 10
-21.17207549931574
 20
4.5002635715526695
 30
0.0
 10
-21.29470990574671
 20
3.6276744291111904
 30
0.0
 10
-20.73034649031465
 20
3.1035709997921432
 30
0.0
 10
-19.662310403009148
 20
2.35900514179168
 30
0.0
 10
-18.815788292457047
 20
1.929879479210147
 30
0.0
 10
-18.251667507940844
 20
1.7369388076369348
 30
0.0
 10
-18.012713947758552
 20
1.6910026589805247
 30
0.0
 10
-17.64674471261985
 20
1.6725805082547833
 30
0.0
 10
-16.871101320975654
 20
1.471540403252151
 30
0.0
 10
-16.5021140815571
 20
1.138556293989277
 30
0.0
 10
-16.502114081557124
 20
-1.1385562939891687
 30
0.0
 10
-16.871101320975566
 20
-1.4715404032526644
 30
0.0
 10
-17.646744712619853
 20
-1.6725805082547642
 30
0.0
 10
-18.01271394775857
 20
-1.691002658980543
 30
0.0
 10
-18.251667507940873
 20
-1.7369388076368455
 30
0.0
 10
-18.81578829245708
 20
-1.9298794792100638
 30
0.0
 10
-19.662310403009144
 20
-2.3590051417914544
 30
0.0
 10
-20.730346490313817
 20
-3.103570999791382
 30
0.0
 10
-21.29470990574671
 20
-3.6276744291111984
 30
0.0
 10
-21.172075499315742
 20
-4.500263571552666
 30
0.0
 10
-20.929193625680412
 20
-5.347293325815657
 30
0.0
 10
-20.200449921587044
 20
-5.596538351937353
 30
0.0
 10
-18.921908187798767
 20
-5.842323696594991
 30
0.0
 10
-17.974030627453775
 20
-5.890037934868819
 30
0.0
 10
-17.38020460612874
 20
-5.8368494147956325
 30
0.0
 10
-17.143225751736342
 20
-5.781623005822735
 30
0.0
 10
-16.801403255594018
 20
-5.64959937976891
 30
0.0
 10
-16.011047380974585
 20
-5.517776065156768
 30
0.0
 10
-15.538523925676513
 20
-5.671891554542124
 30
0.0
 10
-14.612338795736534
 20
-7.752137415830631
 30
0.0
 10
-14.813988573435914
 20
-8.206414167414328
 30
0.0
 10
-15.440803693190894
 20
-8.705556031484313
 30
0.0
 10
-15.767640261844369
 20
-8.871238601769198
 30
0.0
 10
-15.96725128643614
 20
-9.010394530635317
 30
0.0
 10
-16.404125225624224
 20
-9.416103198928953
 30
0.0
 10
-17.002920523057053
 20
-10.15244056027344
 30
0.0
 10
-17.67577782158087
 20
-11.267044730599155
 30
0.0
 10
-17.978177386743198
 20
-11.975384318857154
 30
0.0
 10
-17.511231303216462
 20
-12.72265425952548
 30
0.0
 10
-16.944829631978934
 20
-13.397665486074173
 30
0.0
 10
-16.177712046090715
 20
-13.328955379662098
 30
0.0
 10
-14.909736146778663
 20
-13.033461691995846
 30
0.0
 10
-14.024399778021728
 20
-12.691514280694175
 30
0.0
 10
-13.503546433714998
 20
-12.40139334729778
 30
0.0
 10
-13.309518081922244
 20
-12.254553528523164
 30
0.0
 10
-13.050946539719197
 20
-11.994912210031467
 30
0.0
 10
-12.382537893003935
 20
-11.553018924478208
 30
0.0
 10
-11.888181819988212
 20
-11.501617825776052
 30
0.0
 10
-10.195957383202611
 20
-13.025303552517476
 30
0.0
 10
-10.195402620687988
 20
-13.522324369097827
 30
0.0
 10
-10.565007439911428
 20
-14.233261829376518
 30
0.0
 10
-10.79619833014246
 20
-14.517556797639353
 30
0.0
 10
-10.921952259582559
 20
-14.725871182422411
 30
0.0
 10
-11.156039880481753
 20
-15.274197132940952
 30
0.0
 10
-11.403571217984718
 20
-16.190426773857155
 30
0.0
 10
-11.564906588096253
 20
-17.482344069598337
 30
0.0
 10
-11.553054670957644
 20
-18.252441466921567
 30
0.0
 10
-10.822536130248883
 20
-18.745182444340934
 30
0.0
 10
-10.030550655963768
 20
-19.13145956982057
 30
0.0
 10
-9.357700787925257
 20
-18.756674932485097
 30
0.0
 10
-8.3195352752799
 20
-17.970995755568328
 30
0.0
 10
-7.649822799297509
 20
-17.298512508599924
 30
0.0
 10
-7.292002407043809
 20
-16.821623706930495
 30
0.0
 10
-7.1744738225679034
 20
-16.608560417018168
 30
0.0
 10
-7.043862602999755
 20
-16.26619574882314
 30
0.0
 10
-6.61297511150766
 20
-15.590639855875391
 30
0.0
 10
-6.182265076882635
 20
-15.342609886015646
 30
0.0
 10
-4.01660231174802
 20
-16.046276373806126
 30
0.0
 10
-3.813938932498031
 20
-16.50010184090402
 30
0.0
 10
-3.8624254201918298
 20
-17.299907351845164
 30
0.0
 10
-3.9579956267761722
 20
-17.653657535334602
 30
0.0
 10
-3.9881484642258203
 20
-17.895110926428835
 30
0.0
 10
-3.9789738905633834
 20
-18.49124362094275
 30
0.0
 10
-3.8324408511306127
 20
-19.428941112831275
 30
0.0
 10
-3.454357941651758
 20
-20.674787296854106
 30
0.0
 10
-3.1303038463567634
 20
-21.37348566713016
 30
0.0
 10
-2.2625261407071515
 20
-21.526498289893475
 30
0.0
 10
-1.3818983468405066
 20
-21.557250490091118
 30
0.0
 10
-0.919658051484713
 20
-20.941194990439087
 30
0.0
 10
-0.29081117408002977
 20
-19.801181391631957
 30
0.0
 10
0.04747803788362175
 20
-18.914440771716166
 30
0.0
 10
0.18039508156741868
 20
-18.333242507981097
 30
0.0
 10
0.2011021387569205
 20
-18.09079632537612
 30
0.0
 10
0.18116916926115786
 20
-17.724906268894053
 30
0.0
 10
0.3000311437611353
 20
-16.9324975196751
 30
0.0
 10
0.5926214621309686
 20
-16.530725313728052
 30
0.0
 10
2.8572597890942495
 20
-16.29270223421926
 30
0.0
 10
3.2269894456682806
 20
-16.624861805698536
 30
0.0
 10
3.5080050437122936
 20
-17.37524172845545
 30
0.0
 10
3.564580477721144
 20
-17.737280506726638
 30
0.0
 10
3.6352424317869185
 20
-17.970123419276657
 30
0.0
 10
3.8860928328763653
 20
-18.510986099208978
 30
0.0
 10
4.401353355516073
 20
-19.308015027008018
 30
0.0
 10
5.25348057476102
 20
-20.292371975937684
 30
0.0
 10
5.833704951196862
 20
-20.79886002347041
 30
0.0
 10
6.688695172967555
 20
-20.585687019025876
 30
0.0
 10
7.505696740603839
 20
-20.25559695915238
 30
0.0
 10
7.6774019168886465
 20
-19.504792189762142
 30
0.0
 10
7.7881968210548544
 20
-18.20756287699681
 30
0.0
 10
7.736569490990241
 20
-17.259890393102705
 30
0.0
 10
7.621600621737771
 20
-16.67487712712226
 30
0.0
 10
7.541905713335096
 20
-16.44496919935146
 30
0.0
 10
7.374875146286583
 20
-16.11881946935491
 30
0.0
 10
7.161159288576256
 20
-15.3465725354122
 30
0.0
 10
7.26503836654516
 20
-14.860528157772002
 30
0.0
 10
9.237075715011834
 20
-13.7219718637828
 30
0.0
 10
9.709942032399777
 20
-13.875032132159713
 30
0.0
 10
10.271869566333228
 20
-14.446238961100141
 30
0.0
 10
10.47080823442346
 20
-14.753966540370945
 30
0.0
 10
10.630066886202986
 20
-14.937938319485397
 30
0.0
 10
11.079218801466727
 20
-15.33001091389263
 30
0.0
 10
11.874113581954072
 20
-15.848557735205244
 30
0.0
 10
13.0529445734249
 20
-16.40122118996966
 30
0.0
 10
13.789013165142851
 20
-16.62792253004119
 30
0.0
 10
14.483380326348174
 20
-16.085423447473204
 30
0.0
 10
15.09548867448355
 20
-15.451566697654748
 30
0.0
 10
14.946969346825169
 20
-14.695833624001073
 30
0.0
 10
14.520554832282457
 20
-13.465691330413003
 30
0.0
 10
14.08793779457732
 20
-12.620948164340112
 30
0.0
 10
13.744962174341724
 20
-12.133274004480985
 30
0.0
 10
13.578645274015207
 20
-11.955657500903882
 30
0.0
 10
13.293398211881696
 20
-11.725642348686534
 30
0.0
 10
12.784057935306794
 20
-11.107085740541908
 30
0.0
 10
12.681264136582149
 20
-10.6208106796771
 30
0.0
 10
14.019717333605445
 20
-8.778587897897433
 30
0.0
 10
14.51395742967529
 20
-8.726083352260732
 30
0.0
 10
15.259634523929709
 20
-9.019350237409736
 30
0.0
 10
15.566538123087456
 20
-9.21955772360694
 30
0.0
 10
15.786856204868618
 20
-9.322847977345795
 30
0.0
 10
16.356647187740506
 20
-9.498337572787232
 30
0.0
 10
17.29373169713685
 20
-9.64874083135848
 30
0.0
 10
18.5954358730649
 20
-9.674150259839019
 30
0.0
 10
19.360075733583702
 20
-9.581866171233962
 30
0.0
  0
LWPOLYLINE
  8
OpenJsCad
  90
31
  70
1
 10
0.41582338163551874
 20
-1.9562952014676114
 30
0.0
 10
1.2246467991473532e-16
 20
-2
 30
0.0
 10
-0.41582338163551785
 20
-1.9562952014676114
 30
0.0
 10
-0.8134732861516002
 20
-1.827090915285202
 30
0.0
 10
-1.1755705045849467
 20
-1.6180339887498945
 30
0.0
 10
-1.486289650954788
 20
-1.338261212717717
 30
0.0
 10
-1.7320508075688772
 20
-1.0000000000000002
 30
0.0
 10
-1.9021130325903073
 20
-0.6180339887498946
 30
0.0
 10
-1.9890437907365468
 20
-0.20905692653530608
 30
0.0
 10
-1.9890437907365466
 20
0.20905692653530836
 30
0.0
 10
-1.902113032590307
 20
0.618033988749895
 30
0.0
 10
-1.7320508075688767
 20
1.0000000000000009
 30
0.0
 10
-1.486289650954788
 20
1.338261212717717
 30
0.0
 10
-1.175570504584946
 20
1.618033988749895
 30
0.0
 10
-0.8134732861516005
 20
1.8270909152852017
 30
0.0
 10
-0.41582338163551824
 20
1.9562952014676114
 30
0.0
 10
1.0106430996148606e-15
 20
2
 30
0.0
 10
0.4158233816355185
 20
1.9562952014676114
 30
0.0
 10
0.8134732861516
 20
1.827090915285202
 30
0.0
 10
1.1755705045849465
 20
1.618033988749895
 30
0.0
 10
1.486289650954789
 20
1.3382612127177158
 30
0.0
 10
1.7320508075688774
 20
0.9999999999999997
 30
0.0
 10
1.9021130325903073
 20
0.6180339887498948
 30
0.0
 10
1.9890437907365468
 20
0.20905692653530678
 30
0.0
 10
1.9890437907365466
 20
-0.2090569265353068
 30
0.0
 10
1.902113032590307
 20
-0.6180339887498948
 30
0.0
 10
1.7320508075688772
 20
-1.0000000000000002
 30
0.0
 10
1.4862896509547885
 20
-1.3382612127177165
 30
0.0
 10
1.1755705045849463
 20
-1.618033988749895
 30
0.0
 10
0.8134732861516004
 20
-1.8270909152852017
 30
0.0
 10
0.41582338163551874
 20
-1.9562952014676114
 30
0.0
  0
ENDSEC
  0
EOF
