999
DXF generated by OpenJsCad
  0
SECTION
  2
HEADER
  0
ENDSEC
  0
SECTION
  2
TABLES
  0
TABLE
  2
LTYPE
  70
1
  0
LTYPE
  2
CONTINUOUS
  3
Solid Line
  72
65
  73
0
  40
0.0
  0
ENDTAB
  0
TABLE
  2
LAYER
  70
1
  0
LAYER
  2
OpenJsCad
  62
7
  6
continuous
  0
ENDTAB
  0
TABLE
  2
STYLE
  70
0
  0
ENDTAB
  0
TABLE
  2
VIEW
  70
0
  0
ENDTAB
  0
ENDSEC
  0
SECTION
  2
BLOCKS
  0
ENDSEC
  0
SECTION
  2
ENTITIES
  0
LWPOLYLINE
  8
OpenJsCad
  90
169
  70
1
 10
-2.5964790894703254
 20
-162.8747459281668
 30
0.0
 10
2.5464790894703255
 20
-161.1157506346876
 30
0.0
 10
2.5464790894703255
 20
-158.8842493653124
 30
0.0
 10
-2.5964790894703254
 20
-157.1252540718332
 30
0.0
 10
-2.5964790894703254
 20
-154.8747459281668
 30
0.0
 10
2.5464790894703255
 20
-153.1157506346876
 30
0.0
 10
2.5464790894703255
 20
-150.8842493653124
 30
0.0
 10
-2.5964790894703254
 20
-149.1252540718332
 30
0.0
 10
-2.5964790894703254
 20
-146.8747459281668
 30
0.0
 10
2.5464790894703255
 20
-145.1157506346876
 30
0.0
 10
2.5464790894703255
 20
-142.8842493653124
 30
0.0
 10
-2.5964790894703254
 20
-141.1252540718332
 30
0.0
 10
-2.5964790894703254
 20
-138.8747459281668
 30
0.0
 10
2.5464790894703255
 20
-137.1157506346876
 30
0.0
 10
2.5464790894703255
 20
-134.8842493653124
 30
0.0
 10
-2.5964790894703254
 20
-133.1252540718332
 30
0.0
 10
-2.5964790894703254
 20
-130.8747459281668
 30
0.0
 10
2.5464790894703255
 20
-129.1157506346876
 30
0.0
 10
2.5464790894703255
 20
-126.88424936531241
 30
0.0
 10
-2.5964790894703254
 20
-125.12525407183321
 30
0.0
 10
-2.5964790894703254
 20
-122.87474592816679
 30
0.0
 10
2.5464790894703255
 20
-121.11575063468759
 30
0.0
 10
2.5464790894703255
 20
-118.88424936531241
 30
0.0
 10
-2.5964790894703254
 20
-117.12525407183321
 30
0.0
 10
-2.5964790894703254
 20
-114.87474592816679
 30
0.0
 10
2.5464790894703255
 20
-113.11575063468759
 30
0.0
 10
2.5464790894703255
 20
-110.88424936531241
 30
0.0
 10
-2.5964790894703254
 20
-109.12525407183321
 30
0.0
 10
-2.5964790894703254
 20
-106.87474592816679
 30
0.0
 10
2.5464790894703255
 20
-105.11575063468759
 30
0.0
 10
2.5464790894703255
 20
-102.88424936531241
 30
0.0
 10
-2.5964790894703254
 20
-101.12525407183321
 30
0.0
 10
-2.5964790894703254
 20
-98.87474592816679
 30
0.0
 10
2.5464790894703255
 20
-97.11575063468759
 30
0.0
 10
2.5464790894703255
 20
-94.88424936531241
 30
0.0
 10
-2.5964790894703254
 20
-93.12525407183321
 30
0.0
 10
-2.5964790894703254
 20
-90.87474592816679
 30
0.0
 10
2.5464790894703255
 20
-89.11575063468759
 30
0.0
 10
2.5464790894703255
 20
-86.88424936531241
 30
0.0
 10
-2.5964790894703254
 20
-85.12525407183321
 30
0.0
 10
-2.5964790894703254
 20
-82.87474592816679
 30
0.0
 10
2.5464790894703255
 20
-81.11575063468759
 30
0.0
 10
2.5464790894703255
 20
-78.88424936531241
 30
0.0
 10
-2.5964790894703254
 20
-77.12525407183321
 30
0.0
 10
-2.5964790894703254
 20
-74.87474592816679
 30
0.0
 10
2.5464790894703255
 20
-73.11575063468759
 30
0.0
 10
2.5464790894703255
 20
-70.88424936531241
 30
0.0
 10
-2.5964790894703254
 20
-69.12525407183321
 30
0.0
 10
-2.5964790894703254
 20
-66.87474592816679
 30
0.0
 10
2.5464790894703255
 20
-65.11575063468759
 30
0.0
 10
2.5464790894703255
 20
-62.88424936531241
 30
0.0
 10
-2.5964790894703254
 20
-61.125254071833204
 30
0.0
 10
-2.5964790894703254
 20
-58.874745928166796
 30
0.0
 10
2.5464790894703255
 20
-57.11575063468759
 30
0.0
 10
2.5464790894703255
 20
-54.88424936531241
 30
0.0
 10
-2.5964790894703254
 20
-53.125254071833204
 30
0.0
 10
-2.5964790894703254
 20
-50.874745928166796
 30
0.0
 10
2.5464790894703255
 20
-49.11575063468759
 30
0.0
 10
2.5464790894703255
 20
-46.88424936531241
 30
0.0
 10
-2.5964790894703254
 20
-45.125254071833204
 30
0.0
 10
-2.5964790894703254
 20
-42.874745928166796
 30
0.0
 10
2.5464790894703255
 20
-41.11575063468759
 30
0.0
 10
2.5464790894703255
 20
-38.88424936531241
 30
0.0
 10
-2.5964790894703254
 20
-37.125254071833204
 30
0.0
 10
-2.5964790894703254
 20
-34.874745928166796
 30
0.0
 10
2.5464790894703255
 20
-33.11575063468759
 30
0.0
 10
2.5464790894703255
 20
-30.884249365312407
 30
0.0
 10
-2.5964790894703254
 20
-29.125254071833208
 30
0.0
 10
-2.5964790894703254
 20
-26.874745928166792
 30
0.0
 10
2.5464790894703255
 20
-25.115750634687593
 30
0.0
 10
2.5464790894703255
 20
-22.884249365312407
 30
0.0
 10
-2.5964790894703254
 20
-21.125254071833208
 30
0.0
 10
-2.5964790894703254
 20
-18.874745928166792
 30
0.0
 10
2.5464790894703255
 20
-17.115750634687593
 30
0.0
 10
2.5464790894703255
 20
-14.884249365312408
 30
0.0
 10
-2.5964790894703254
 20
-13.125254071833206
 30
0.0
 10
-2.5964790894703254
 20
-10.874745928166794
 30
0.0
 10
2.5464790894703255
 20
-9.115750634687592
 30
0.0
 10
2.5464790894703255
 20
-6.884249365312408
 30
0.0
 10
-2.5964790894703254
 20
-5.125254071833206
 30
0.0
 10
-2.5964790894703254
 20
-2.8747459281667935
 30
0.0
 10
2.5464790894703255
 20
-1.115750634687592
 30
0.0
 10
2.5464790894703255
 20
1.115750634687592
 30
0.0
 10
-2.5964790894703254
 20
2.8747459281667935
 30
0.0
 10
-2.5964790894703254
 20
5.125254071833206
 30
0.0
 10
2.5464790894703255
 20
6.884249365312408
 30
0.0
 10
2.5464790894703255
 20
9.115750634687592
 30
0.0
 10
-2.5964790894703254
 20
10.874745928166794
 30
0.0
 10
-2.5964790894703254
 20
13.125254071833206
 30
0.0
 10
2.5464790894703255
 20
14.884249365312408
 30
0.0
 10
2.5464790894703255
 20
17.115750634687593
 30
0.0
 10
-2.5964790894703254
 20
18.874745928166792
 30
0.0
 10
-2.5964790894703254
 20
21.125254071833208
 30
0.0
 10
2.5464790894703255
 20
22.884249365312407
 30
0.0
 10
2.5464790894703255
 20
25.115750634687593
 30
0.0
 10
-2.5964790894703254
 20
26.874745928166792
 30
0.0
 10
-2.5964790894703254
 20
29.125254071833208
 30
0.0
 10
2.5464790894703255
 20
30.884249365312407
 30
0.0
 10
2.5464790894703255
 20
33.11575063468759
 30
0.0
 10
-2.5964790894703254
 20
34.874745928166796
 30
0.0
 10
-2.5964790894703254
 20
37.125254071833204
 30
0.0
 10
2.5464790894703255
 20
38.88424936531241
 30
0.0
 10
2.5464790894703255
 20
41.11575063468759
 30
0.0
 10
-2.5964790894703254
 20
42.874745928166796
 30
0.0
 10
-2.5964790894703254
 20
45.125254071833204
 30
0.0
 10
2.5464790894703255
 20
46.88424936531241
 30
0.0
 10
2.5464790894703255
 20
49.11575063468759
 30
0.0
 10
-2.5964790894703254
 20
50.874745928166796
 30
0.0
 10
-2.5964790894703254
 20
53.125254071833204
 30
0.0
 10
2.5464790894703255
 20
54.88424936531241
 30
0.0
 10
2.5464790894703255
 20
57.11575063468759
 30
0.0
 10
-2.5964790894703254
 20
58.874745928166796
 30
0.0
 10
-2.5964790894703254
 20
61.125254071833204
 30
0.0
 10
2.5464790894703255
 20
62.88424936531241
 30
0.0
 10
2.5464790894703255
 20
65.11575063468759
 30
0.0
 10
-2.5964790894703254
 20
66.87474592816679
 30
0.0
 10
-2.5964790894703254
 20
69.12525407183321
 30
0.0
 10
2.5464790894703255
 20
70.88424936531241
 30
0.0
 10
2.5464790894703255
 20
73.11575063468759
 30
0.0
 10
-2.5964790894703254
 20
74.87474592816679
 30
0.0
 10
-2.5964790894703254
 20
77.12525407183321
 30
0.0
 10
2.5464790894703255
 20
78.88424936531241
 30
0.0
 10
2.5464790894703255
 20
81.11575063468759
 30
0.0
 10
-2.5964790894703254
 20
82.87474592816679
 30
0.0
 10
-2.5964790894703254
 20
85.12525407183321
 30
0.0
 10
2.5464790894703255
 20
86.88424936531241
 30
0.0
 10
2.5464790894703255
 20
89.11575063468759
 30
0.0
 10
-2.5964790894703254
 20
90.87474592816679
 30
0.0
 10
-2.5964790894703254
 20
93.12525407183321
 30
0.0
 10
2.5464790894703255
 20
94.88424936531241
 30
0.0
 10
2.5464790894703255
 20
97.11575063468759
 30
0.0
 10
-2.5964790894703254
 20
98.87474592816679
 30
0.0
 10
-2.5964790894703254
 20
101.12525407183321
 30
0.0
 10
2.5464790894703255
 20
102.88424936531241
 30
0.0
 10
2.5464790894703255
 20
105.11575063468759
 30
0.0
 10
-2.5964790894703254
 20
106.87474592816679
 30
0.0
 10
-2.5964790894703254
 20
109.12525407183321
 30
0.0
 10
2.5464790894703255
 20
110.88424936531241
 30
0.0
 10
2.5464790894703255
 20
113.11575063468759
 30
0.0
 10
-2.5964790894703254
 20
114.87474592816679
 30
0.0
 10
-2.5964790894703254
 20
117.12525407183321
 30
0.0
 10
2.5464790894703255
 20
118.88424936531241
 30
0.0
 10
2.5464790894703255
 20
121.11575063468759
 30
0.0
 10
-2.5964790894703254
 20
122.87474592816679
 30
0.0
 10
-2.5964790894703254
 20
125.12525407183321
 30
0.0
 10
2.5464790894703255
 20
126.88424936531241
 30
0.0
 10
2.5464790894703255
 20
129.1157506346876
 30
0.0
 10
-2.5964790894703254
 20
130.8747459281668
 30
0.0
 10
-2.5964790894703254
 20
133.1252540718332
 30
0.0
 10
2.5464790894703255
 20
134.8842493653124
 30
0.0
 10
2.5464790894703255
 20
137.1157506346876
 30
0.0
 10
-2.5964790894703254
 20
138.8747459281668
 30
0.0
 10
-2.5964790894703254
 20
141.1252540718332
 30
0.0
 10
2.5464790894703255
 20
142.8842493653124
 30
0.0
 10
2.5464790894703255
 20
145.1157506346876
 30
0.0
 10
-2.5964790894703254
 20
146.8747459281668
 30
0.0
 10
-2.5964790894703254
 20
149.1252540718332
 30
0.0
 10
2.5464790894703255
 20
150.8842493653124
 30
0.0
 10
2.5464790894703255
 20
153.1157506346876
 30
0.0
 10
-2.5964790894703254
 20
154.8747459281668
 30
0.0
 10
-2.5964790894703254
 20
157.1252540718332
 30
0.0
 10
2.5464790894703255
 20
158.8842493653124
 30
0.0
 10
2.5464790894703255
 20
161.1157506346876
 30
0.0
 10
-2.5964790894703254
 20
162.8747459281668
 30
0.0
 10
-2.5964790894704546
 20
164
 30
0.0
 10
-12.782395447351627
 20
164
 30
0.0
 10
-12.782395447351627
 20
-164
 30
0.0
 10
-2.596479089470325
 20
-164
 30
0.0
 10
-2.5964790894703254
 20
-162.8747459281668
 30
0.0
  0
ENDSEC
  0
EOF
